<svg id="Layer_1" data-name="Layer 1" xmlns="http://www.w3.org/2000/svg" viewBox="0 0 120 120"><defs><style>.cls-1{fill:#fff;}.cls-2{fill:#274247;}.cls-3{fill:#1a9d49;}</style></defs><title>Artboard 28 copy</title><rect class="cls-1" x="1" y="1" width="118" height="118"/><path class="cls-2" d="M120,120H0V0H120ZM2,118H118V2H2Z"/><path class="cls-3" d="M62,22H18a1,1,0,0,1,0-2H62a1,1,0,0,1,0,2Z"/><path class="cls-3" d="M99.44,24.34l-5.13-5.13a1,1,0,0,1,0-1.42,1,1,0,0,1,1.41,0l3.72,3.72,3.71-3.72a1,1,0,0,1,1.42,1.42Z"/><path class="cls-3" d="M62,61H18a1,1,0,0,1,0-2H62a1,1,0,0,1,0,2Z"/><path class="cls-3" d="M99.44,63.34l-5.13-5.13a1,1,0,0,1,0-1.42,1,1,0,0,1,1.41,0l3.72,3.72,3.71-3.72a1,1,0,0,1,1.42,1.42Z"/><path class="cls-3" d="M62,100H18a1,1,0,0,1,0-2H62a1,1,0,0,1,0,2Z"/><path class="cls-3" d="M99.44,102.34l-5.13-5.13a1,1,0,0,1,0-1.42,1,1,0,0,1,1.41,0l3.72,3.72,3.71-3.72a1,1,0,0,1,1.42,1.42Z"/><rect class="cls-2" x="1" y="39" width="118" height="2"/><rect class="cls-2" x="1" y="79" width="118" height="2"/></svg>