<svg id="Layer_1" data-name="Layer 1" xmlns="http://www.w3.org/2000/svg" viewBox="0 0 120 120"><defs><style>.cls-1{fill:#fff;}.cls-2{fill:#274247;}.cls-3{fill:#1a9d49;}</style></defs><title>Artboard 9 copy</title><rect class="cls-1" x="1" y="1" width="118" height="118"/><path class="cls-2" d="M120,120H0V0H120ZM2,118H118V2H2Z"/><path class="cls-2" d="M31.68,52.8a.89.89,0,0,1-.39-.09,1,1,0,0,1-.53-1.31l3.54-8.26a1,1,0,0,1,1.84.79L32.6,52.19A1,1,0,0,1,31.68,52.8Z"/><path class="cls-2" d="M57.64,52.8a.89.89,0,0,1-.39-.09,1,1,0,0,1-.53-1.31l3.54-8.26a1,1,0,0,1,1.84.79l-3.54,8.26A1,1,0,0,1,57.64,52.8Z"/><circle class="cls-2" cx="19" cy="15" r="6"/><path class="cls-2" d="M106,120H14V94h92Zm-90-2h88V96H16Z"/><path class="cls-2" d="M105,80H15a1,1,0,0,1,0-2h90a1,1,0,0,1,0,2Z"/><rect class="cls-2" x="1" y="28" width="118" height="2"/><path class="cls-2" d="M77,49H66a1,1,0,0,1,0-2H77a1,1,0,0,1,0,2Z"/><path class="cls-3" d="M51,49H41a1,1,0,0,1,0-2H51a1,1,0,0,1,0,2Z"/><path class="cls-3" d="M25,49H15a1,1,0,0,1,0-2H25a1,1,0,0,1,0,2Z"/><path class="cls-2" d="M41,16H31a1,1,0,0,1,0-2H41a1,1,0,0,1,0,2Z"/></svg>