<svg id="Layer_1" data-name="Layer 1" xmlns="http://www.w3.org/2000/svg" viewBox="0 0 120 120"><defs><style>.cls-1{fill:#fff;}.cls-2{fill:#274247;}.cls-3{fill:#1a9d49;}</style></defs><title>Artboard 24 copy</title><rect class="cls-1" x="1" y="1" width="118" height="45" rx="1"/><path class="cls-2" d="M118,47H2a2,2,0,0,1-2-2V2A2,2,0,0,1,2,0H118a2,2,0,0,1,2,2V45A2,2,0,0,1,118,47ZM2,2V45H118V2Z"/><path class="cls-2" d="M89,25H30a1,1,0,0,1,0-2H89a1,1,0,0,1,0,2Z"/><rect class="cls-3" x="1" y="74" width="118" height="45" rx="1"/><path class="cls-3" d="M118,120H2a2,2,0,0,1-2-2V75a2,2,0,0,1,2-2H118a2,2,0,0,1,2,2v43A2,2,0,0,1,118,120ZM2,75v43H118V75Z"/><path class="cls-1" d="M89,98H30a1,1,0,0,1,0-2H89a1,1,0,0,1,0,2Z"/></svg>