<svg id="Layer_1" data-name="Layer 1" xmlns="http://www.w3.org/2000/svg" viewBox="0 0 120 120"><defs><style>.cls-1{fill:#fff;}.cls-2{fill:#1a9d49;}.cls-3{fill:#274247;}</style></defs><title>Artboard 8 copy</title><rect class="cls-1" x="1" y="1" width="118" height="118"/><path class="cls-2" d="M120,120H0V0H120ZM2,118H118V2H2Z"/><path class="cls-2" d="M70,78H14a1,1,0,0,1,0-2H70a1,1,0,0,1,0,2Z"/><path class="cls-3" d="M105,91H14a1,1,0,0,1,0-2h91a1,1,0,0,1,0,2Z"/><path class="cls-3" d="M105,104H14a1,1,0,0,1,0-2h91a1,1,0,0,1,0,2Z"/><circle class="cls-2" cx="39" cy="21" r="9"/><polygon class="cls-3" points="2 57.78 27.96 38.98 50.07 49.42 88.31 25.4 118 40.17 118 63 2 63 2 57.78"/></svg>