<svg id="Layer_1" data-name="Layer 1" xmlns="http://www.w3.org/2000/svg" viewBox="0 0 120 120"><defs><style>.cls-1{fill:#fff;}.cls-2{fill:#274247;}.cls-3{fill:#1a9d49;}</style></defs><title>Artboard 27 copy</title><rect class="cls-1" x="1" y="1" width="118" height="118"/><path class="cls-2" d="M120,120H0V0H120ZM2,118H118V2H2Z"/><path class="cls-2" d="M96,27H57a1,1,0,0,1,0-2H96a1,1,0,0,1,0,2Z"/><path class="cls-2" d="M96,93H57a1,1,0,0,1,0-2H96a1,1,0,0,1,0,2Z"/><path class="cls-3" d="M96,60H57a1,1,0,0,1,0-2H96a1,1,0,0,1,0,2Z"/><rect class="cls-1" x="23" y="17" width="20" height="20"/><path class="cls-2" d="M44,38H22V16H44ZM24,36H42V18H24Z"/><rect class="cls-3" x="23" y="51" width="20" height="20"/><path class="cls-3" d="M44,72H22V50H44ZM24,70H42V52H24Z"/><rect class="cls-1" x="23" y="84" width="20" height="20"/><path class="cls-2" d="M44,105H22V83H44Zm-20-2H42V85H24Z"/><path class="cls-1" d="M31.43,68.55l-5.67-5.86A1,1,0,1,1,27.2,61.3l4,4.15,7-9.56a1,1,0,0,1,1.4-.21,1,1,0,0,1,.22,1.39Z"/></svg>