<svg id="Layer_1" data-name="Layer 1" xmlns="http://www.w3.org/2000/svg" viewBox="0 0 120 120"><defs><style>.cls-1{fill:#fff;}.cls-2{fill:#274247;}.cls-3{fill:#1a9d49;}</style></defs><title>Artboard 1 copy</title><rect class="cls-1" x="1" y="79" width="118" height="40"/><path class="cls-2" d="M120,120H0V78H120ZM2,118H118V80H2Z"/><rect class="cls-2" width="120" height="81"/><path class="cls-3" d="M32.57,101.71H31.05L30.48,105H29l.57-3.24H27.81v-1.37h2l.39-2.26H28.4V96.72h2.08l.58-3.29H32.5l-.58,3.29h1.53L34,93.43h1.45l-.58,3.29h1.73v1.36h-2l-.39,2.26H36v1.37H34L33.45,105H32Zm-1.28-1.37h1.52l.4-2.26H31.67Z"/><path class="cls-3" d="M45.62,105H37.73v-1.57l3.73-4A8.8,8.8,0,0,0,42.59,98,2.31,2.31,0,0,0,43,96.76a1.73,1.73,0,0,0-.39-1.2,1.38,1.38,0,0,0-1.11-.44,1.5,1.5,0,0,0-1.22.53,2.1,2.1,0,0,0-.45,1.4H37.5a3.82,3.82,0,0,1,.5-1.92,3.58,3.58,0,0,1,1.42-1.36,4.35,4.35,0,0,1,2.08-.5,4.1,4.1,0,0,1,2.77.86,3,3,0,0,1,1,2.41,3.93,3.93,0,0,1-.44,1.74,9.61,9.61,0,0,1-1.52,2.06l-2.62,2.76h4.95Z"/><path class="cls-3" d="M54.85,94.71,50.4,105H48l4.46-9.67H46.72V93.43h8.13Z"/><path class="cls-3" d="M63.08,100.61h1.3v1.85h-1.3V105H60.79v-2.49H56.07L56,101l4.8-7.59h2.31Zm-4.83,0h2.54V96.55l-.15.26Z"/><path class="cls-3" d="M73.5,105H65.61v-1.57l3.72-4A9.54,9.54,0,0,0,70.47,98a2.39,2.39,0,0,0,.36-1.19,1.73,1.73,0,0,0-.38-1.2,1.38,1.38,0,0,0-1.11-.44,1.49,1.49,0,0,0-1.22.53,2.1,2.1,0,0,0-.45,1.4H65.38a3.72,3.72,0,0,1,.5-1.92,3.51,3.51,0,0,1,1.42-1.36,4.29,4.29,0,0,1,2.08-.5,4.05,4.05,0,0,1,2.76.86,3,3,0,0,1,1,2.41,3.82,3.82,0,0,1-.45,1.74,9.51,9.51,0,0,1-1.51,2.06l-2.62,2.76h5Z"/><path class="cls-3" d="M81.66,100.61H83v1.85H81.66V105H79.38v-2.49H74.65l-.1-1.44,4.8-7.59h2.31Zm-4.83,0h2.55V96.55l-.16.26Z"/><path class="cls-3" d="M92,94.71,87.57,105H85.16l4.46-9.67H83.89V93.43H92Z"/></svg>