<svg id="Layer_1" data-name="Layer 1" xmlns="http://www.w3.org/2000/svg" viewBox="0 0 120 120"><defs><style>.cls-1{fill:#fff;}.cls-2{fill:#274247;}.cls-3{fill:#1a9d49;}</style></defs><title>Artboard 22 copy</title><rect class="cls-1" x="1" y="1" width="118" height="54"/><path class="cls-2" d="M120,56H0V0H120ZM2,54H118V2H2Z"/><rect class="cls-1" x="1" y="65" width="118" height="54"/><path class="cls-2" d="M120,120H0V64H120ZM2,118H118V66H2Z"/><path class="cls-2" d="M107,88H68a1,1,0,0,1,0-2h39a1,1,0,0,1,0,2Z"/><path class="cls-2" d="M107,98H68a1,1,0,0,1,0-2h39a1,1,0,0,1,0,2Z"/><path class="cls-2" d="M107,25H68a1,1,0,0,1,0-2h39a1,1,0,0,1,0,2Z"/><path class="cls-2" d="M107,35H68a1,1,0,0,1,0-2h39a1,1,0,0,1,0,2Z"/><polygon class="cls-1" points="13.8 42 31 12.82 48.21 42 13.8 42"/><path class="cls-3" d="M50,43H12L31,10.85ZM15.55,41H46.46L31,14.79Z"/><path class="cls-3" d="M31,32a1,1,0,0,1-1-1V24a1,1,0,0,1,2,0v7A1,1,0,0,1,31,32Z"/><circle class="cls-3" cx="31" cy="35.5" r="1.5"/><path class="cls-3" d="M31,99a1,1,0,0,1-1-1V91a1,1,0,0,1,2,0v7A1,1,0,0,1,31,99Z"/><circle class="cls-3" cx="31" cy="86.5" r="1.5"/><path class="cls-3" d="M31,108A16,16,0,1,1,47,92,16,16,0,0,1,31,108Zm0-30A14,14,0,1,0,45,92,14,14,0,0,0,31,78Z"/></svg>