<svg id="Layer_1" data-name="Layer 1" xmlns="http://www.w3.org/2000/svg" viewBox="0 0 120 120"><defs><style>.cls-1{fill:#fff;}.cls-2{fill:#274247;}.cls-3{fill:#1a9d49;}</style></defs><title>Artboard 10 copy</title><rect class="cls-1" x="1" y="40" width="118" height="79"/><path class="cls-2" d="M120,120H0V39H120ZM2,118H118V41H2Z"/><path class="cls-2" d="M105,61H18a1,1,0,0,1,0-2h87a1,1,0,0,1,0,2Z"/><rect class="cls-1" x="1" y="1" width="118" height="39"/><path class="cls-3" d="M120,41H0V0H120ZM2,39H118V2H2Z"/><path class="cls-3" d="M62,22H18a1,1,0,0,1,0-2H62a1,1,0,0,1,0,2Z"/><path class="cls-3" d="M103.86,23.5a1,1,0,0,1-.71-.29l-3.71-3.72-3.72,3.72a1,1,0,0,1-1.41,0,1,1,0,0,1,0-1.42l5.13-5.13,5.13,5.13a1,1,0,0,1,0,1.42A1,1,0,0,1,103.86,23.5Z"/><rect class="cls-3" x="2" y="78.85" width="116" height="39.15"/><path class="cls-1" d="M74,101H18a1,1,0,0,1,0-2H74a1,1,0,0,1,0,2Z"/></svg>