<svg id="Layer_1" data-name="Layer 1" xmlns="http://www.w3.org/2000/svg" viewBox="0 0 120 120"><defs><style>.cls-1{fill:#fff;}.cls-2{fill:#274247;}.cls-3{fill:#1a9d49;}</style></defs><title>Artboard 29 copy</title><rect class="cls-1" x="1" y="1" width="118" height="118"/><path class="cls-2" d="M120,120H0V0H120ZM2,118H118V2H2Z"/><path class="cls-2" d="M106,103H14a1,1,0,0,1,0-2h92a1,1,0,0,1,0,2Z"/><path class="cls-2" d="M106,88H14a1,1,0,0,1,0-2h92a1,1,0,0,1,0,2Z"/><path class="cls-2" d="M106,17H14a1,1,0,0,1,0-2h92a1,1,0,0,1,0,2Z"/><rect class="cls-1" x="14" y="32" width="92" height="37"/><path class="cls-3" d="M107,70H13V31h94ZM15,68h90V33H15Z"/><path class="cls-3" d="M66,52H25a1,1,0,0,1,0-2H66a1,1,0,0,1,0,2Z"/><path class="cls-3" d="M91.44,54.34l-5.13-5.13a1,1,0,0,1,0-1.42,1,1,0,0,1,1.41,0l3.72,3.72,3.71-3.72a1,1,0,0,1,1.42,1.42Z"/></svg>