<svg id="Layer_1" data-name="Layer 1" xmlns="http://www.w3.org/2000/svg" viewBox="0 0 120 120"><defs><style>.cls-1{fill:#274247;}.cls-2{fill:#1a9d49;}.cls-3{fill:#fff;}</style></defs><title>Artboard 7 copy</title><polygon class="cls-1" points="120 120 0 120 0 0 2 0 2 118 120 118 120 120"/><path class="cls-2" d="M17.48,88.93a1,1,0,0,1-.68-.27,1,1,0,0,1-.05-1.42L45.62,56.57,75,77.52,106,25.77a1,1,0,0,1,1.71,1L75.55,80.41,45.88,59.21,18.21,88.61A1,1,0,0,1,17.48,88.93Z"/><circle class="cls-3" cx="15.5" cy="90.5" r="5.5"/><path class="cls-2" d="M15.5,97A6.5,6.5,0,1,1,22,90.5,6.51,6.51,0,0,1,15.5,97Zm0-11A4.5,4.5,0,1,0,20,90.5,4.51,4.51,0,0,0,15.5,86Z"/><circle class="cls-3" cx="44.5" cy="58.5" r="5.5"/><path class="cls-2" d="M44.5,65A6.5,6.5,0,1,1,51,58.5,6.51,6.51,0,0,1,44.5,65Zm0-11A4.5,4.5,0,1,0,49,58.5,4.51,4.51,0,0,0,44.5,54Z"/><circle class="cls-3" cx="76.5" cy="77.5" r="5.5"/><path class="cls-2" d="M76.5,84A6.5,6.5,0,1,1,83,77.5,6.51,6.51,0,0,1,76.5,84Zm0-11A4.5,4.5,0,1,0,81,77.5,4.51,4.51,0,0,0,76.5,73Z"/><circle class="cls-3" cx="107.5" cy="25.5" r="5.5"/><path class="cls-2" d="M107.5,32a6.5,6.5,0,1,1,6.5-6.5A6.51,6.51,0,0,1,107.5,32Zm0-11a4.5,4.5,0,1,0,4.5,4.5A4.51,4.51,0,0,0,107.5,21Z"/></svg>