<svg id="Layer_1" data-name="Layer 1" xmlns="http://www.w3.org/2000/svg" viewBox="0 0 120 120"><defs><style>.cls-1{fill:#1a9d49;}.cls-2{fill:#274247;}</style></defs><title>Artboard 3 copy</title><rect class="cls-1" x="118" width="2" height="120"/><rect class="cls-1" x="80" y="86" width="2" height="34"/><path class="cls-1" d="M43,120a1,1,0,0,1-1-1,.84.84,0,0,1,.08-.38,1.15,1.15,0,0,1,.21-.33,1,1,0,0,1,1.42,0,1.15,1.15,0,0,1,.21.33A1,1,0,0,1,43,120Z"/><path class="cls-1" d="M43,115.09a1,1,0,0,1-1-1h0a1,1,0,1,1,1,1Zm0-4.92a1,1,0,0,1-1-1h0a1,1,0,1,1,1,1Zm0-4.92a1,1,0,0,1-1-1h0a1,1,0,1,1,1,1Zm0-4.91a1,1,0,0,1-1-1h0a1,1,0,1,1,1,1Zm0-4.92a1,1,0,0,1-1-1h0a1,1,0,1,1,1,1Zm0-4.92a1,1,0,0,1-1-1h0a1,1,0,1,1,1,1Zm0-4.91a1,1,0,0,1-1-1h0a1,1,0,1,1,1,1Zm0-4.92a1,1,0,0,1-1-1h0a1,1,0,1,1,1,1Zm0-4.92a1,1,0,0,1-1-1h0a1,1,0,1,1,1,1Zm0-4.91a1,1,0,0,1-1-1h0a1,1,0,1,1,1,1Zm0-4.92a1,1,0,0,1-1-1h0a1,1,0,1,1,1,1ZM43,61a1,1,0,0,1-1-1h0a1,1,0,1,1,1,1Zm0-4.91a1,1,0,0,1-1-1h0a1,1,0,1,1,1,1Zm0-4.92a1,1,0,0,1-1-1h0a1,1,0,1,1,1,1Zm0-4.92a1,1,0,0,1-1-1h0a1,1,0,1,1,1,1Zm0-4.91a1,1,0,0,1-1-1h0a1,1,0,1,1,1,1Zm0-4.92a1,1,0,0,1-1-1h0a1,1,0,1,1,1,1Zm0-4.92a1,1,0,0,1-1-1h0a1,1,0,1,1,1,1Zm0-4.91a1,1,0,0,1-1-1h0a1,1,0,1,1,1,1Zm0-4.92a1,1,0,0,1-1-1h0a1,1,0,1,1,1,1Zm0-4.92a1,1,0,0,1-1-1h0a1,1,0,1,1,1,1Zm0-4.91a1,1,0,0,1-1-1h0a1,1,0,1,1,1,1Zm0-4.92a1,1,0,0,1-1-1h0a1,1,0,1,1,1,1Z"/><path class="cls-1" d="M43,2a1,1,0,0,1-1-1,.84.84,0,0,1,.08-.38,1.15,1.15,0,0,1,.21-.33,1,1,0,0,1,1.42,0,1,1,0,0,1,.21.33A1,1,0,0,1,43,2Z"/><rect class="cls-1" width="2" height="120"/><rect class="cls-2" x="86" y="86" width="28" height="34" transform="translate(200 206) rotate(180)"/><rect class="cls-2" x="48" y="86" width="28" height="34" transform="translate(124 206) rotate(180)"/><rect class="cls-2" x="48" width="66" height="39" transform="translate(162 39) rotate(180)"/><rect class="cls-2" x="48" y="43" width="66" height="39" transform="translate(162 125) rotate(180)"/><rect class="cls-1" x="2" y="60" width="34.83" height="2"/><polygon class="cls-1" points="30.2 69.18 28.84 67.72 36.06 61 28.84 54.29 30.2 52.82 39 61 30.2 69.18"/></svg>