<svg id="Layer_1" data-name="Layer 1" xmlns="http://www.w3.org/2000/svg" viewBox="0 0 120 120"><defs><style>.cls-1{fill:#fff;}.cls-2{fill:#274247;}.cls-3{fill:#1a9d49;}</style></defs><title>Artboard 18 copy</title><rect class="cls-1" x="1" y="27" width="118" height="92"/><path class="cls-2" d="M120,120H0V26H120ZM2,118H118V28H2Z"/><rect class="cls-1" x="1" y="1" width="118" height="26"/><path class="cls-3" d="M120,28H0V0H120ZM2,26H118V2H2Z"/><circle class="cls-3" cx="18" cy="14" r="6"/><path class="cls-3" d="M40,15H29a1,1,0,0,1,0-2H40a1,1,0,0,1,0,2Z"/><rect class="cls-2" x="2" y="95" width="116" height="23"/><path class="cls-1" d="M24,108H14a1,1,0,0,1,0-2H24a1,1,0,0,1,0,2Z"/><path class="cls-1" d="M78,108H68a1,1,0,0,1,0-2H78a1,1,0,0,1,0,2Z"/><path class="cls-1" d="M51,108H40a1,1,0,0,1,0-2H51a1,1,0,0,1,0,2Z"/><path class="cls-1" d="M105,108H94a1,1,0,0,1,0-2h11a1,1,0,0,1,0,2Z"/><path class="cls-2" d="M105,80H43a1,1,0,0,1,0-2h62a1,1,0,0,1,0,2Z"/><path class="cls-2" d="M23,47H14a1,1,0,0,1,0-2h9a1,1,0,0,1,0,2Z"/><path class="cls-2" d="M23,58H14a1,1,0,0,1,0-2h9a1,1,0,0,1,0,2Z"/><path class="cls-2" d="M23,69H14a1,1,0,0,1,0-2h9a1,1,0,0,1,0,2Z"/><path class="cls-2" d="M23,80H14a1,1,0,0,1,0-2h9a1,1,0,0,1,0,2Z"/><path class="cls-2" d="M106,70H42V45h64ZM44,68h60V47H44Z"/><path class="cls-2" d="M32,81a1,1,0,0,1-1-1V45a1,1,0,0,1,2,0V80A1,1,0,0,1,32,81Z"/></svg>