<svg id="Layer_1" data-name="Layer 1" xmlns="http://www.w3.org/2000/svg" viewBox="0 0 120 120"><defs><style>.cls-1{fill:#274247;}.cls-2{fill:#1a9d49;}</style></defs><title>Artboard 11 copy 11</title><path class="cls-1" d="M116,120H88a1,1,0,0,1-1-1V99a1,1,0,0,1,2,0v19h26V99a1,1,0,0,1,2,0v20A1,1,0,0,1,116,120Z"/><path class="cls-1" d="M119,100H85a1,1,0,0,1-1-1V91a1,1,0,0,1,1-1h34a1,1,0,0,1,1,1v8A1,1,0,0,1,119,100ZM86,98h32V92H86Z"/><path class="cls-1" d="M105,106H99a1,1,0,0,1,0-2h6a1,1,0,0,1,0,2Z"/><path class="cls-1" d="M31.89,120H4.11A4.11,4.11,0,0,1,0,115.89V99.11A4.11,4.11,0,0,1,4.11,95H9.46l3-4.55a1,1,0,0,1,.83-.45h10a1,1,0,0,1,.84.45l3,4.55h4.69A4.11,4.11,0,0,1,36,99.11v16.78A4.11,4.11,0,0,1,31.89,120ZM4.11,97A2.12,2.12,0,0,0,2,99.11v16.78A2.12,2.12,0,0,0,4.11,118H31.89A2.12,2.12,0,0,0,34,115.89V99.11A2.12,2.12,0,0,0,31.89,97H26.67a1,1,0,0,1-.84-.45L22.8,92H13.87l-3,4.55A1,1,0,0,1,10,97Z"/><path class="cls-1" d="M18.22,113.48a7.23,7.23,0,1,1,7.22-7.22A7.23,7.23,0,0,1,18.22,113.48Zm0-12.45a5.23,5.23,0,1,0,5.22,5.23A5.24,5.24,0,0,0,18.22,101Z"/><path class="cls-2" d="M54,75a1,1,0,0,1-1-1V71a1,1,0,0,1,2,0v3A1,1,0,0,1,54,75Z"/><path class="cls-2" d="M54,66a1,1,0,0,1-1-1V62a1,1,0,0,1,2,0v3A1,1,0,0,1,54,66Z"/><path class="cls-2" d="M66,75a1,1,0,0,1-1-1V71a1,1,0,0,1,2,0v3A1,1,0,0,1,66,75Z"/><path class="cls-2" d="M66,66a1,1,0,0,1-1-1V62a1,1,0,0,1,2,0v3A1,1,0,0,1,66,66Z"/><path class="cls-2" d="M60,78a1,1,0,0,1-1-1V74a1,1,0,0,1,2,0v3A1,1,0,0,1,60,78Z"/><path class="cls-2" d="M60,69a1,1,0,0,1-1-1V65a1,1,0,0,1,2,0v3A1,1,0,0,1,60,69Z"/><path class="cls-2" d="M72.46,67.91a1,1,0,0,1-.92-.6A1,1,0,0,1,72.06,66a7,7,0,0,0,.36-12.46,5.83,5.83,0,0,0-4.68-.59,1,1,0,0,1-.82-.06,1,1,0,0,1-.5-.63,11.62,11.62,0,0,0-9-8.07,11.22,11.22,0,0,0-11.45,4.09c-3.83,4.94-2,12.41,2.25,15.79a1,1,0,1,1-1.24,1.56c-5-4-7.24-12.57-2.58-18.58A13.27,13.27,0,0,1,57.8,42.23a13.76,13.76,0,0,1,10.27,8.58,8.08,8.08,0,0,1,5.34,1,9,9,0,0,1-.55,16A1,1,0,0,1,72.46,67.91Z"/><path class="cls-1" d="M110.51,75a5.33,5.33,0,0,1-3.7-1.51A5.91,5.91,0,0,1,105,69.24V66H98v3.24a5.91,5.91,0,0,1-1.81,4.25A5.34,5.34,0,0,1,92.25,75,5.51,5.51,0,0,1,87,69.75a5.31,5.31,0,0,1,1.5-3.94A5.91,5.91,0,0,1,92.76,64H96V57H92.76a5.91,5.91,0,0,1-4.25-1.81A5.31,5.31,0,0,1,87,51.25,5.51,5.51,0,0,1,92.25,46a5.31,5.31,0,0,1,3.94,1.5A5.91,5.91,0,0,1,98,51.76V55h7V51.76a5.91,5.91,0,0,1,1.81-4.25,5.29,5.29,0,0,1,3.94-1.5A5.51,5.51,0,0,1,116,51.25a5.31,5.31,0,0,1-1.5,3.94A5.91,5.91,0,0,1,110.24,57H107v7h3.24a5.91,5.91,0,0,1,4.25,1.81,5.31,5.31,0,0,1,1.5,3.94A5.51,5.51,0,0,1,110.75,75ZM107,66v3.24a3.86,3.86,0,0,0,1.19,2.8,3.37,3.37,0,0,0,2.47,1A3.53,3.53,0,0,0,114,69.66a3.33,3.33,0,0,0-1-2.47,3.86,3.86,0,0,0-2.8-1.19ZM92.76,66A3.86,3.86,0,0,0,90,67.19a3.33,3.33,0,0,0-1,2.47A3.53,3.53,0,0,0,92.34,73a3.37,3.37,0,0,0,2.47-1A3.86,3.86,0,0,0,96,69.24V66ZM98,64h7V57H98Zm9-9h3.24a3.86,3.86,0,0,0,2.8-1.19,3.33,3.33,0,0,0,1-2.47A3.53,3.53,0,0,0,110.66,48a3.45,3.45,0,0,0-2.47,1,3.86,3.86,0,0,0-1.19,2.8ZM92.49,48h-.15A3.53,3.53,0,0,0,89,51.34a3.33,3.33,0,0,0,1,2.47A3.86,3.86,0,0,0,92.76,55H96V51.76A3.86,3.86,0,0,0,94.81,49,3.36,3.36,0,0,0,92.49,48Z"/><path class="cls-1" d="M31,33H6a1,1,0,0,1-1-1V17a1,1,0,0,1,2,0V31H30V17a1,1,0,0,1,2,0V32A1,1,0,0,1,31,33Z"/><path class="cls-1" d="M34,18H3a1,1,0,0,1-1-1V9A1,1,0,0,1,3,8H34a1,1,0,0,1,1,1v8A1,1,0,0,1,34,18ZM4,16H33V10H4Z"/><path class="cls-1" d="M18,33a1,1,0,0,1-1-1V9a1,1,0,0,1,2,0V32A1,1,0,0,1,18,33Z"/><path class="cls-1" d="M18.22,10H11.41a5,5,0,0,1-5-4A4.89,4.89,0,0,1,11.21.22c6.2,0,7.92,8.23,8,8.58a1,1,0,0,1-.21.83A1,1,0,0,1,18.22,10Zm-7-7.78A2.91,2.91,0,0,0,8.37,5.66a3,3,0,0,0,3,2.34h5.5C16.26,6,14.59,2.22,11.21,2.22Z"/><path class="cls-1" d="M25,10H18.22a1,1,0,0,1-1-1.2c.07-.35,1.79-8.58,8-8.58A4.9,4.9,0,0,1,30,6,5,5,0,0,1,25,10Zm-5.5-2H25a3,3,0,0,0,3-2.34,2.89,2.89,0,0,0-2.84-3.44C21.83,2.22,20.17,6,19.53,8Z"/><path class="cls-1" d="M101.78,33.05a16.56,16.56,0,1,1,16.56-16.56A16.58,16.58,0,0,1,101.78,33.05Zm0-31.12a14.56,14.56,0,1,0,14.56,14.56A14.57,14.57,0,0,0,101.78,1.93Z"/><path class="cls-1" d="M117,17H87a1,1,0,0,1,0-2h30a1,1,0,0,1,0,2Z"/><path class="cls-1" d="M101.78,33.05a1,1,0,0,1-.74-.33,24.8,24.8,0,0,1-6.48-16.21A24.82,24.82,0,0,1,101,.25a1,1,0,0,1,.74-.32h0a1,1,0,0,1,.74.32A24.81,24.81,0,0,1,109,16.47a24.83,24.83,0,0,1-6.49,16.25A1,1,0,0,1,101.78,33.05Zm0-30.6a22.79,22.79,0,0,0-5.22,14.06,22.77,22.77,0,0,0,5.22,14,22.8,22.8,0,0,0,5.23-14A22.78,22.78,0,0,0,101.78,2.45Z"/><path class="cls-1" d="M60,119.89a1,1,0,0,1-.71-.3L45.54,105.84A9.56,9.56,0,1,1,59.06,92.32l.94.94.94-.94a9.57,9.57,0,0,1,13.52,0h0a9.58,9.58,0,0,1,0,13.52L60.71,119.59A1,1,0,0,1,60,119.89ZM52.3,91.52a7.55,7.55,0,0,0-7.56,7.56A7.47,7.47,0,0,0,47,104.42l13,13,13-13a7.55,7.55,0,0,0,0-10.68l.71-.71-.71.7a7.56,7.56,0,0,0-10.69,0l-1.65,1.65a1,1,0,0,1-1.42,0l-1.65-1.65A7.54,7.54,0,0,0,52.3,91.52Z"/><path class="cls-1" d="M16.66,71.89A13.45,13.45,0,1,1,30.11,58.44,13.47,13.47,0,0,1,16.66,71.89Zm0-24.89A11.45,11.45,0,1,0,28.11,58.44,11.46,11.46,0,0,0,16.66,47Z"/><path class="cls-1" d="M32.22,75a1,1,0,0,1-.71-.29l-6.76-6.77a1,1,0,1,1,1.41-1.41l6.77,6.77a1,1,0,0,1,0,1.41A1,1,0,0,1,32.22,75Z"/><path class="cls-1" d="M71.56,33H48.44A4.44,4.44,0,0,1,44,28.56V22a1,1,0,0,1,2,0v6.56A2.44,2.44,0,0,0,48.44,31H71.56A2.44,2.44,0,0,0,74,28.56V22a1,1,0,0,1,2,0v6.56A4.44,4.44,0,0,1,71.56,33Z"/><path class="cls-1" d="M68.59,10.7a1,1,0,0,1-.7-.29L60,2.52l-7.89,7.89A1,1,0,0,1,50.7,9L59.29.4a1,1,0,0,1,1.42,0L69.3,9a1,1,0,0,1,0,1.41A1,1,0,0,1,68.59,10.7Z"/><path class="cls-1" d="M60,23a1,1,0,0,1-1-1V1a1,1,0,0,1,2,0V22A1,1,0,0,1,60,23Z"/></svg>