<svg id="efff930b-7031-4101-bb54-2d24ab2f7925" xmlns="http://www.w3.org/2000/svg" viewBox="0 0 320 320"><defs><style>.cls-1{fill:#f0f8f9;}.cls-2{fill:#fff;}.cls-10,.cls-2,.cls-3{stroke:#274247;}.cls-10,.cls-2,.cls-3,.cls-4,.cls-5,.cls-6,.cls-7,.cls-8{stroke-miterlimit:10;stroke-width:2px;}.cls-10,.cls-3,.cls-4,.cls-6,.cls-7,.cls-8{fill:none;}.cls-3,.cls-4,.cls-6,.cls-8{stroke-linecap:round;}.cls-4,.cls-5,.cls-7,.cls-8{stroke:#1a9d49;}.cls-11,.cls-5{fill:#1a9d49;}.cls-6{stroke:#fff;}.cls-8{stroke-dasharray:0 4.91;}.cls-9{fill:#274247;}</style></defs><title>Artboard 7</title><circle class="cls-1" cx="160" cy="159" r="125"/><rect class="cls-2" x="201" y="75" width="118" height="118"/><line class="cls-3" x1="257" y1="100" x2="296" y2="100"/><line class="cls-3" x1="257" y1="166" x2="296" y2="166"/><line class="cls-4" x1="257" y1="133" x2="296" y2="133"/><rect class="cls-2" x="223" y="91" width="20" height="20"/><rect class="cls-5" x="223" y="125" width="20" height="20"/><rect class="cls-2" x="223" y="158" width="20" height="20"/><polyline class="cls-6" points="226.48 135.99 231.32 141 239 130.48"/><line class="cls-7" x1="119" y1="120" x2="119"/><line class="cls-7" x1="81" y1="120" x2="81" y2="86"/><line class="cls-4" x1="43" y1="119" x2="43" y2="119"/><line class="cls-8" x1="43" y1="114.09" x2="43" y2="3.46"/><line class="cls-4" x1="43" y1="1" x2="43" y2="1"/><line class="cls-7" x1="1" y1="120" x2="1"/><rect class="cls-9" x="86" y="86" width="28" height="34" transform="translate(200 206) rotate(180)"/><rect class="cls-9" x="48" y="86" width="28" height="34" transform="translate(124 206) rotate(180)"/><rect class="cls-9" x="48" width="66" height="39" transform="translate(162 39) rotate(180)"/><rect class="cls-9" x="48" y="43" width="66" height="39" transform="translate(162 125) rotate(180)"/><path class="cls-2" d="M88.36,231H197a0,0,0,0,1,0,0v88a0,0,0,0,1,0,0H88.36A9.36,9.36,0,0,1,79,309.64V240.36A9.36,9.36,0,0,1,88.36,231Z"/><polyline class="cls-10" points="197.32 265.66 164.37 299.79 182.11 318.71"/><polygon class="cls-11" points="101 230 197 230 197 239.46 150.19 286.18 101 237.1 101 230"/><line class="cls-10" x1="156.49" y1="318.82" x2="101.1" y2="263.72"/><path class="cls-2" d="M90,299.27a11,11,0,0,1,11,11L100.93,221A11,11,0,0,0,79,221v89.23A11,11,0,0,1,90,299.27Z"/><polygon class="cls-10" points="101 237.5 150.81 286.58 197 239.87 197 231 101 231 101 237.5"/><path class="cls-2" d="M151.36,200.82c-10.68,0-20.06,8.69-19.35,19.35.29,4.3,1.89,7,3.79,9.81,3.55,5.36,15.56,18.14,15.56,18.14s12-12.78,15.57-18.14c1.89-2.86,3.5-5.51,3.79-9.81C171.43,209.51,162.05,200.82,151.36,200.82Zm0,25.33a6.77,6.77,0,1,1,6.78-6.77A6.77,6.77,0,0,1,151.36,226.15Z"/><line class="cls-7" x1="2" y1="61" x2="36.83" y2="61"/><polygon class="cls-11" points="30.2 69.18 28.84 67.72 36.06 61 28.84 54.29 30.2 52.82 39 61 30.2 69.18"/></svg>