<svg id="efff930b-7031-4101-bb54-2d24ab2f7925" xmlns="http://www.w3.org/2000/svg" viewBox="0 0 320 320"><defs><style>.cls-1{fill:#f0f8f9;}.cls-2{fill:#274247;}.cls-3{fill:#1a9d49;}.cls-11,.cls-4,.cls-5,.cls-8{fill:#fff;}.cls-5,.cls-7,.cls-8{stroke:#274247;}.cls-10,.cls-11,.cls-5,.cls-7,.cls-8,.cls-9{stroke-miterlimit:10;stroke-width:2px;}.cls-6{fill:#c3dcdc;}.cls-10,.cls-7,.cls-9{fill:none;}.cls-10,.cls-11,.cls-7,.cls-8{stroke-linecap:round;}.cls-10,.cls-11,.cls-9{stroke:#1a9d49;}</style></defs><title>Artboard 1 copy 3</title><circle class="cls-1" cx="160" cy="159" r="125"/><polygon class="cls-2" points="318 274 201 274 201 154 203 154 203 272 318 272 318 274"/><path class="cls-3" d="M218.48,242.93a1,1,0,0,1-.68-.27,1,1,0,0,1-.05-1.42l28.87-30.67,29.33,21L309,179.77a1,1,0,1,1,1.71,1l-34.16,53.61-29.67-21.2-27.67,29.4A1,1,0,0,1,218.48,242.93Z"/><circle class="cls-4" cx="216.5" cy="244.5" r="5.5"/><path class="cls-3" d="M216.5,251a6.5,6.5,0,1,1,6.5-6.5A6.51,6.51,0,0,1,216.5,251Zm0-11a4.5,4.5,0,1,0,4.5,4.5A4.51,4.51,0,0,0,216.5,240Z"/><circle class="cls-4" cx="245.5" cy="212.5" r="5.5"/><path class="cls-3" d="M245.5,219a6.5,6.5,0,1,1,6.5-6.5A6.51,6.51,0,0,1,245.5,219Zm0-11a4.5,4.5,0,1,0,4.5,4.5A4.51,4.51,0,0,0,245.5,208Z"/><circle class="cls-4" cx="277.5" cy="231.5" r="5.5"/><path class="cls-3" d="M277.5,238a6.5,6.5,0,1,1,6.5-6.5A6.51,6.51,0,0,1,277.5,238Zm0-11a4.5,4.5,0,1,0,4.5,4.5A4.51,4.51,0,0,0,277.5,227Z"/><circle class="cls-4" cx="310.5" cy="179.5" r="5.5"/><path class="cls-3" d="M310.5,186a6.5,6.5,0,1,1,6.5-6.5A6.51,6.51,0,0,1,310.5,186Zm0-11a4.5,4.5,0,1,0,4.5,4.5A4.51,4.51,0,0,0,310.5,175Z"/><path class="cls-5" d="M244,14.86V305.15A13.87,13.87,0,0,1,230.13,319H90.87A13.84,13.84,0,0,1,77,305.19V14.86A13.87,13.87,0,0,1,90.87,1H121V3.43A11.5,11.5,0,0,0,132.44,15h57.12a11.45,11.45,0,0,0,7.91-3.21A11.61,11.61,0,0,0,201,3.43V1h29.13A13.86,13.86,0,0,1,244,14.85Z"/><rect class="cls-6" x="92" y="118" width="136" height="6"/><rect class="cls-6" x="92" y="131" width="136" height="6"/><rect class="cls-6" x="92" y="144" width="136" height="6"/><circle class="cls-5" cx="105" cy="39" r="12"/><line class="cls-7" x1="128" y1="35" x2="181" y2="35"/><line class="cls-7" x1="128" y1="45" x2="157" y2="45"/><line class="cls-7" x1="211" y1="35" x2="227" y2="35"/><line class="cls-7" x1="211" y1="40" x2="227" y2="40"/><line class="cls-7" x1="211" y1="45" x2="227" y2="45"/><rect class="cls-8" x="93" y="65" width="134" height="24"/><circle class="cls-9" cx="210" cy="76" r="6"/><line class="cls-10" x1="215.02" y1="80.55" x2="218.43" y2="83.97"/><rect class="cls-11" x="93" y="273" width="56" height="18" rx="0.5"/><rect class="cls-1" x="92" y="167" width="136" height="83"/><path class="cls-5" d="M201,3.43a11.61,11.61,0,0,1-3.53,8.36A11.45,11.45,0,0,1,189.56,15H132.44A11.5,11.5,0,0,1,121,3.43V1h80Z"/><path class="cls-2" d="M131.54,225H1.91a1,1,0,1,1,0-2H131.54a1,1,0,1,1,0,2Z"/><rect class="cls-4" x="22" y="183" width="24" height="41"/><path class="cls-2" d="M47,225H21V182H47Zm-24-2H45V184H23Z"/><rect class="cls-4" x="56" y="132" width="25" height="92"/><path class="cls-2" d="M82,225H55V131H82Zm-25-2H80V133H57Z"/><rect class="cls-4" x="92" y="160" width="25" height="64"/><path class="cls-2" d="M118,225H91V159h27Zm-25-2h23V161H93Z"/><rect class="cls-3" x="57" y="175" width="23" height="48"/><rect class="cls-3" x="93" y="194" width="23" height="29"/><rect class="cls-3" x="23" y="208" width="22" height="15"/></svg>