<svg id="efff930b-7031-4101-bb54-2d24ab2f7925" xmlns="http://www.w3.org/2000/svg" viewBox="0 0 320 320"><defs><style>.cls-1{fill:#f0f8f9;}.cls-2{fill:#def6dd;}.cls-3{fill:#d5eee2;}.cls-4,.cls-6{fill:none;}.cls-4,.cls-5,.cls-6,.cls-8,.cls-9{stroke:#274247;stroke-miterlimit:10;stroke-width:2px;}.cls-4{stroke-linecap:round;}.cls-5{fill:#fff;}.cls-7{fill:#274247;}.cls-8{fill:#b6e8b8;}.cls-9{fill:#1a9d49;}</style></defs><title>Artboard 1 copy 5</title><path class="cls-1" d="M135.29,206H275.85A123.8,123.8,0,0,0,283,181.43a28.94,28.94,0,0,1-2.9-57.22,125.16,125.16,0,0,0-46-65.91,29.48,29.48,0,0,1-7.21.9,29.16,29.16,0,0,1-27.25-18.79A125,125,0,1,0,160,284a125.87,125.87,0,0,0,16.92-1.14A91.65,91.65,0,0,1,135.29,206Z"/><path class="cls-2" d="M275.85,206a125.11,125.11,0,0,1-98.93,76.86A91.76,91.76,0,0,0,318.82,206Z"/><path class="cls-3" d="M275.85,206H135.29a91.65,91.65,0,0,0,41.63,76.86A125.11,125.11,0,0,0,275.85,206Z"/><path class="cls-2" d="M285.63,123.67a28.91,28.91,0,0,0-5.54.54,125.88,125.88,0,0,1,2.9,57.22c.87.08,1.75.13,2.64.13a28.95,28.95,0,1,0,0-57.89Z"/><path class="cls-3" d="M280.09,124.21a28.94,28.94,0,0,0,2.9,57.22,125.88,125.88,0,0,0-2.9-57.22Z"/><path class="cls-2" d="M256,30a29.16,29.16,0,1,0-56.41,10.37A124.38,124.38,0,0,1,234.05,58.3,29.17,29.17,0,0,0,256,30Z"/><path class="cls-3" d="M226.84,59.2a29.48,29.48,0,0,0,7.21-.9,124.38,124.38,0,0,0-34.46-17.89A29.16,29.16,0,0,0,226.84,59.2Z"/><line class="cls-4" x1="2" y1="270" x2="96" y2="270"/><line class="cls-4" x1="32" y1="319" x2="284" y2="319"/><path class="cls-5" d="M59,270c14,0,37.22-76.67,37.22-76.67l4.57-27.2-13.1,7.05L67.13,184.26,36,255a58,58,0,0,0-26,15Z"/><line class="cls-6" x1="285" y1="206" x2="285.24" y2="152"/><circle class="cls-7" cx="285.61" cy="152.45" r="7.42"/><path class="cls-7" d="M285.46,184.81s-1-22.81-22.71-20.26"/><line class="cls-6" x1="227" y1="205" x2="227" y2="30"/><circle class="cls-7" cx="227.11" cy="29.81" r="7.89"/><path class="cls-7" d="M226.65,61.9s-1.06-22.81-22.8-20.16"/><path class="cls-7" d="M226.65,132.87s-1.06-22.81-22.8-20.16"/><path class="cls-6" d="M227,131.43s-2-44.1,22.91-44.1"/><circle class="cls-7" cx="249.91" cy="87.33" r="7.42"/><path class="cls-8" d="M115.48,207.23c-8.56,6.56-37.94,64.41-43.59,69.34C66,281.67,34.87,253,37,240s42-95,75-89C112,151,115.79,207,115.48,207.23Z"/><path class="cls-9" d="M191.09,317.16c-3.11-24.17-8-74.22-.46-106.9a42.13,42.13,0,0,1,25.08-29.62C180.88,158.45,97.75,149.86,98,150c0,0-14,19-14,59,0,37.07,8.22,68.34,36,102,11.36,4.62,20.88,4.79,33.63,6.39A143.48,143.48,0,0,0,191.09,317.16Z"/><path class="cls-5" d="M124.72,134.09,130,173l10,15,33-11s-15.25-30.44-13.82-35.95S124.72,134.09,124.72,134.09Z"/><circle class="cls-7" cx="150.36" cy="102.6" r="46.7" transform="matrix(0.25, -0.97, 0.97, 0.25, 13.38, 222.48)"/><circle class="cls-5" cx="144.95" cy="122.18" r="30.36"/><path class="cls-7" d="M147.54,79.44c-18.3.22-33,9-32.89,19.72.06,4.78,3.09,9.1,8,12.42l6.32-4.7-1.64,7.26c.72.32,1.46.64,2.23.93L139,103.83l.17,13.66a55.57,55.57,0,0,0,8.84.59c18.29-.22,33-9,32.89-19.73S165.83,79.21,147.54,79.44Z"/><path class="cls-4" d="M153.75,140.87a27.46,27.46,0,0,1-20.89-2.42"/><path class="cls-5" d="M94.81,137.83c6.72,15.37,21.59,7.77,21.59,7.77s-4.46,17.24-26.72,19.88a47.26,47.26,0,1,1,5.13-27.65Z"/><circle class="cls-7" cx="64.87" cy="143.34" r="5.47"/><circle class="cls-7" cx="46.22" cy="143.34" r="5.47"/><circle class="cls-7" cx="27.56" cy="143.34" r="5.47"/><path class="cls-5" d="M92,319s87.12-24.61,102-25c-2.69-11.92-3-45.16,1.26-40.1,0,0,12,2,26.83,3.06,3.45,11.23,19.91,56,.91,62Z"/><path class="cls-8" d="M228.52,197.36c-3.6-14.12-12.8-16.72-12.81-16.72h0S198.8,184.37,190,206c-7.63,18.74-10.11,61.83-7,86,5,9,41.37,17.41,56.12,9.48C243,273,230,203.08,228.52,197.36Z"/></svg>