<svg id="Layer_1" data-name="Layer 1" xmlns="http://www.w3.org/2000/svg" viewBox="0 0 998 638"><defs><style>.cls-1{fill:#c3dcdc;}.cls-2{fill:#cfebde;}.cls-3{fill:#e5f3f5;}.cls-4{fill:#d8ebeb;}.cls-5{fill:#def6dd;}.cls-6{fill:#d5eee2;}.cls-7{fill:#fff;}.cls-8{fill:#b6e8b8;}.cls-9{fill:#274247;}.cls-10{fill:#f0f8f9;}.cls-11{fill:#1a9d49;}</style></defs><title>Artboard 1</title><path class="cls-1" d="M634.1,19.33l1.36,0c.31,16.38-10.83,36.64-33.12,60.21A314.94,314.94,0,0,1,568.78,110L568,109C568.63,108.44,634.82,57.61,634.1,19.33Z"/><path class="cls-1" d="M594.62,50.71l1.36,0c.32,17.08-27.85,38.72-29.05,39.64l-.82-1.09C566.39,89,594.93,67.1,594.62,50.71Z"/><circle class="cls-2" cx="634.92" cy="9.14" r="6.8"/><circle class="cls-2" cx="597.59" cy="40.6" r="6.8"/><path class="cls-1" d="M657.54,34.63a30.16,30.16,0,0,1-11.28,10.78,30.21,30.21,0,0,1-15.33,2.93,30.23,30.23,0,0,1,11.28-10.79A30.26,30.26,0,0,1,657.54,34.63Z"/><path class="cls-1" d="M612.86,15.69a30.22,30.22,0,0,1,8.66,13,30.22,30.22,0,0,1,.21,15.61,30.3,30.3,0,0,1-8.66-13A30.22,30.22,0,0,1,612.86,15.69Z"/><path class="cls-1" d="M578.86,44.94a19.29,19.29,0,0,1,6.21,20,21.32,21.32,0,0,1-6.07-9.1A21.25,21.25,0,0,1,578.86,44.94Z"/><path class="cls-3" d="M988.65,370.76c-11.24-87.49-80.89-117.86-149.3-185.83C749.76,95.93,677.6,40.05,599,58.74c-55.31,13.16-99.83,33.48-157.79,48.51L451.65,124h-50.8l5.48-8.8c-32.06,6.29-68.65,10.66-112.82,11.54-29.5.58-80.44-12.51-137.72-4.47A32.78,32.78,0,0,1,156,126a34,34,0,0,1-64.46,15.11C-5.41,187.24-33,316.25,52.41,394.29c117.48,107.29,225.05,80.42,296.58,64,29.58-6.8,42.91,42.37,91,87.89A46,46,0,0,1,517,594.87c35.41,14,80.65,23.2,139.58,23l7.21-35.3,42.76,33c119.88-10.75,217.08-71.25,259.8-145a24,24,0,1,1,18.24-43.36A145.21,145.21,0,0,0,988.65,370.76Z"/><path class="cls-4" d="M655.48,633l3.1-15.15-2.05,0-3.73,18.27L707,616l-.51-.39c-1.79.16-3.58.31-5.38.45Z"/><path class="cls-1" d="M656.53,617.85l2.05,0,6.47-31.74,37.88,29.26-1.81.67c1.8-.14,3.59-.29,5.38-.45l-42.76-33Z"/><path class="cls-4" d="M426.25,87l12.93,20.75,2-.52-15-24-19.92,32c.9-.17,1.79-.36,2.69-.54Z"/><path class="cls-1" d="M451.65,124l-10.44-16.75-2,.52L448,122H404.45l4.57-7.34c-.9.18-1.79.37-2.69.54l-5.48,8.8Z"/><path class="cls-5" d="M155.79,122.27a34,34,0,1,0-64.25,18.84q2.13-1,4.29-2A225,225,0,0,1,155.79,122.27Z"/><path class="cls-6" d="M122,160a34,34,0,0,0,34-34,32.78,32.78,0,0,0-.21-3.73,225,225,0,0,0-60,16.86q-2.16,1-4.29,2A34,34,0,0,0,122,160Z"/><path class="cls-5" d="M429,576a46,46,0,0,0,88,18.87A237.2,237.2,0,0,1,440,546.14,45.85,45.85,0,0,0,429,576Z"/><path class="cls-6" d="M475,530a45.92,45.92,0,0,0-35,16.14A237.2,237.2,0,0,0,517,594.87,46,46,0,0,0,475,530Z"/><polygon class="cls-7" points="884.88 244.57 944.03 225.88 934.75 287.21 884.88 244.57"/><path class="cls-8" d="M935.47,289.15l-52.61-45,62.4-19.72ZM886.9,245,934,285.28l8.77-58Z"/><path class="cls-1" d="M72.62,220.4l.2-1.34c16.21,2.38,34.37,16.7,54,42.54a315.35,315.35,0,0,1,24.58,38.12l-1.2.63C149.77,299.61,110.5,226,72.62,220.4Z"/><path class="cls-1" d="M97.09,264.5l.2-1.35c16.9,2.48,33.62,33.83,34.32,35.16l-1.2.64C130.24,298.63,113.31,266.88,97.09,264.5Z"/><circle class="cls-2" cx="62.7" cy="217.91" r="6.8"/><circle class="cls-2" cx="87.6" cy="259.9" r="6.8"/><path class="cls-1" d="M91.55,199.79a27.55,27.55,0,0,1,9.16,28.5,27.55,27.55,0,0,1-9.16-28.5Z"/><path class="cls-1" d="M65.54,240.75a30.15,30.15,0,0,1,14.23-6.4A30.22,30.22,0,0,1,95.2,236.7,30.22,30.22,0,0,1,81,243.11,30.19,30.19,0,0,1,65.54,240.75Z"/><path class="cls-1" d="M88.81,279.09a19.3,19.3,0,0,1,20.79-2.83,21.21,21.21,0,0,1-10,4.49A21.25,21.25,0,0,1,88.81,279.09Z"/><circle class="cls-7" cx="240.5" cy="267.5" r="123.5"/><path class="cls-5" d="M984.54,427.18a179.4,179.4,0,0,1-18.24,43.36,24,24,0,0,0,18.24-43.36Z"/><path class="cls-6" d="M971,423a24,24,0,0,0-4.7,47.54,179.4,179.4,0,0,0,18.24-43.36A24,24,0,0,0,971,423Z"/><path class="cls-7" d="M414,309.86c1.54,11.27-36.84,17.84-36.84,17.84L304.33,341l-21.15-2-13.48-1.3,14.77-19.55.73-.08,18.13-2,74.32-.71S410,280.48,414,309.86Z"/><path class="cls-9" d="M304.37,342h-.13l-36.42-3.5,16.11-21.33L303.32,315l73.9-.71c2.55-2.68,19.7-20.13,30.26-16.78,4.07,1.29,6.61,5.4,7.53,12.22,1.62,11.88-33.64,18.27-37.66,19Zm-32.8-5.16L304.29,340,377,326.72a155.52,155.52,0,0,0,18.89-4.67C407.49,318.28,413.58,314,413,310c-.81-6-2.89-9.55-6.16-10.58-4.05-1.29-10.22,1.12-17.85,7A97.3,97.3,0,0,0,378.39,316l-.3,0-.43,1H303.39L285,319.05Z"/><rect class="cls-7" x="42" y="483" width="153" height="124"/><path class="cls-9" d="M196,608H41V482H196ZM43,606H194V484H43Z"/><path class="cls-10" d="M109.2,580h17.37c3.35,0,6.06,2.24,6.06,5h0c0,2.76-2.71,5-6.06,5H109.2c-3.35,0-6.06-2.24-6.06-5h0C103.14,582.24,105.85,580,109.2,580Z"/><path class="cls-9" d="M126.57,591H109.2c-3.89,0-7.06-2.69-7.06-6s3.17-6,7.06-6h17.37c3.89,0,7.06,2.69,7.06,6S130.46,591,126.57,591ZM109.2,581c-2.79,0-5.06,1.79-5.06,4s2.27,4,5.06,4h17.37c2.79,0,5.06-1.79,5.06-4s-2.27-4-5.06-4Z"/><rect class="cls-7" x="298" y="139" width="617" height="433"/><path class="cls-9" d="M916,573H297V138H916Zm-617-2H914V140H299Z"/><rect class="cls-9" x="298" y="205" width="617" height="2"/><path class="cls-9" d="M339.5,189A17.5,17.5,0,1,1,357,171.5,17.52,17.52,0,0,1,339.5,189Zm0-33A15.5,15.5,0,1,0,355,171.5,15.51,15.51,0,0,0,339.5,156Z"/><path class="cls-9" d="M444,167H370a1,1,0,0,1,0-2h74a1,1,0,0,1,0,2Z"/><path class="cls-9" d="M409,179H370a1,1,0,0,1,0-2h39a1,1,0,0,1,0,2Z"/><path class="cls-11" d="M201.88,305.53s-7.93,3-4.31,13.74,24.16,55.91,24.16,55.91,21.07-13,33.71-19.08,34.68-40,34.68-40S241.91,295.88,201.88,305.53Z"/><path class="cls-9" d="M221.29,376.62l-.47-1c-.84-1.85-20.61-45.34-24.2-56-3.88-11.51,4.82-15,4.91-15l.12,0c39.88-9.62,88.37,10.38,88.86,10.59l1.1.46-.65,1c-.9,1.4-22.33,34.24-35.08,40.39-12.46,6-33.42,18.9-33.63,19Zm-19.1-70.13c-.69.29-6.81,3.16-3.68,12.46,3.26,9.66,20.58,48,23.66,54.78,4.29-2.61,21.83-13.22,32.84-18.53s29.82-33,33.6-38.66C281.15,313.63,238.06,297.87,202.19,306.49Z"/><path class="cls-7" d="M311.28,503.3,290,504.82s-.66,40-3.43,50.27L323.09,584l-7.62-24.37Z"/><path class="cls-9" d="M325.05,586.82l-39.61-31.36.17-.63c2.71-10,3.38-49.63,3.39-50l0-.91,23.23-1.66,4.25,57.24ZM287.66,554.7l33.5,26.53-6.69-21.5-4.11-55.36-19.42,1.38C290.83,511.8,290.1,544.4,287.66,554.7Z"/><path class="cls-9" d="M325.16,585.26h0a7.54,7.54,0,0,1-2.84-2.35L286.59,553a4.48,4.48,0,0,1-1.2,2.48c-1.37.82-3.32,3.5-5.27,6.61A29.68,29.68,0,0,0,277,586.72h0L290.72,589s12.95,16.75,16.75,22.85S328,619.46,344.79,608C359,598.39,333.41,588.19,325.16,585.26Z"/><path class="cls-7" d="M248.45,287.77,235.5,331.18l-31.22-22.85s16-17.51,16-22.08S248.45,287.77,248.45,287.77Z"/><path class="cls-9" d="M236.06,332.83l-33.27-24.35.75-.82c6.08-6.66,15.73-18.37,15.73-21.41a2,2,0,0,1,.81-1.62c3.73-3,24.46,1.27,28.58,2.16l1.06.23Zm-30.29-24.65L235,329.54l12.23-41c-13.11-2.75-25.09-3.82-25.91-2.27C221.27,286.75,220.83,291.55,205.77,308.18Z"/><path class="cls-9" d="M119.13,415.41s-16.45,37.59-4.77,79.64C122,522.47,170.74,597.1,248.07,611.73c39.65-16.91,127.18-148.51,83.77-190.4S171.15,416,171.15,416Z"/><path class="cls-7" d="M340.4,403.71l-95.79-24.49L229,356.49l14.85.87,23.32,1.36L346.81,395h31C377.79,412.06,340.4,403.71,340.4,403.71Z"/><path class="cls-9" d="M358.93,406.76a96.64,96.64,0,0,1-18.54-2.07h0L244.2,380.1l-17-24.72,40.4,2.35.17.08L347.24,394H379v1a9.53,9.53,0,0,1-3.64,7.78C371.53,405.84,365.18,406.76,358.93,406.76Zm-18.29-4c.69.15,24.71,5.33,33.26-1.52a7.38,7.38,0,0,0,2.85-5.22H346.6l-.2-.09-79.49-36.2-36-2.1,14.26,20.74Z"/><path class="cls-8" d="M270.2,356.53s-36.6-54.67-62.49-60.76c-38.5,15.14-87.24,105.55-91.17,126.8-5,22.45,71.73,3.8,82-10.28a44.27,44.27,0,0,1,2.28-11.42s10.48,1.11,18.28-2.29c9.24-4,10.6-13.25,10.46-23.19C245.74,372.4,270.2,356.53,270.2,356.53Z"/><path class="cls-9" d="M133.62,434c-5.27,0-9.78-.63-13-2.07-4.28-1.94-6-5.25-5.09-9.58,1.93-10.44,14.72-38,32.76-66,12.34-19.15,36.41-52.61,59-61.5l.29-.12.31.07c10.95,2.58,24.9,13.68,41.48,33A339.37,339.37,0,0,1,271,356l.56.85-.85.55c-1,.64-24,15.49-40.14,18.84,0,16.22-5.56,20.88-11.07,23.29-6.78,3-15.34,2.62-18,2.43a44.91,44.91,0,0,0-2,10.43l0,.29-.17.23C192.31,422.54,156.05,434,133.62,434Zm74.57-137.2C170.85,311.87,122,401,117.93,422.75c-.75,3.42.54,5.82,4,7.37,15.64,7.06,67.38-7,76.11-18.2a45.1,45.1,0,0,1,2.33-11.41l.27-.72.77.08c.1,0,10.31,1.05,17.77-2.21,8.89-3.87,10-13,9.86-22.26v-.84l.83-.16c14.07-2.6,34.91-15.35,39.38-18.16C264.46,349.34,231.64,302.67,208.19,296.81Z"/><circle class="cls-9" cx="235.06" cy="256.55" r="37.49"/><circle class="cls-7" cx="235.12" cy="274.44" r="24.37"/><path class="cls-9" d="M235.12,299.81a25.37,25.37,0,1,1,25.37-25.37A25.4,25.4,0,0,1,235.12,299.81Zm0-48.74a23.37,23.37,0,1,0,23.37,23.37A23.4,23.4,0,0,0,235.12,251.07Z"/><circle class="cls-9" cx="240.07" cy="207.31" r="12.45"/><path class="cls-9" d="M254.08,211.69A12.46,12.46,0,0,0,253,195c.35.23.69.47,1,.73a12.45,12.45,0,1,1-15.46,19.52l0,0a12.26,12.26,0,0,1-.94-.82A12.46,12.46,0,0,0,254.08,211.69Z"/><path class="cls-9" d="M241.91,239.12c14.17,3.85,23.84,13.67,21.6,21.94-1,3.7-4.24,6.45-8.76,8l-4-4.93-.18,6c-.62.1-1.26.2-1.92.27l-5-10.62-2.87,10.58a43.73,43.73,0,0,1-7-1.32c-14.18-3.85-23.84-13.67-21.6-21.94S227.74,235.26,241.91,239.12Z"/><path class="cls-9" d="M889,188H734V158H889Zm-153-2H887V160H736Z"/><path class="cls-11" d="M432.14,534H361.86a2.86,2.86,0,0,1-2.86-2.86V510.86a2.86,2.86,0,0,1,2.86-2.86h70.28a2.86,2.86,0,0,1,2.86,2.86v20.28A2.86,2.86,0,0,1,432.14,534Zm-70.28-24a.87.87,0,0,0-.86.86v20.28a.87.87,0,0,0,.86.86h70.28a.87.87,0,0,0,.86-.86V510.86a.87.87,0,0,0-.86-.86Z"/><rect class="cls-10" x="533" y="256" width="356" height="278"/><path class="cls-7" d="M620.31,196.61s42.93-7.62,57.78-8c-2.68-11.55-4.24-50.59,0-45.69,0,0,11.93,1.9,26.78,3,3.43,10.88-1.45,40.28-8.64,60.08-7.36,0-97.35-.11-109.14,0C586.08,192.63,620.31,196.61,620.31,196.61Z"/><path class="cls-9" d="M586.17,207l-.08-.93a7.28,7.28,0,0,1,2.3-6c7.23-6.95,29.65-4.67,31.89-4.42,3.09-.55,41.22-7.25,56.59-7.94-1.08-5.49-2-15.63-2.31-25.44-.59-19.16,1.48-20.21,2.16-20.56a1.6,1.6,0,0,1,1.85.32c2,.31,13.07,2,26.37,2.89l.68.05.2.65c2.94,9.31-.14,37.26-8.65,60.72l-.23.66H684.15c-26.19,0-87.51-.07-97,0ZM619,204.9c22.05,0,49.68,0,65.11,0h11.38c6.66-18.7,11.59-46.87,8.57-58.14-14.4-1-26.05-2.89-26.17-2.91l-.36-.05-.09-.11c-1.91,4.07-.93,33.81,1.59,44.65l.27,1.19-1.22,0c-14.61.38-57.21,7.91-57.64,8l-.14,0-.15,0c-.23,0-23.64-2.66-30.41,3.86a5.22,5.22,0,0,0-1.7,3.48C592.88,204.91,604.8,204.9,619,204.9Z"/><path class="cls-7" d="M637.08,258c-10.75,11.64-29.2-11.93-29.2-11.93s-35.26-31-40-37.44a133.1,133.1,0,0,1-9.48-16.11l25.93-16.39,3.09,19.8s22,27.29,26.92,37.58C626.64,239.73,646.61,248.74,637.08,258Z"/><path class="cls-9" d="M630,262.27h-.47c-10.22-.41-21.35-14.18-22.37-15.46-2.21-1.94-35.38-31.13-40.06-37.54A131.45,131.45,0,0,1,557.53,193l-.4-.81,28-17.69,3.28,21c2.17,2.71,21.69,27.15,26.72,37.25l2.08,1c9.89,4.93,22.19,11.06,23.3,18.12.37,2.38-.53,4.66-2.7,6.78A10.32,10.32,0,0,1,630,262.27Zm-70.27-69.35a128.59,128.59,0,0,0,9,15.16c4.6,6.32,39.48,37,39.83,37.28l.13.14c.11.14,11.37,14.38,20.93,14.76a8.32,8.32,0,0,0,6.74-2.9l0,0c1.71-1.67,2.41-3.33,2.14-5.06-.95-6-13.25-12.16-22.23-16.64l-2.38-1.19-.31-.15-.14-.31c-4.85-10.06-26.58-37.11-26.8-37.39l-.17-.2-2.89-18.56Z"/><path class="cls-9" d="M529.44,138c2.29-20.57,25.13-58.64,76.87-63.43,36.46-3.36-23.56,34.52-23.56,34.52S567.66,144.92,556.86,144A128.89,128.89,0,0,1,529.44,138Z"/><path class="cls-11" d="M559.14,197.41c-10.66-13-23.61-91.47,31.23-117.25,62.26-29.29,117.76,34.51,117.76,77.16-10.06,8.86-30.6,10.91-36.93,2.31-19.68-26.76-39.79-27.42-52.73-23.09s-13.72,14.56-22,33.42C585.85,194.08,559.14,197.41,559.14,197.41Z"/><path class="cls-9" d="M558.59,198.47l-.35-.43c-7-8.51-13.38-40-7.06-68,5.38-23.85,18.74-41.39,38.63-50.75,24.46-11.51,50.81-9.66,74.19,5.18,26.08,16.55,45,47.2,45,72.88v.46l-.34.3c-6.39,5.63-17.29,8.87-26.5,7.88-5.46-.59-9.57-2.57-11.9-5.73-8.82-12-27.25-30.88-51.61-22.74C609,140.7,606.5,147.18,601.9,159c-1.31,3.36-2.8,7.17-4.66,11.4-10.72,24.36-37.83,28-38.11,28ZM622.42,73.79a74.08,74.08,0,0,0-31.63,7.27c-24.4,11.48-33.87,33.19-37.52,49.38-6.54,29,.6,58.15,6.3,65.89,3.84-.65,26.56-5.37,36-26.78,1.85-4.18,3.33-8,4.63-11.32,4.66-11.93,7.48-19.13,18-22.64,25.56-8.55,44.71,11,53.85,23.44,2,2.66,5.69,4.41,10.51,4.93,8.53.92,18.58-2,24.62-7.1-.22-25-18.68-54.63-44.06-70.74C650.15,77.92,636.32,73.79,622.42,73.79Z"/><circle class="cls-9" cx="633.1" cy="117.81" r="37.49"/><circle class="cls-7" cx="633.17" cy="135.71" r="24.37"/><path class="cls-9" d="M633.17,161.08a25.37,25.37,0,1,1,25.37-25.37A25.4,25.4,0,0,1,633.17,161.08Zm0-48.74a23.37,23.37,0,1,0,23.37,23.37A23.39,23.39,0,0,0,633.17,112.34Z"/><path class="cls-9" d="M669.14,116c2.75,10.11-9.08,22.13-26.41,26.84a55.07,55.07,0,0,1-8.55,1.61l-3.51-12.94-6.17,13c-.8-.08-1.58-.2-2.35-.33l-.22-7.3-4.85,6c-5.53-1.93-9.48-5.3-10.71-9.82-2.75-10.11,9.08-22.13,26.41-26.84S666.39,105.9,669.14,116Z"/><path class="cls-11" d="M870.5,180a7.5,7.5,0,1,1,5.3-12.8h0a7.5,7.5,0,0,1-5.3,12.8Zm0-13a5.5,5.5,0,1,0,3.89,1.61A5.49,5.49,0,0,0,870.5,167Z"/><path class="cls-11" d="M878.6,181.52a1.05,1.05,0,0,1-.7-.28l-2.6-2.52a1,1,0,1,1,1.4-1.44l2.59,2.52a1,1,0,0,1,0,1.41A1,1,0,0,1,878.6,181.52Z"/><path class="cls-11" d="M410.22,374H383.31l-5.24,20H357.49l30.32-97h17.92l30.51,97H415.46Zm-22.48-17h18l-9-34.34Z"/><path class="cls-9" d="M447,389.18a1,1,0,1,1,1-1h0A1,1,0,0,1,447,389.18Zm0-5a1,1,0,1,1,1-1h0A1,1,0,0,1,447,384.17Zm0-5a1,1,0,1,1,1-1h0A1,1,0,0,1,447,379.16Zm0-5a1,1,0,1,1,1-1h0A1,1,0,0,1,447,374.15Zm0-5a1,1,0,1,1,1-1h0A1,1,0,0,1,447,369.14Zm0-5a1,1,0,1,1,1-1h0A1,1,0,0,1,447,364.13Zm0-5a1,1,0,1,1,1-1h0A1,1,0,0,1,447,359.12Zm0-5a1,1,0,1,1,1-1h0A1,1,0,0,1,447,354.11Zm0-5a1,1,0,1,1,1-1h0A1,1,0,0,1,447,349.1Zm0-5a1,1,0,1,1,1-1h0A1,1,0,0,1,447,344.09Zm0-5a1,1,0,1,1,1-1h0A1,1,0,0,1,447,339.08Zm0-5a1,1,0,1,1,1-1h0A1,1,0,0,1,447,334.07Zm0-5a1,1,0,1,1,1-1h0A1,1,0,0,1,447,329.06Zm0-5a1,1,0,1,1,1-1h0A1,1,0,0,1,447,324.05Zm0-5a1,1,0,1,1,1-1h0A1,1,0,0,1,447,319Zm0-5a1,1,0,1,1,1-1h0A1,1,0,0,1,447,314Zm0-5a1,1,0,1,1,1-1h0A1,1,0,0,1,447,309Zm0-5a1,1,0,1,1,1-1h0A1,1,0,0,1,447,304Z"/><rect class="cls-9" x="440" y="297" width="14" height="2"/><rect class="cls-9" x="440" y="392" width="14" height="2"/><rect class="cls-11" x="600" y="228" width="2" height="92"/><rect class="cls-11" x="690" y="228" width="2" height="92"/><rect class="cls-7" x="606" y="229" width="81" height="90"/><path class="cls-11" d="M688,320H605V228h83Zm-81-2h79V230H607Z"/><circle class="cls-11" cx="635" cy="253" r="11"/><polygon class="cls-9" points="607 313.03 623.67 295.13 639.15 305.07 665.92 282.21 686 296.27 686 318 607 318 607 313.03"/><path class="cls-11" d="M682.83,275H610.17a1,1,0,0,1,0-2h72.66a1,1,0,0,1,0,2Z"/><polygon class="cls-11" points="616.8 282.18 618.16 280.71 610.94 274 618.16 267.29 616.8 265.82 608 274 616.8 282.18"/><polygon class="cls-11" points="676.2 282.18 674.84 280.71 682.06 274 674.84 267.29 676.2 265.82 685 274 676.2 282.18"/><rect class="cls-7" x="771" y="570" width="94" height="32"/><path class="cls-9" d="M866,603H770V569h96Zm-94-2h92V571H772Z"/><rect class="cls-9" x="770" y="507" width="96" height="66"/><path class="cls-11" d="M796.15,588.21h-1.23l-.46,2.6H793.3l.46-2.6h-1.44v-1.09H794l.32-1.82H792.8v-1.09h1.66l.47-2.64h1.15l-.46,2.64h1.23l.46-2.64h1.17l-.47,2.64h1.39v1.09h-1.58l-.32,1.82h1.42v1.09h-1.61l-.46,2.6h-1.16Zm-1-1.09h1.23l.31-1.82h-1.23Z"/><path class="cls-11" d="M806.62,590.81h-6.33v-1.25l3-3.19a7.87,7.87,0,0,0,.91-1.17,2,2,0,0,0,.29-1,1.37,1.37,0,0,0-.31-1,1.11,1.11,0,0,0-.89-.36,1.24,1.24,0,0,0-1,.43,1.7,1.7,0,0,0-.36,1.13H800.1a3.1,3.1,0,0,1,.4-1.54,2.87,2.87,0,0,1,1.14-1.1,3.55,3.55,0,0,1,1.67-.4,3.24,3.24,0,0,1,2.22.69,2.42,2.42,0,0,1,.79,1.94,3.18,3.18,0,0,1-.35,1.39,7.92,7.92,0,0,1-1.22,1.66l-2.1,2.22h4Z"/><path class="cls-11" d="M814,582.6l-3.57,8.21h-1.94l3.58-7.76h-4.6v-1.48H814Z"/><path class="cls-11" d="M820.63,587.34h1v1.47h-1v2H818.8v-2H815l-.09-1.15,3.86-6.09h1.85Zm-3.88,0h2v-3.27l-.12.21Z"/><path class="cls-11" d="M829,590.81h-6.34v-1.25l3-3.19a7.24,7.24,0,0,0,.91-1.17,1.91,1.91,0,0,0,.3-1,1.42,1.42,0,0,0-.31-1,1.12,1.12,0,0,0-.89-.36,1.22,1.22,0,0,0-1,.43,1.7,1.7,0,0,0-.36,1.13h-1.84a3,3,0,0,1,.4-1.54,2.87,2.87,0,0,1,1.14-1.1,3.52,3.52,0,0,1,1.67-.4,3.28,3.28,0,0,1,2.22.69,2.42,2.42,0,0,1,.79,1.94,3.06,3.06,0,0,1-.36,1.39,7.26,7.26,0,0,1-1.22,1.66l-2.1,2.22h4Z"/><path class="cls-11" d="M835.55,587.34h1.05v1.47h-1.05v2h-1.84v-2h-3.79l-.08-1.15,3.85-6.09h1.86Zm-3.88,0h2v-3.27l-.12.21Z"/><path class="cls-11" d="M843.86,582.6l-3.57,8.21h-1.94l3.58-7.76h-4.59v-1.48h6.52Z"/><rect class="cls-1" x="359" y="418" width="131" height="11"/><rect class="cls-1" x="359" y="442" width="131" height="11"/><rect class="cls-1" x="359" y="466" width="131" height="11"/><polygon class="cls-7" points="404.45 122 426.25 87.02 448.04 122 404.45 122"/><polygon class="cls-7" points="655.48 632.98 665.05 586.09 702.93 615.35 655.48 632.98"/></svg>