<svg id="Layer_1" data-name="Layer 1" xmlns="http://www.w3.org/2000/svg" viewBox="0 0 120 120"><defs><style>.cls-1{fill:#fff;}.cls-2{fill:#1a9d49;}.cls-3{fill:#274247;}</style></defs><title>Artboard 21 copy</title><rect class="cls-1" x="1" y="9" width="118" height="28"/><path class="cls-2" d="M120,38H0V8H120ZM2,36H118V10H2Z"/><rect class="cls-1" x="1" y="59" width="118" height="60"/><path class="cls-3" d="M120,120H0V58H120ZM2,118H118V60H2Z"/><path class="cls-3" d="M40,2H1A1,1,0,0,1,1,0H40a1,1,0,0,1,0,2Z"/><rect class="cls-2" x="8" y="14" width="2" height="18"/><path class="cls-3" d="M40,52H1a1,1,0,0,1,0-2H40a1,1,0,0,1,0,2Z"/></svg>