<svg id="Layer_1" data-name="Layer 1" xmlns="http://www.w3.org/2000/svg" viewBox="0 0 120 120"><defs><style>.cls-1{fill:#fff;}.cls-2{fill:#274247;}.cls-3{fill:#1a9d49;}</style></defs><title>Artboard 12 copy</title><rect class="cls-1" x="1" y="1" width="118" height="118"/><path class="cls-2" d="M120,120H0V0H120ZM2,118H118V2H2Z"/><path class="cls-2" d="M107,14H13a1,1,0,0,1,0-2h94a1,1,0,0,1,0,2Z"/><path class="cls-2" d="M43,27H13a1,1,0,0,1,0-2H43a1,1,0,0,1,0,2Z"/><path class="cls-2" d="M43,108H13a1,1,0,0,1,0-2H43a1,1,0,0,1,0,2Z"/><path class="cls-3" d="M40.55,91.25H12.78V84.84L25.53,68.57a36.22,36.22,0,0,0,3.58-5.93,12,12,0,0,0,1.14-4.89,9.55,9.55,0,0,0-1.08-4.94A3.45,3.45,0,0,0,26.05,51a4,4,0,0,0-3.55,2.09A11.09,11.09,0,0,0,21.19,59H12a17.41,17.41,0,0,1,1.8-7.93,13.36,13.36,0,0,1,5.05-5.59,13.76,13.76,0,0,1,7.36-2q6.32,0,9.79,3.48t3.48,9.89a18.75,18.75,0,0,1-1.93,8.07,50.22,50.22,0,0,1-7,10.11l-6,8.68h16Z"/><path class="cls-3" d="M54.47,63.52H58.9a4.11,4.11,0,0,0,3.7-1.78A8.39,8.39,0,0,0,63.79,57a7.07,7.07,0,0,0-1.22-4.41A3.9,3.9,0,0,0,59.32,51a3.85,3.85,0,0,0-3.12,1.51A5.87,5.87,0,0,0,55,56.33H45.82a13,13,0,0,1,1.7-6.62,12,12,0,0,1,4.76-4.58,14.05,14.05,0,0,1,6.78-1.65q6.51,0,10.2,3.59T73,56.91A11.58,11.58,0,0,1,66.89,67a10.06,10.06,0,0,1,5,4.28,13.29,13.29,0,0,1,1.64,6.73,13.25,13.25,0,0,1-4,10.07A14.67,14.67,0,0,1,59,91.9,12.89,12.89,0,0,1,45.4,78.34h9.16a6.84,6.84,0,0,0,1.33,4.29,4.08,4.08,0,0,0,3.37,1.73A4.46,4.46,0,0,0,63,82.6a7.36,7.36,0,0,0,1.38-4.68q0-7-5.41-7H54.47Z"/><path class="cls-3" d="M104,73.45h4V81h-4V91.25H94.83V81H79.23l-.42-5.87,16-31H104Zm-16.28,0h7.12V57.69l-.2.36Z"/></svg>