<svg id="Layer_1" data-name="Layer 1" xmlns="http://www.w3.org/2000/svg" viewBox="0 0 57 57"><defs><style>.cls-1{fill:#fff;}.cls-2{fill:none;}.cls-3{fill:#274247;}</style></defs><title>Artboard 10</title><polygon class="cls-1" points="37 1 45 1 45 11.15 37 5.92 37 1"/><polygon class="cls-2" points="37 5.92 45 11.15 45 1 37 1 37 5.92"/><rect class="cls-1" x="21" y="35" width="15" height="14"/><rect class="cls-2" x="21" y="50" width="15" height="6"/><rect class="cls-2" x="6" y="50" width="14" height="6"/><rect class="cls-2" x="21" y="35" width="15" height="14"/><rect class="cls-2" x="37" y="50" width="14" height="6"/><polygon class="cls-2" points="45 1 37 1 37 5.92 45 11.15 45 1"/><circle class="cls-3" cx="28.5" cy="20.5" r="6.5"/><path class="cls-3" d="M46,11.81V0H36V5.27L28.43.32,0,19v7H5V57H52V26h5V19ZM20,56H6V50H20Zm16,0H21V50H36Zm0-7H21V35H36ZM28.5,28A7.5,7.5,0,1,1,36,20.5,7.5,7.5,0,0,1,28.5,28ZM37,1h8V11.15L37,5.92ZM51,56H37V50H51Z"/><path class="cls-1" d="M28.5,13A7.5,7.5,0,1,0,36,20.5,7.5,7.5,0,0,0,28.5,13Zm0,14A6.5,6.5,0,1,1,35,20.5,6.51,6.51,0,0,1,28.5,27Z"/><rect class="cls-1" x="6" y="50" width="14" height="6"/><rect class="cls-1" x="37" y="50" width="14" height="6"/><rect class="cls-1" x="21" y="50" width="15" height="6"/></svg>