<svg id="Layer_1" data-name="Layer 1" xmlns="http://www.w3.org/2000/svg" viewBox="0 0 120 120"><defs><style>.cls-1{fill:#fff;}.cls-2{fill:#274247;}.cls-3{fill:#1a9d49;}</style></defs><title>Artboard 13 copy</title><rect class="cls-1" x="1" y="1" width="118" height="118"/><path class="cls-2" d="M120,120H0V0H120ZM2,118H118V2H2Z"/><path class="cls-2" d="M105,21H16a1,1,0,0,1,0-2h89a1,1,0,0,1,0,2Z"/><path class="cls-3" d="M105,39H49a1,1,0,0,1,0-2h56a1,1,0,0,1,0,2Z"/><path class="cls-2" d="M41,39H16a1,1,0,0,1,0-2H41a1,1,0,0,1,0,2Z"/><path class="cls-2" d="M74,56H16a1,1,0,0,1,0-2H74a1,1,0,0,1,0,2Z"/><path class="cls-2" d="M105,56H82a1,1,0,0,1,0-2h23a1,1,0,0,1,0,2Z"/><path class="cls-2" d="M105,74H16a1,1,0,0,1,0-2h89a1,1,0,0,1,0,2Z"/><path class="cls-3" d="M70,98H29a1,1,0,0,1,0-2H70a1,1,0,0,1,0,2Z"/><path class="cls-3" d="M16.73,101A1,1,0,0,1,16,99.26l2.63-2.63L16,94a1,1,0,0,1,0-1.42,1,1,0,0,1,1.41,0l4.05,4-4.05,4A1,1,0,0,1,16.73,101Z"/></svg>