<svg id="Layer_1" data-name="Layer 1" xmlns="http://www.w3.org/2000/svg" viewBox="0 0 120 120"><defs><style>.cls-1{fill:#fff;}.cls-2{fill:#274247;}.cls-3{fill:#1a9d49;}</style></defs><title>Artboard 5 copy</title><path class="cls-1" d="M10.36,31H119a0,0,0,0,1,0,0v88a0,0,0,0,1,0,0H10.36A9.36,9.36,0,0,1,1,109.64V40.36A9.36,9.36,0,0,1,10.36,31Z"/><path class="cls-2" d="M120,120H10.36A10.37,10.37,0,0,1,0,109.64V40.36A10.37,10.37,0,0,1,10.36,30H120ZM10.36,32A8.37,8.37,0,0,0,2,40.36v69.28A8.37,8.37,0,0,0,10.36,118H118V32Z"/><polygon class="cls-2" points="102.9 119.58 84.51 99.97 118.12 65.15 119.56 66.53 87.27 99.98 104.36 118.21 102.9 119.58"/><polygon class="cls-3" points="23 30 119 30 119 39.46 72.19 86.17 23 37.1 23 30"/><rect class="cls-2" x="49.31" y="52.39" width="2" height="78.12" transform="translate(-50.01 62.62) rotate(-45.15)"/><path class="cls-1" d="M12,99.45a11,11,0,0,1,11,11l-.07-89.22A11,11,0,0,0,1,21.23v89.22A11,11,0,0,1,12,99.45Z"/><path class="cls-2" d="M22,110.45v0a10,10,0,0,0-20,0H0V21.12a12,12,0,0,1,23.91,0v.11l.07,89.2v0H22ZM2,21.28v82.54a12,12,0,0,1,20,0l-.07-82.53A10,10,0,0,0,2,21.28Z"/><path class="cls-2" d="M72.82,88,22,37.92V30h98V40.28ZM24,37.09,72.8,85.17,118,39.46V32H24Z"/><path class="cls-1" d="M72.88,1C62.19,1,52.81,9.69,53.53,20.35c.28,4.3,1.89,7,3.78,9.81,3.56,5.36,15.57,18.15,15.57,18.15s12-12.79,15.56-18.15c1.9-2.86,3.5-5.51,3.79-9.81C92.94,9.69,83.57,1,72.88,1Zm0,25.34a6.78,6.78,0,1,1,6.77-6.78A6.79,6.79,0,0,1,72.88,26.34Z"/><path class="cls-2" d="M72.88,49.77,72.15,49C71.66,48.46,60,36.08,56.48,30.71c-2-3-3.65-5.83-3.95-10.29a18.3,18.3,0,0,1,5-13.8,21,21,0,0,1,30.59,0,18.31,18.31,0,0,1,5.06,13.8c-.3,4.46-2,7.3-4,10.29C85.71,36.08,74.1,48.46,73.61,49ZM72.88,2A19,19,0,0,0,59,8a16.34,16.34,0,0,0-4.52,12.31c.27,4,1.74,6.47,3.63,9.32,3,4.47,12.08,14.38,14.73,17.23C75.53,44,84.64,34.08,87.61,29.61c1.89-2.85,3.36-5.35,3.62-9.32A16.31,16.31,0,0,0,86.71,8,19,19,0,0,0,72.88,2Zm0,25.34a7.78,7.78,0,1,1,7.77-7.78A7.79,7.79,0,0,1,72.88,27.34Zm0-13.55a5.78,5.78,0,1,0,5.77,5.77A5.78,5.78,0,0,0,72.88,13.79Z"/></svg>