<svg id="Layer_1" data-name="Layer 1" xmlns="http://www.w3.org/2000/svg" viewBox="0 0 120 120"><defs><style>.cls-1{fill:#fff;}.cls-2{fill:#274247;}.cls-3{fill:#1a9d49;}</style></defs><title>Artboard 16 copy</title><rect class="cls-1" x="1" y="1" width="118" height="118"/><path class="cls-2" d="M120,120H0V0H120ZM2,118H118V2H2Z"/><path class="cls-2" d="M105,23H15a1,1,0,0,1,0-2h90a1,1,0,0,1,0,2Z"/><path class="cls-2" d="M105,41H48a1,1,0,0,1,0-2h57a1,1,0,0,1,0,2Z"/><path class="cls-2" d="M40,41H15a1,1,0,0,1,0-2H40a1,1,0,0,1,0,2Z"/><path class="cls-2" d="M73,58H15a1,1,0,0,1,0-2H73a1,1,0,0,1,0,2Z"/><path class="cls-2" d="M105,58H82a1,1,0,0,1,0-2h23a1,1,0,0,1,0,2Z"/><path class="cls-2" d="M105,77H15a1,1,0,0,1,0-2h90a1,1,0,0,1,0,2Z"/><path class="cls-3" d="M19.47,102.1a1,1,0,0,1-.7-.3l-4-4,4-4a1,1,0,1,1,1.41,1.41l-2.63,2.63,2.63,2.63a1,1,0,0,1,0,1.41A1,1,0,0,1,19.47,102.1Z"/><path class="cls-3" d="M69.24,102.1a1,1,0,0,1-.71-1.71l2.63-2.63-2.63-2.63a1,1,0,0,1,1.41-1.41l4,4-4,4A1,1,0,0,1,69.24,102.1Z"/><path class="cls-3" d="M25,99a1,1,0,0,1-.38-.07,1.27,1.27,0,0,1-.33-.22,1.15,1.15,0,0,1-.21-.33.94.94,0,0,1,0-.76,1.15,1.15,0,0,1,.21-.33,1,1,0,0,1,1.42,0,1.15,1.15,0,0,1,.21.33.94.94,0,0,1,0,.76,1.15,1.15,0,0,1-.21.33A1,1,0,0,1,25,99Z"/><path class="cls-3" d="M57.5,99a1,1,0,0,1,0-2h0a1,1,0,0,1,0,2ZM51,99a1,1,0,0,1,0-2h0a1,1,0,0,1,0,2Zm-6.5,0a1,1,0,0,1,0-2h0a1,1,0,0,1,0,2ZM38,99a1,1,0,0,1,0-2h0a1,1,0,0,1,0,2Zm-6.5,0a1,1,0,0,1,0-2h0a1,1,0,0,1,0,2Z"/><path class="cls-3" d="M64,99a1,1,0,0,1-.71-.29A1,1,0,0,1,63,98a1,1,0,0,1,.08-.38,1,1,0,0,1,.21-.33,1,1,0,0,1,1.09-.21,1.15,1.15,0,0,1,.33.21A1.05,1.05,0,0,1,65,98a1,1,0,0,1-.29.71,1.46,1.46,0,0,1-.33.22A1,1,0,0,1,64,99Z"/></svg>