<svg id="Layer_1" data-name="Layer 1" xmlns="http://www.w3.org/2000/svg" viewBox="0 0 120 120"><defs><style>.cls-1{fill:#fff;}.cls-2{fill:#274247;}.cls-3{fill:#1a9d49;}</style></defs><title>Artboard 11 copy 9</title><rect class="cls-1" x="1" y="1" width="118" height="118"/><path class="cls-2" d="M120,120H0V0H120ZM2,118H118V2H2Z"/><rect class="cls-3" x="23" y="35" width="70" height="9"/><rect class="cls-3" x="23" y="73" width="70" height="9"/><rect class="cls-3" x="23" y="54" width="83" height="9"/><path class="cls-2" d="M12.52,39.51,15.2,44H13.13L10,39.61v-.22L13.13,35H15.2Zm4,0L19.2,44H17.13L14,39.61v-.22L17.13,35H19.2Z"/><path class="cls-2" d="M98.87,73,102,77.39v.22L98.87,82H96.79l2.68-4.49L96.79,73Zm4,0L106,77.39v.22L102.87,82h-2.08l2.68-4.49L100.79,73Z"/></svg>