<svg id="Layer_1" data-name="Layer 1" xmlns="http://www.w3.org/2000/svg" viewBox="0 0 120 120"><defs><style>.cls-1{fill:#fff;}.cls-2{fill:#274247;}.cls-3{fill:#1a9d49;}</style></defs><title>Artboard 26 copy</title><rect class="cls-1" x="1" y="1" width="118" height="118"/><path class="cls-2" d="M120,120H0V0H120ZM2,118H118V2H2Z"/><circle class="cls-1" cx="33" cy="27" r="11"/><path class="cls-2" d="M33,39A12,12,0,1,1,45,27,12,12,0,0,1,33,39Zm0-22A10,10,0,1,0,43,27,10,10,0,0,0,33,17Z"/><circle class="cls-1" cx="33" cy="60" r="11"/><path class="cls-3" d="M33,72A12,12,0,1,1,45,60,12,12,0,0,1,33,72Zm0-22A10,10,0,1,0,43,60,10,10,0,0,0,33,50Z"/><circle class="cls-3" cx="33" cy="60" r="6"/><path class="cls-2" d="M96,27H57a1,1,0,0,1,0-2H96a1,1,0,0,1,0,2Z"/><circle class="cls-1" cx="33" cy="93" r="11"/><path class="cls-2" d="M33,105A12,12,0,1,1,45,93,12,12,0,0,1,33,105Zm0-22A10,10,0,1,0,43,93,10,10,0,0,0,33,83Z"/><path class="cls-2" d="M96,93H57a1,1,0,0,1,0-2H96a1,1,0,0,1,0,2Z"/><path class="cls-3" d="M96,60H57a1,1,0,0,1,0-2H96a1,1,0,0,1,0,2Z"/></svg>