<svg id="Layer_1" data-name="Layer 1" xmlns="http://www.w3.org/2000/svg" viewBox="0 0 120 120"><defs><style>.cls-1{fill:#274247;}.cls-2{fill:#1a9d49;}.cls-3{fill:#fff;}</style></defs><title>Artboard 11 copy</title><path class="cls-1" d="M119,90H1a1,1,0,0,1,0-2H119a1,1,0,0,1,0,2Z"/><path class="cls-2" d="M16,109H1a1,1,0,0,1,0-2H16a1,1,0,0,1,0,2Z"/><path class="cls-2" d="M80,120H1a1,1,0,0,1,0-2H80a1,1,0,0,1,0,2Z"/><rect class="cls-3" x="14" y="50" width="24" height="39"/><path class="cls-1" d="M39,90H13V49H39ZM15,88H37V51H15Z"/><rect class="cls-3" x="47" y="1" width="24" height="88"/><path class="cls-1" d="M72,90H46V0H72ZM48,88H70V2H48Z"/><rect class="cls-3" x="81" y="28" width="24" height="61"/><path class="cls-1" d="M106,90H80V27h26ZM82,88h22V29H82Z"/><rect class="cls-1" x="48" y="43" width="22" height="46"/><rect class="cls-1" x="82" y="61" width="22" height="28"/><rect class="cls-1" x="15" y="75" width="22" height="14"/></svg>