<svg id="Layer_1" data-name="Layer 1" xmlns="http://www.w3.org/2000/svg" viewBox="0 0 120 120"><defs><style>.cls-1{fill:#1a9d49;}.cls-2{fill:#fff;}.cls-3{fill:#274247;}</style></defs><title>Artboard 4 copy</title><rect class="cls-1" width="2" height="120"/><rect class="cls-1" x="118" width="2" height="120"/><rect class="cls-2" x="7" y="1" width="106" height="118"/><path class="cls-3" d="M114,120H6V0H114ZM8,118H112V2H8Z"/><circle class="cls-1" cx="44.5" cy="32.5" r="14.5"/><polygon class="cls-3" points="7 111.47 29.99 87.97 50.36 101.03 85.58 71 112 89.47 112 118 7 118 7 111.47"/><path class="cls-1" d="M108.83,61H11.17a1,1,0,0,1,0-2h97.66a1,1,0,0,1,0,2Z"/><polygon class="cls-1" points="17.8 68.18 19.16 66.72 11.94 60 19.16 53.29 17.8 51.82 9 60 17.8 68.18"/><polygon class="cls-1" points="102.2 68.18 100.84 66.72 108.06 60 100.84 53.29 102.2 51.82 111 60 102.2 68.18"/></svg>