<svg id="Layer_1" data-name="Layer 1" xmlns="http://www.w3.org/2000/svg" viewBox="0 0 120 120"><defs><style>.cls-1{fill:#fff;}.cls-2{fill:#274247;}.cls-3{fill:#1a9d49;}</style></defs><title>Artboard 2 copy</title><rect class="cls-1" x="1" y="1" width="118" height="118"/><path class="cls-2" d="M120,120H0V0H120ZM2,118H118V2H2Z"/><circle class="cls-1" cx="56" cy="54" r="24"/><path class="cls-3" d="M56,79A25,25,0,1,1,73.68,36.32h0A25,25,0,0,1,56,79Zm0-48a23,23,0,1,0,16.26,6.73A22.89,22.89,0,0,0,56,31Z"/><path class="cls-3" d="M87.8,86.82a1,1,0,0,1-.71-.29L72.61,72a1,1,0,0,1,0-1.41,1,1,0,0,1,1.41,0L88.51,85.11a1,1,0,0,1,0,1.42A1,1,0,0,1,87.8,86.82Z"/></svg>