<svg id="Layer_1" data-name="Layer 1" xmlns="http://www.w3.org/2000/svg" viewBox="0 0 120 120"><defs><style>.cls-1{fill:#fff;}.cls-2{fill:#274247;}.cls-3{fill:#1a9d49;}</style></defs><title>Artboard 20 copy</title><rect class="cls-1" x="1" y="1" width="118" height="118"/><path class="cls-2" d="M120,120H0V0H120ZM2,118H118V2H2Z"/><rect class="cls-3" x="3" y="3" width="114" height="20"/><path class="cls-3" d="M118,24H2V2H118ZM4,22H116V4H4Z"/><path class="cls-1" d="M32,14H15a1,1,0,0,1,0-2H32a1,1,0,0,1,0,2Z"/><path class="cls-1" d="M68,14H51a1,1,0,0,1,0-2H68a1,1,0,0,1,0,2Z"/><path class="cls-1" d="M106,14H89a1,1,0,0,1,0-2h17a1,1,0,0,1,0,2Z"/><path class="cls-3" d="M60,62.83a1,1,0,0,1-1-1V24a1,1,0,0,1,2,0V61.83A1,1,0,0,1,60,62.83Z"/><polygon class="cls-3" points="51.82 55.2 53.28 53.84 60 61.06 66.71 53.84 68.18 55.2 60 64 51.82 55.2"/></svg>