<svg id="Layer_1" data-name="Layer 1" xmlns="http://www.w3.org/2000/svg" viewBox="0 0 120 120"><defs><style>.cls-1{fill:#fff;}.cls-2{fill:#274247;}.cls-3{fill:#1a9d49;}</style></defs><title>Artboard 6 copy</title><rect class="cls-1" x="49" y="34" width="70" height="85"/><path class="cls-2" d="M120,120H48V33h72Zm-70-2h68V35H50Z"/><rect class="cls-2" x="50" y="61" width="68" height="2"/><rect class="cls-2" x="50" y="90" width="68" height="2"/><rect class="cls-2" x="84" y="35" width="2" height="83"/><rect class="cls-1" x="1" y="1" width="118" height="33"/><path class="cls-3" d="M120,35H0V0H120ZM2,33H118V2H2Z"/><rect class="cls-1" x="1" y="34" width="48" height="85"/><path class="cls-3" d="M50,120H0V33H50ZM2,118H48V35H2Z"/><rect class="cls-3" x="2" y="61" width="46" height="2"/><rect class="cls-3" x="2" y="90" width="46" height="2"/></svg>