<svg id="Layer_1" data-name="Layer 1" xmlns="http://www.w3.org/2000/svg" viewBox="0 0 120 120"><defs><style>.cls-1{fill:#fff;}.cls-2{fill:#274247;}.cls-3{fill:#1a9d49;}</style></defs><title>Artboard 14 copy</title><rect class="cls-1" x="1" y="1" width="118" height="118"/><path class="cls-2" d="M120,120H0V0H120ZM2,118H118V2H2Z"/><path class="cls-3" d="M33,20H17a1,1,0,0,1,0-2H33a1,1,0,0,1,0,2Z"/><path class="cls-3" d="M58,20H42a1,1,0,0,1,0-2H58a1,1,0,0,1,0,2Z"/><path class="cls-3" d="M82,20H66a1,1,0,0,1,0-2H82a1,1,0,0,1,0,2Z"/><path class="cls-2" d="M104,48H17a1,1,0,0,1,0-2h87a1,1,0,0,1,0,2Z"/><path class="cls-2" d="M104,59H17a1,1,0,0,1,0-2h87a1,1,0,0,1,0,2Z"/><path class="cls-2" d="M104,70H17a1,1,0,0,1,0-2h87a1,1,0,0,1,0,2Z"/><path class="cls-2" d="M104,81H17a1,1,0,0,1,0-2h87a1,1,0,0,1,0,2Z"/><rect class="cls-2" x="36" y="27" width="69" height="2"/><rect class="cls-3" x="16" y="27" width="19" height="2"/><path class="cls-2" d="M106,120H14V94h92Zm-90-2h88V96H16Z"/></svg>