<svg id="Layer_1" data-name="Layer 1" xmlns="http://www.w3.org/2000/svg" viewBox="0 0 120 120"><defs><style>.cls-1{fill:#fff;}.cls-2{fill:#274247;}.cls-3{fill:#1a9d49;}</style></defs><title>Artboard 15 copy</title><rect class="cls-1" x="1" y="1" width="118" height="118"/><path class="cls-2" d="M120,120H0V0H120ZM2,118H118V2H2Z"/><path class="cls-2" d="M105,23H15a1,1,0,0,1,0-2h90a1,1,0,0,1,0,2Z"/><path class="cls-2" d="M105,41H48a1,1,0,0,1,0-2h57a1,1,0,0,1,0,2Z"/><path class="cls-2" d="M40,41H15a1,1,0,0,1,0-2H40a1,1,0,0,1,0,2Z"/><path class="cls-2" d="M73,59H15a1,1,0,0,1,0-2H73a1,1,0,0,1,0,2Z"/><path class="cls-2" d="M105,59H81a1,1,0,0,1,0-2h24a1,1,0,0,1,0,2Z"/><path class="cls-2" d="M105,76H15a1,1,0,0,1,0-2h90a1,1,0,0,1,0,2Z"/><rect class="cls-1" x="15" y="93" width="20" height="7" rx="3.5"/><path class="cls-3" d="M31.5,101h-13a4.5,4.5,0,0,1,0-9h13a4.5,4.5,0,0,1,0,9Zm-13-7a2.5,2.5,0,0,0,0,5h13a2.5,2.5,0,0,0,0-5Z"/><rect class="cls-1" x="62" y="93" width="25" height="7" rx="3.5"/><path class="cls-3" d="M83.5,101h-18a4.5,4.5,0,0,1,0-9h18a4.5,4.5,0,0,1,0,9Zm-18-7a2.5,2.5,0,0,0,0,5h18a2.5,2.5,0,0,0,0-5Z"/><rect class="cls-1" x="41" y="93" width="15" height="7" rx="3.5"/><path class="cls-3" d="M52.5,101h-8a4.5,4.5,0,0,1,0-9h8a4.5,4.5,0,0,1,0,9Zm-8-7a2.5,2.5,0,0,0,0,5h8a2.5,2.5,0,0,0,0-5Z"/></svg>