<svg id="Layer_1" data-name="Layer 1" xmlns="http://www.w3.org/2000/svg" viewBox="0 0 120 120"><defs><style>.cls-1{fill:#1a9d49;}.cls-2{fill:#274247;}</style></defs><title>Artboard 19 copy</title><path class="cls-1" d="M65.08,95.44H32L25.6,120H0L37.47,0H59.64L97.39,120H71.51ZM37.31,75.25H59.72L48.52,32.47Z"/><path class="cls-2" d="M111.59,113.63a1,1,0,1,1,1-1h0A1,1,0,0,1,111.59,113.63Zm0-5a1,1,0,1,1,1-1h0A1,1,0,0,1,111.59,108.62Zm0-5a1,1,0,1,1,1-1h0A1,1,0,0,1,111.59,103.61Zm0-5a1,1,0,1,1,1-1h0A1,1,0,0,1,111.59,98.6Zm0-5a1,1,0,1,1,1-1h0A1,1,0,0,1,111.59,93.59Zm0-5a1,1,0,1,1,1-1h0A1,1,0,0,1,111.59,88.58Zm0-5a1,1,0,1,1,1-1h0A1,1,0,0,1,111.59,83.57Zm0-5a1,1,0,1,1,1-1h0A1,1,0,0,1,111.59,78.56Zm0-5a1,1,0,1,1,1-1h0A1,1,0,0,1,111.59,73.55Zm0-5a1,1,0,1,1,1-1h0A1,1,0,0,1,111.59,68.54Zm0-5a1,1,0,1,1,1-1h0A1,1,0,0,1,111.59,63.53Zm0-5a1,1,0,1,1,1-1h0A1,1,0,0,1,111.59,58.52Zm0-5a1,1,0,1,1,1-1h0A1,1,0,0,1,111.59,53.51Zm0-5a1,1,0,1,1,1-1h0A1,1,0,0,1,111.59,48.5Zm0-5a1,1,0,1,1,1-1h0A1,1,0,0,1,111.59,43.49Zm0-5a1,1,0,1,1,1-1h0A1,1,0,0,1,111.59,38.48Zm0-5a1,1,0,1,1,1-1h0A1,1,0,0,1,111.59,33.47Zm0-5a1,1,0,1,1,1-1h0A1,1,0,0,1,111.59,28.46Zm0-5a1,1,0,1,1,1-1h0A1,1,0,0,1,111.59,23.45Zm0-5a1,1,0,1,1,1-1h0A1,1,0,0,1,111.59,18.44Zm0-5a1,1,0,1,1,1-1h0A1,1,0,0,1,111.59,13.43Zm0-5a1,1,0,1,1,1-1h0A1,1,0,0,1,111.59,8.42Z"/><rect class="cls-2" x="103" width="17" height="2"/><rect class="cls-2" x="103" y="118" width="17" height="2"/></svg>