<svg id="Layer_1" data-name="Layer 1" xmlns="http://www.w3.org/2000/svg" viewBox="0 0 120 120"><defs><style>.cls-1{fill:#274247;}.cls-2{fill:#1a9d49;}.cls-3{fill:#fff;}</style></defs><title>Artboard 23 copy</title><polygon class="cls-1" points="0 120 120.19 120 120.19 34.89 70.67 34.89 60.09 23.18 49.52 34.89 0 34.89 0 120"/><rect class="cls-2" x="32" width="57" height="20" transform="translate(121 20) rotate(180)"/><path class="cls-3" d="M79,11H42a1,1,0,0,1,0-2H79a1,1,0,0,1,0,2Z"/><path class="cls-3" d="M76,102H58a1,1,0,0,1,0-2H76a1,1,0,0,1,0,2Z"/><path class="cls-3" d="M101,78H20a1,1,0,0,1,0-2h81a1,1,0,0,1,0,2Z"/><path class="cls-3" d="M101,63H20a1,1,0,0,1,0-2h81a1,1,0,0,1,0,2Z"/><path class="cls-3" d="M45,109a8,8,0,1,1,8-8A8,8,0,0,1,45,109Zm0-14a6,6,0,1,0,6,6A6,6,0,0,0,45,95Z"/><path class="cls-3" d="M43,104a1,1,0,0,1-.71-.29,1,1,0,0,1,0-1.42l4-4a1,1,0,1,1,1.42,1.42l-4,4A1,1,0,0,1,43,104Z"/><path class="cls-3" d="M47,104a1,1,0,0,1-.71-.29l-4-4a1,1,0,0,1,1.42-1.42l4,4a1,1,0,0,1,0,1.42A1,1,0,0,1,47,104Z"/></svg>