<svg id="Layer_1" data-name="Layer 1" xmlns="http://www.w3.org/2000/svg" viewBox="0 0 994 635"><defs><style>.cls-1{fill:#c3dcdc;}.cls-2{fill:#cfebde;}.cls-3{fill:#e5f3f5;}.cls-4{fill:#d8ebeb;}.cls-5{fill:#def6dd;}.cls-6{fill:#d5eee2;}.cls-7{fill:#fff;}.cls-8{fill:#b6e8b8;}.cls-9{fill:#274247;}.cls-10{fill:#f0f8f9;}.cls-11{fill:#1a9d49;}</style></defs><title>Artboard 1</title><path class="cls-1" d="M633.1,17.33l1.36,0c.31,16.38-10.83,36.64-33.12,60.21A314.94,314.94,0,0,1,567.78,108L567,107C567.63,106.44,633.82,55.61,633.1,17.33Z"/><path class="cls-1" d="M593.62,48.71l1.36,0c.32,17.08-27.85,38.72-29.05,39.64l-.82-1.09C565.39,87,593.93,65.1,593.62,48.71Z"/><circle class="cls-2" cx="633.92" cy="7.14" r="6.8"/><circle class="cls-2" cx="596.59" cy="38.6" r="6.8"/><path class="cls-1" d="M656.54,32.63a30.16,30.16,0,0,1-11.28,10.78,30.21,30.21,0,0,1-15.33,2.93,30.23,30.23,0,0,1,11.28-10.79A30.26,30.26,0,0,1,656.54,32.63Z"/><path class="cls-1" d="M611.86,13.69a30.22,30.22,0,0,1,8.66,13,30.22,30.22,0,0,1,.21,15.61,30.3,30.3,0,0,1-8.66-13A30.22,30.22,0,0,1,611.86,13.69Z"/><path class="cls-1" d="M577.86,42.94a19.29,19.29,0,0,1,6.21,20,21.32,21.32,0,0,1-6.07-9.1A21.25,21.25,0,0,1,577.86,42.94Z"/><path class="cls-3" d="M987.65,368.76c-11.24-87.49-80.89-117.86-149.3-185.83C748.76,93.93,676.6,38.05,598,56.74c-55.31,13.16-99.83,33.48-157.79,48.51L450.65,122h-50.8l5.48-8.8c-32.06,6.29-68.65,10.66-112.82,11.54-29.5.58-80.44-12.51-137.72-4.47A32.78,32.78,0,0,1,155,124a34,34,0,0,1-64.46,15.11C-6.41,185.24-34,314.25,51.41,392.29c117.48,107.29,225.05,80.42,296.58,64,29.58-6.8,42.91,42.37,91,87.89A46,46,0,0,1,516,592.87c35.41,14,80.65,23.2,139.58,23l7.21-35.3,42.76,33c119.88-10.75,217.08-71.25,259.8-145a24,24,0,1,1,18.24-43.36A145.21,145.21,0,0,0,987.65,368.76Z"/><path class="cls-4" d="M654.48,631l3.1-15.15-2.05,0-3.73,18.27L706,614l-.51-.39c-1.79.16-3.58.31-5.38.45Z"/><path class="cls-1" d="M655.53,615.85l2.05,0,6.47-31.74,37.88,29.26-1.81.67c1.8-.14,3.59-.29,5.38-.45l-42.76-33Z"/><path class="cls-4" d="M425.25,85l12.93,20.75,2-.52-15-24-19.92,32c.9-.17,1.79-.36,2.69-.54Z"/><path class="cls-1" d="M450.65,122l-10.44-16.75-2,.52L447,120H403.45l4.57-7.34c-.9.18-1.79.37-2.69.54l-5.48,8.8Z"/><path class="cls-5" d="M154.79,120.27a34,34,0,1,0-64.25,18.84q2.13-1,4.29-2A225,225,0,0,1,154.79,120.27Z"/><path class="cls-6" d="M121,158a34,34,0,0,0,34-34,32.78,32.78,0,0,0-.21-3.73,225,225,0,0,0-60,16.86q-2.16,1-4.29,2A34,34,0,0,0,121,158Z"/><path class="cls-5" d="M428,574a46,46,0,0,0,88,18.87A237.2,237.2,0,0,1,439,544.14,45.85,45.85,0,0,0,428,574Z"/><path class="cls-6" d="M474,528a45.92,45.92,0,0,0-35,16.14A237.2,237.2,0,0,0,516,592.87,46,46,0,0,0,474,528Z"/><polygon class="cls-7" points="883.88 242.57 943.03 223.88 933.75 285.21 883.88 242.57"/><path class="cls-8" d="M934.47,287.15l-52.61-45,62.4-19.72ZM885.9,243,933,283.28l8.77-58Z"/><path class="cls-1" d="M71.62,218.4l.2-1.34c16.21,2.38,34.37,16.7,54,42.54a315.35,315.35,0,0,1,24.58,38.12l-1.2.63C148.77,297.61,109.5,224,71.62,218.4Z"/><path class="cls-1" d="M96.09,262.5l.2-1.35c16.9,2.48,33.62,33.83,34.32,35.16l-1.2.64C129.24,296.63,112.31,264.88,96.09,262.5Z"/><circle class="cls-2" cx="61.7" cy="215.91" r="6.8"/><circle class="cls-2" cx="86.6" cy="257.9" r="6.8"/><path class="cls-1" d="M90.55,197.79a27.55,27.55,0,0,1,9.16,28.5,27.55,27.55,0,0,1-9.16-28.5Z"/><path class="cls-1" d="M64.54,238.75a30.15,30.15,0,0,1,14.23-6.4A30.22,30.22,0,0,1,94.2,234.7,30.22,30.22,0,0,1,80,241.11,30.19,30.19,0,0,1,64.54,238.75Z"/><path class="cls-1" d="M87.81,277.09a19.3,19.3,0,0,1,20.79-2.83,21.21,21.21,0,0,1-10,4.49A21.25,21.25,0,0,1,87.81,277.09Z"/><circle class="cls-7" cx="239.5" cy="265.5" r="123.5"/><path class="cls-5" d="M983.54,425.18a179.4,179.4,0,0,1-18.24,43.36,24,24,0,0,0,18.24-43.36Z"/><path class="cls-6" d="M970,421a24,24,0,0,0-4.7,47.54,179.4,179.4,0,0,0,18.24-43.36A24,24,0,0,0,970,421Z"/><path class="cls-7" d="M413,307.86c1.54,11.27-36.84,17.84-36.84,17.84L303.33,339l-21.15-2-13.48-1.3,14.77-19.55.73-.08,18.13-2,74.32-.71S409,278.48,413,307.86Z"/><path class="cls-9" d="M303.37,340h-.13l-36.42-3.5,16.11-21.33L302.32,313l73.9-.71c2.55-2.68,19.7-20.13,30.26-16.78,4.07,1.29,6.61,5.4,7.53,12.22,1.62,11.88-33.64,18.27-37.66,19Zm-32.8-5.16L303.29,338,376,324.72a155.52,155.52,0,0,0,18.89-4.67C406.49,316.28,412.58,312,412,308c-.81-6-2.89-9.55-6.16-10.58-4.05-1.29-10.22,1.12-17.85,7A97.3,97.3,0,0,0,377.39,314l-.3.32h-.43l-74.27.71L284,317.05Z"/><rect class="cls-7" x="41" y="481" width="153" height="124"/><path class="cls-9" d="M195,606H40V480H195ZM42,604H193V482H42Z"/><path class="cls-10" d="M108.2,578h17.37c3.35,0,6.06,2.24,6.06,5h0c0,2.76-2.71,5-6.06,5H108.2c-3.35,0-6.06-2.24-6.06-5h0C102.14,580.24,104.85,578,108.2,578Z"/><path class="cls-9" d="M125.57,589H108.2c-3.89,0-7.06-2.69-7.06-6s3.17-6,7.06-6h17.37c3.89,0,7.06,2.69,7.06,6S129.46,589,125.57,589ZM108.2,579c-2.79,0-5.06,1.79-5.06,4s2.27,4,5.06,4h17.37c2.79,0,5.06-1.79,5.06-4s-2.27-4-5.06-4Z"/><rect class="cls-7" x="297" y="137" width="617" height="433"/><path class="cls-9" d="M915,571H296V136H915Zm-617-2H913V138H298Z"/><rect class="cls-9" x="297" y="203" width="617" height="2"/><path class="cls-9" d="M338.5,187A17.5,17.5,0,1,1,356,169.5,17.52,17.52,0,0,1,338.5,187Zm0-33A15.5,15.5,0,1,0,354,169.5,15.51,15.51,0,0,0,338.5,154Z"/><path class="cls-9" d="M443,165H369a1,1,0,0,1,0-2h74a1,1,0,0,1,0,2Z"/><path class="cls-9" d="M408,177H369a1,1,0,0,1,0-2h39a1,1,0,0,1,0,2Z"/><path class="cls-11" d="M200.88,303.53s-7.93,3-4.31,13.74,24.16,55.91,24.16,55.91,21.07-13,33.71-19.08,34.68-40,34.68-40S240.91,293.88,200.88,303.53Z"/><path class="cls-9" d="M220.29,374.62l-.47-1c-.84-1.85-20.61-45.34-24.2-56-3.88-11.51,4.82-15,4.91-15l.12,0c39.88-9.62,88.37,10.38,88.86,10.59l1.1.46-.65,1c-.9,1.4-22.33,34.24-35.08,40.39-12.46,6-33.42,18.9-33.63,19Zm-19.1-70.13c-.69.29-6.81,3.16-3.68,12.46,3.26,9.66,20.58,48,23.66,54.78,4.29-2.61,21.83-13.22,32.84-18.53s29.82-33,33.6-38.66C280.15,311.63,237.06,295.87,201.19,304.49Z"/><path class="cls-7" d="M310.28,501.3,289,502.82s-.66,40-3.43,50.27L322.09,582l-7.62-24.37Z"/><path class="cls-9" d="M324,584.82l-39.62-31.36.18-.63c2.7-10,3.38-49.63,3.39-50v-.91l23.24-1.66,4.25,57.24ZM286.66,552.7l33.5,26.53-6.69-21.5-4.11-55.36-19.42,1.38C289.83,509.8,289.1,542.4,286.66,552.7Z"/><path class="cls-9" d="M324.16,583.26h0a7.54,7.54,0,0,1-2.84-2.35L285.59,551a4.48,4.48,0,0,1-1.2,2.48c-1.37.82-3.32,3.5-5.27,6.61A29.68,29.68,0,0,0,276,584.72h0L289.72,587s12.95,16.75,16.75,22.85S327,617.46,343.79,606C358,596.39,332.41,586.19,324.16,583.26Z"/><path class="cls-7" d="M247.45,285.77,234.5,329.18l-31.22-22.85s16-17.51,16-22.08S247.45,285.77,247.45,285.77Z"/><path class="cls-9" d="M235.06,330.83l-33.27-24.35.75-.82c6.08-6.66,15.73-18.37,15.73-21.41a2,2,0,0,1,.81-1.62c3.73-3,24.46,1.27,28.58,2.16l1.06.23Zm-30.29-24.65L234,327.54l12.23-41c-13.11-2.75-25.09-3.82-25.91-2.27C220.27,284.75,219.83,289.55,204.77,306.18Z"/><path class="cls-9" d="M118.13,413.41s-16.45,37.59-4.77,79.64C121,520.47,169.74,595.1,247.07,609.73c39.65-16.91,127.18-148.51,83.77-190.4S170.15,414,170.15,414Z"/><path class="cls-7" d="M339.4,401.71l-95.79-24.49L228,354.49l14.85.87,23.32,1.36L345.81,393h31C376.79,410.06,339.4,401.71,339.4,401.71Z"/><path class="cls-9" d="M357.73,404.76a96.51,96.51,0,0,1-18.54-2.07h0L243,378.1l-17-24.72,40.41,2.35.16.08L346,392h31.76v1a9.51,9.51,0,0,1-3.64,7.78C370.33,403.84,364,404.76,357.73,404.76Zm-18.09-4c.69.15,24.71,5.33,33.26-1.52a7.38,7.38,0,0,0,2.85-5.22H345.6l-.2-.09-79.49-36.2-36-2.1,14.26,20.74Z"/><path class="cls-8" d="M269.2,354.53s-36.6-54.67-62.49-60.76c-38.5,15.14-87.24,105.55-91.17,126.8-5,22.45,71.73,3.8,82-10.28a44.27,44.27,0,0,1,2.28-11.42s10.48,1.11,18.28-2.29c9.24-4,10.6-13.25,10.46-23.19C244.74,370.4,269.2,354.53,269.2,354.53Z"/><path class="cls-9" d="M132.62,432c-5.27,0-9.78-.63-13-2.07-4.28-1.94-6-5.25-5.09-9.58,1.93-10.44,14.72-38,32.76-66,12.34-19.15,36.41-52.61,59-61.5l.29-.12.31.07c10.95,2.58,24.9,13.68,41.48,33A339.37,339.37,0,0,1,270,354l.56.85-.85.55c-1,.64-24,15.49-40.14,18.84,0,16.22-5.56,20.88-11.07,23.29-6.78,3-15.34,2.62-18,2.43a44.91,44.91,0,0,0-2,10.43l0,.29-.17.23C191.31,420.54,155.05,432,132.62,432Zm74.16-137.2C169.44,309.87,120.56,399,116.52,420.75c-.75,3.42.54,5.82,4,7.37,15.64,7.06,67.38-7,76.11-18.2a45.1,45.1,0,0,1,2.33-11.41l.27-.72.77.08c.1,0,10.31,1.05,17.77-2.21,8.89-3.87,10-13,9.86-22.26v-.84l.83-.16c14.07-2.6,34.91-15.35,39.38-18.16C263.05,347.34,230.23,300.67,206.78,294.81Z"/><circle class="cls-9" cx="234.06" cy="254.55" r="37.49"/><circle class="cls-7" cx="234.12" cy="272.44" r="24.37"/><path class="cls-9" d="M234.12,297.81a25.37,25.37,0,1,1,25.37-25.37A25.4,25.4,0,0,1,234.12,297.81Zm0-48.74a23.37,23.37,0,1,0,23.37,23.37A23.4,23.4,0,0,0,234.12,249.07Z"/><circle class="cls-9" cx="239.07" cy="205.31" r="12.45"/><path class="cls-9" d="M253.08,209.69A12.46,12.46,0,0,0,252,193c.35.23.69.47,1,.73a12.45,12.45,0,1,1-15.46,19.52l0,0a12.26,12.26,0,0,1-.94-.82A12.46,12.46,0,0,0,253.08,209.69Z"/><path class="cls-9" d="M240.91,237.12c14.17,3.85,23.84,13.67,21.6,21.94-1,3.7-4.24,6.45-8.76,8l-4-4.93-.18,6c-.62.1-1.26.2-1.92.27l-5-10.62-2.87,10.58a43.73,43.73,0,0,1-7-1.32c-14.18-3.85-23.84-13.67-21.6-21.94S226.74,233.26,240.91,237.12Z"/><path class="cls-9" d="M888,186H733V156H888Zm-153-2H886V158H735Z"/><path class="cls-11" d="M431.14,532H360.86a2.86,2.86,0,0,1-2.86-2.86V508.86a2.86,2.86,0,0,1,2.86-2.86h70.28a2.86,2.86,0,0,1,2.86,2.86v20.28A2.86,2.86,0,0,1,431.14,532Zm-70.28-24a.87.87,0,0,0-.86.86v20.28a.87.87,0,0,0,.86.86h70.28a.87.87,0,0,0,.86-.86V508.86a.87.87,0,0,0-.86-.86Z"/><rect class="cls-10" x="532" y="254" width="356" height="278"/><path class="cls-7" d="M619.31,194.61s42.93-7.62,57.78-8c-2.68-11.55-4.24-50.59,0-45.69,0,0,11.93,1.9,26.78,3,3.43,10.88-1.45,40.28-8.64,60.08-7.36,0-97.35-.11-109.14,0C585.08,190.63,619.31,194.61,619.31,194.61Z"/><path class="cls-9" d="M585.17,205l-.08-.94a7.27,7.27,0,0,1,2.3-6c7.23-7,29.65-4.67,31.89-4.42,3.09-.55,41.22-7.25,56.59-7.94-1.08-5.49-2-15.63-2.31-25.45-.59-19.15,1.48-20.2,2.16-20.55a1.59,1.59,0,0,1,1.85.32c2,.31,13.07,2,26.37,2.89l.68,0,.2.64c2.94,9.32-.14,37.26-8.65,60.73l-.23.66H683.15c-26.19,0-87.51-.08-97,0ZM618,202.9c22.05,0,49.68,0,65.11,0h11.38c6.66-18.7,11.59-46.87,8.57-58.14-14.4-1-26.05-2.89-26.17-2.91l-.36-.05-.09-.11c-1.91,4.07-.93,33.81,1.59,44.65l.27,1.19-1.22,0c-14.61.38-57.21,7.91-57.64,8l-.14,0-.15,0c-.23,0-23.64-2.66-30.41,3.86a5.22,5.22,0,0,0-1.7,3.48C591.88,202.91,603.8,202.9,618,202.9Z"/><path class="cls-7" d="M636.08,256c-10.75,11.64-29.2-11.93-29.2-11.93s-35.26-31-40-37.44a133.1,133.1,0,0,1-9.48-16.11l25.93-16.39,3.09,19.8s22,27.29,26.92,37.58C625.64,237.73,645.61,246.74,636.08,256Z"/><path class="cls-9" d="M629,260.27h-.47c-10.22-.41-21.35-14.18-22.37-15.46-2.21-1.94-35.38-31.13-40.06-37.54A131.45,131.45,0,0,1,556.53,191l-.4-.81,28-17.69,3.28,21c2.17,2.71,21.69,27.15,26.72,37.25l2.08,1c9.89,4.93,22.19,11.06,23.3,18.12.37,2.38-.53,4.66-2.7,6.78A10.32,10.32,0,0,1,629,260.27Zm-70.27-69.35a128.59,128.59,0,0,0,9,15.16c4.6,6.32,39.48,37,39.83,37.28l.13.14c.11.14,11.37,14.38,20.93,14.76a8.32,8.32,0,0,0,6.74-2.9l0,0c1.71-1.67,2.41-3.33,2.14-5.06-.95-6-13.25-12.16-22.23-16.64l-2.38-1.19-.31-.15-.14-.31c-4.85-10.06-26.58-37.11-26.8-37.39l-.17-.2-2.89-18.56Z"/><path class="cls-9" d="M528.44,136c2.29-20.57,25.13-58.64,76.87-63.43,36.46-3.36-23.56,34.52-23.56,34.52S566.66,142.92,555.86,142A128.89,128.89,0,0,1,528.44,136Z"/><path class="cls-11" d="M558.14,195.41c-10.66-13-23.61-91.47,31.23-117.25,62.26-29.29,117.76,34.51,117.76,77.16-10.06,8.86-30.6,10.91-36.93,2.31-19.68-26.76-39.79-27.42-52.73-23.09s-13.72,14.56-22,33.42C584.85,192.08,558.14,195.41,558.14,195.41Z"/><path class="cls-9" d="M557.72,196.47l-.35-.43c-7-8.51-13.38-40-7-68,5.37-23.85,18.73-41.39,38.62-50.75,24.47-11.51,50.82-9.66,74.2,5.18,26.07,16.55,45,47.2,45,72.88v.46l-.34.3c-6.39,5.63-17.29,8.87-26.5,7.88-5.46-.59-9.57-2.57-11.9-5.73-8.81-12-27.25-30.88-51.61-22.74-9.61,3.22-12.14,9.7-16.74,21.48-1.32,3.36-2.81,7.17-4.66,11.4-10.72,24.36-37.84,28-38.11,28Zm63.7-124.68a74.08,74.08,0,0,0-31.63,7.27c-24.4,11.48-33.87,33.19-37.52,49.38-6.54,29,.6,58.15,6.3,65.89,3.84-.65,26.56-5.37,36-26.78,1.85-4.18,3.33-8,4.63-11.32,4.66-11.93,7.48-19.13,18-22.64,25.56-8.55,44.71,11,53.85,23.44,2,2.66,5.69,4.41,10.51,4.93,8.53.92,18.58-2,24.62-7.1-.22-25-18.68-54.63-44.06-70.74C649.15,75.92,635.32,71.79,621.42,71.79Z"/><circle class="cls-9" cx="632.1" cy="115.81" r="37.49"/><circle class="cls-7" cx="632.17" cy="133.71" r="24.37"/><path class="cls-9" d="M632.17,159.08a25.37,25.37,0,1,1,25.37-25.37A25.4,25.4,0,0,1,632.17,159.08Zm0-48.74a23.37,23.37,0,1,0,23.37,23.37A23.39,23.39,0,0,0,632.17,110.34Z"/><path class="cls-9" d="M668.14,114c2.75,10.11-9.08,22.13-26.41,26.84a55.07,55.07,0,0,1-8.55,1.61l-3.51-12.94-6.17,13c-.8-.08-1.58-.2-2.35-.33l-.22-7.3-4.85,6c-5.53-1.93-9.48-5.3-10.71-9.82-2.75-10.11,9.08-22.13,26.41-26.84S665.39,103.9,668.14,114Z"/><path class="cls-11" d="M869.5,178a7.5,7.5,0,1,1,5.3-12.8h0a7.5,7.5,0,0,1-5.3,12.8Zm0-13a5.5,5.5,0,1,0,3.89,1.61A5.49,5.49,0,0,0,869.5,165Z"/><path class="cls-11" d="M877.6,179.52a1.05,1.05,0,0,1-.7-.28l-2.6-2.52a1,1,0,1,1,1.4-1.44l2.59,2.52a1,1,0,0,1,0,1.41A1,1,0,0,1,877.6,179.52Z"/><path class="cls-11" d="M409.22,372H382.31l-5.24,20H356.49l30.32-97h17.92l30.51,97H414.46Zm-22.48-17h18l-9-34.34Z"/><path class="cls-9" d="M446,387.18a1,1,0,1,1,1-1h0A1,1,0,0,1,446,387.18Zm0-5a1,1,0,1,1,1-1h0A1,1,0,0,1,446,382.17Zm0-5a1,1,0,1,1,1-1h0A1,1,0,0,1,446,377.16Zm0-5a1,1,0,1,1,1-1h0A1,1,0,0,1,446,372.15Zm0-5a1,1,0,1,1,1-1h0A1,1,0,0,1,446,367.14Zm0-5a1,1,0,1,1,1-1h0A1,1,0,0,1,446,362.13Zm0-5a1,1,0,1,1,1-1h0A1,1,0,0,1,446,357.12Zm0-5a1,1,0,1,1,1-1h0A1,1,0,0,1,446,352.11Zm0-5a1,1,0,1,1,1-1h0A1,1,0,0,1,446,347.1Zm0-5a1,1,0,1,1,1-1h0A1,1,0,0,1,446,342.09Zm0-5a1,1,0,1,1,1-1h0A1,1,0,0,1,446,337.08Zm0-5a1,1,0,1,1,1-1h0A1,1,0,0,1,446,332.07Zm0-5a1,1,0,1,1,1-1h0A1,1,0,0,1,446,327.06Zm0-5a1,1,0,1,1,1-1h0A1,1,0,0,1,446,322.05Zm0-5a1,1,0,1,1,1-1h0A1,1,0,0,1,446,317Zm0-5a1,1,0,1,1,1-1h0A1,1,0,0,1,446,312Zm0-5a1,1,0,1,1,1-1h0A1,1,0,0,1,446,307Zm0-5a1,1,0,1,1,1-1h0A1,1,0,0,1,446,302Z"/><rect class="cls-9" x="439" y="295" width="14" height="2"/><rect class="cls-9" x="439" y="390" width="14" height="2"/><rect class="cls-11" x="599" y="226" width="2" height="92"/><rect class="cls-11" x="689" y="226" width="2" height="92"/><rect class="cls-7" x="605" y="227" width="81" height="90"/><path class="cls-11" d="M687,318H604V226h83Zm-81-2h79V228H606Z"/><circle class="cls-11" cx="634" cy="251" r="11"/><polygon class="cls-9" points="606 311.03 622.67 293.13 638.15 303.07 664.92 280.21 685 294.27 685 316 606 316 606 311.03"/><path class="cls-11" d="M681.83,273H609.17a1,1,0,0,1,0-2h72.66a1,1,0,0,1,0,2Z"/><polygon class="cls-11" points="615.8 280.18 617.16 278.71 609.94 272 617.16 265.29 615.8 263.82 607 272 615.8 280.18"/><polygon class="cls-11" points="675.2 280.18 673.84 278.71 681.06 272 673.84 265.29 675.2 263.82 684 272 675.2 280.18"/><rect class="cls-7" x="770" y="568" width="94" height="32"/><path class="cls-9" d="M865,601H769V567h96Zm-94-2h92V569H771Z"/><rect class="cls-9" x="769" y="505" width="96" height="66"/><path class="cls-11" d="M795.15,586.21h-1.23l-.46,2.6H792.3l.46-2.6h-1.44v-1.09H793l.32-1.82H791.8v-1.09h1.66l.47-2.64h1.15l-.46,2.64h1.23l.46-2.64h1.17l-.47,2.64h1.39v1.09h-1.58l-.32,1.82h1.42v1.09h-1.61l-.46,2.6h-1.16Zm-1-1.09h1.23l.31-1.82h-1.23Z"/><path class="cls-11" d="M805.62,588.81h-6.33v-1.25l3-3.19a7.87,7.87,0,0,0,.91-1.17,2,2,0,0,0,.29-1,1.37,1.37,0,0,0-.31-1,1.11,1.11,0,0,0-.89-.36,1.24,1.24,0,0,0-1,.43,1.7,1.7,0,0,0-.36,1.13H799.1a3.1,3.1,0,0,1,.4-1.54,2.87,2.87,0,0,1,1.14-1.1,3.55,3.55,0,0,1,1.67-.4,3.24,3.24,0,0,1,2.22.69,2.42,2.42,0,0,1,.79,1.94,3.18,3.18,0,0,1-.35,1.39,7.92,7.92,0,0,1-1.22,1.66l-2.1,2.22h4Z"/><path class="cls-11" d="M813,580.6l-3.57,8.21h-1.94l3.58-7.76h-4.6v-1.48H813Z"/><path class="cls-11" d="M819.63,585.34h1v1.47h-1v2H817.8v-2H814l-.09-1.15,3.86-6.09h1.85Zm-3.88,0h2v-3.27l-.12.21Z"/><path class="cls-11" d="M828,588.81h-6.34v-1.25l3-3.19a7.24,7.24,0,0,0,.91-1.17,1.91,1.91,0,0,0,.3-1,1.42,1.42,0,0,0-.31-1,1.12,1.12,0,0,0-.89-.36,1.22,1.22,0,0,0-1,.43,1.7,1.7,0,0,0-.36,1.13h-1.84a3,3,0,0,1,.4-1.54,2.87,2.87,0,0,1,1.14-1.1,3.52,3.52,0,0,1,1.67-.4,3.28,3.28,0,0,1,2.22.69,2.42,2.42,0,0,1,.79,1.94,3.06,3.06,0,0,1-.36,1.39,7.26,7.26,0,0,1-1.22,1.66l-2.1,2.22h4Z"/><path class="cls-11" d="M834.55,585.34h1.05v1.47h-1.05v2h-1.84v-2h-3.79l-.08-1.15,3.85-6.09h1.86Zm-3.88,0h2v-3.27l-.12.21Z"/><path class="cls-11" d="M842.86,580.6l-3.57,8.21h-1.94l3.58-7.76h-4.59v-1.48h6.52Z"/><rect class="cls-1" x="358" y="416" width="131" height="11"/><rect class="cls-1" x="358" y="440" width="131" height="11"/><rect class="cls-1" x="358" y="464" width="131" height="11"/><polygon class="cls-7" points="403.45 120 425.25 85.02 447.04 120 403.45 120"/><polygon class="cls-7" points="654.48 630.98 664.05 584.09 701.93 613.35 654.48 630.98"/></svg>