<svg id="illustration-svg-frontpage" xmlns="http://www.w3.org/2000/svg" viewBox="0 0 994 635">
    <defs>
        <style>.cls-1{isolation:isolate;}.cls-2{fill:#c3dcdc;}.cls-15,.cls-3,.cls-9{fill:#1a9d49;}.cls-4{fill:#e5f3f5;}.cls-5{fill:#d8ebeb;}.cls-6{fill:#def6dd;}.cls-7{fill:#d5eee2;}.cls-10,.cls-11,.cls-22,.cls-8{fill:#fff;}.cls-8{stroke:#b6e8b8;}.cls-11,.cls-12,.cls-13,.cls-14,.cls-15,.cls-17,.cls-18,.cls-20,.cls-21,.cls-22,.cls-8{stroke-miterlimit:10;stroke-width:2px;}.cls-9{mix-blend-mode:multiply;}.cls-11,.cls-12,.cls-13,.cls-14,.cls-15,.cls-17,.cls-21{stroke:#274247;}.cls-12,.cls-19{fill:#f0f8f9;}.cls-13,.cls-14,.cls-18,.cls-20,.cls-21{fill:none;}.cls-14,.cls-18,.cls-21{stroke-linecap:round;}.cls-16{fill:#274247;}.cls-17{fill:#b6e8b8;}.cls-18,.cls-20,.cls-22{stroke:#1a9d49;}.cls-21{stroke-dasharray:0.01 5;}</style>
    </defs>
    <title>Artboard 1 copy</title>
    <g class="cls-1">
        <g id="efff930b-7031-4101-bb54-2d24ab2f7925">
            <path class="cls-2" d="M633.1,17.33l1.36,0c.31,16.38-10.83,36.64-33.12,60.21A314.94,314.94,0,0,1,567.78,108L567,107C567.63,106.44,633.82,55.61,633.1,17.33Z"/>
            <path class="cls-2" d="M593.62,48.71l1.36,0c.32,17.08-27.85,38.72-29.05,39.64l-.82-1.09C565.39,87,593.93,65.1,593.62,48.71Z"/>
            <circle class="cls-3" cx="633.92" cy="7.14" r="6.8"/>
            <circle class="cls-3" cx="596.59" cy="38.6" r="6.8"/>
            <path class="cls-2" d="M656.54,32.63a30.16,30.16,0,0,1-11.28,10.78,30.21,30.21,0,0,1-15.33,2.93,30.23,30.23,0,0,1,11.28-10.79A30.26,30.26,0,0,1,656.54,32.63Z"/>
            <path class="cls-2" d="M611.86,13.69a30.22,30.22,0,0,1,8.66,13,30.22,30.22,0,0,1,.21,15.61,30.3,30.3,0,0,1-8.66-13A30.22,30.22,0,0,1,611.86,13.69Z"/>
            <path class="cls-2" d="M577.86,42.94a19.29,19.29,0,0,1,6.21,20,21.32,21.32,0,0,1-6.07-9.1A21.25,21.25,0,0,1,577.86,42.94Z"/>
            <path class="cls-4" d="M987.65,368.76c-11.24-87.49-80.89-117.86-149.3-185.83C748.76,93.93,676.6,38.05,598,56.74c-55.31,13.16-99.83,33.48-157.79,48.51L450.65,122h-50.8l5.48-8.8c-32.06,6.29-68.65,10.66-112.82,11.54-29.5.58-80.44-12.51-137.72-4.47A32.78,32.78,0,0,1,155,124a34,34,0,0,1-64.46,15.11C-6.41,185.24-34,314.25,51.41,392.29c117.48,107.29,225.05,80.42,296.58,64,29.58-6.8,42.91,42.37,91,87.89A46,46,0,0,1,516,592.87c35.41,14,80.65,23.2,139.58,23l7.21-35.3,42.76,33c119.88-10.75,217.08-71.25,259.8-145a24,24,0,1,1,18.24-43.36A145.21,145.21,0,0,0,987.65,368.76Z"/>
            <path class="cls-5" d="M654.48,631l3.1-15.15-2.05,0-3.73,18.27L706,614l-.51-.39c-1.79.16-3.58.31-5.38.45Z"/>
            <path class="cls-2" d="M655.53,615.85l2.05,0,6.47-31.74,37.88,29.26-1.81.67c1.8-.14,3.59-.29,5.38-.45l-42.76-33Z"/>
            <path class="cls-5" d="M425.25,85l12.93,20.75,2-.52-15-24-19.92,32c.9-.17,1.79-.36,2.69-.54Z"/>
            <path class="cls-2" d="M450.65,122l-10.44-16.75-2,.52L447,120H403.45l4.57-7.34c-.9.18-1.79.37-2.69.54l-5.48,8.8Z"/>
            <path class="cls-6" d="M154.79,120.27a34,34,0,1,0-64.25,18.84q2.13-1,4.29-2A225,225,0,0,1,154.79,120.27Z"/>
            <path class="cls-7" d="M121,158a34,34,0,0,0,34-34,32.78,32.78,0,0,0-.21-3.73,225,225,0,0,0-60,16.86q-2.16,1-4.29,2A34,34,0,0,0,121,158Z"/>
            <path class="cls-6" d="M428,574a46,46,0,0,0,88,18.87A237.2,237.2,0,0,1,439,544.14,45.85,45.85,0,0,0,428,574Z"/>
            <path class="cls-7" d="M474,528a45.92,45.92,0,0,0-35,16.14A237.2,237.2,0,0,0,516,592.87,46,46,0,0,0,474,528Z"/>
            <polygon class="cls-8" points="883.88 242.57 943.03 223.88 933.75 285.21 883.88 242.57"/>
            <path class="cls-2" d="M71.62,218.4l.2-1.34c16.21,2.38,34.37,16.7,54,42.54a315.35,315.35,0,0,1,24.58,38.12l-1.2.63C148.77,297.61,109.5,224,71.62,218.4Z"/>
            <path class="cls-2" d="M96.09,262.5l.2-1.35c16.9,2.48,33.62,33.83,34.32,35.16l-1.2.64C129.24,296.63,112.31,264.88,96.09,262.5Z"/>
            <circle class="cls-9" cx="61.7" cy="215.91" r="6.8"/>
            <circle class="cls-9" cx="86.6" cy="257.9" r="6.8"/>
            <path class="cls-2" d="M90.55,197.79a27.55,27.55,0,0,1,9.16,28.5,27.55,27.55,0,0,1-9.16-28.5Z"/>
            <path class="cls-2" d="M64.54,238.75a30.15,30.15,0,0,1,14.23-6.4A30.22,30.22,0,0,1,94.2,234.7,30.22,30.22,0,0,1,80,241.11,30.19,30.19,0,0,1,64.54,238.75Z"/>
            <path class="cls-2" d="M87.81,277.09a19.3,19.3,0,0,1,20.79-2.83,21.21,21.21,0,0,1-10,4.49A21.25,21.25,0,0,1,87.81,277.09Z"/>
            <circle class="cls-10" cx="239.5" cy="265.5" r="123.5"/>
            <path class="cls-6" d="M983.54,425.18a179.4,179.4,0,0,1-18.24,43.36,24,24,0,0,0,18.24-43.36Z"/>
            <path class="cls-7" d="M970,421a24,24,0,0,0-4.7,47.54,179.4,179.4,0,0,0,18.24-43.36A24,24,0,0,0,970,421Z"/>
            <path class="cls-11" d="M413,307.86c1.54,11.27-36.84,17.84-36.84,17.84L303.33,339l-21.15-2-13.48-1.3,14.77-19.55.73-.08,18.13-2,74.32-.71S409,278.48,413,307.86Z"/>
            <rect class="cls-11" x="41" y="481" width="153" height="124"/>
            <path class="cls-12" d="M108.2,578h17.37c3.35,0,6.06,2.24,6.06,5h0c0,2.76-2.71,5-6.06,5H108.2c-3.35,0-6.06-2.24-6.06-5h0C102.14,580.24,104.85,578,108.2,578Z"/>
            <rect class="cls-11" x="297" y="137" width="617" height="433"/>
            <line class="cls-13" x1="297" y1="204" x2="914" y2="204"/>
            <circle class="cls-13" cx="338.5" cy="169.5" r="16.5"/>
            <line class="cls-14" x1="369" y1="164" x2="443" y2="164"/>
            <line class="cls-14" x1="369" y1="176" x2="408" y2="176"/>
            <path class="cls-15" d="M200.88,303.53s-7.93,3-4.31,13.74,24.16,55.91,24.16,55.91,21.07-13,33.71-19.08,34.68-40,34.68-40S240.91,293.88,200.88,303.53Z"/>
            <path class="cls-11" d="M310.28,501.3,289,502.82s-.66,40-3.43,50.27L322.09,582l-7.62-24.37Z"/>
            <path class="cls-16" d="M324.16,583.26h0a7.54,7.54,0,0,1-2.84-2.35L285.59,551a4.48,4.48,0,0,1-1.2,2.48c-1.37.82-3.32,3.5-5.27,6.61A29.68,29.68,0,0,0,276,584.72h0l2.48,17.33a3,3,0,0,0,3,3.23h0a3,3,0,0,0,3-2.85L282.1,587h7.62s12.95,16.75,16.75,22.85S327,617.46,343.79,606C358,596.39,332.41,586.19,324.16,583.26Z"/>
            <path class="cls-11" d="M247.45,285.77,234.5,329.18l-31.22-22.85s16-17.51,16-22.08S247.45,285.77,247.45,285.77Z"/>
            <path class="cls-16" d="M118.13,413.41s-16.45,37.59-4.77,79.64C121,520.47,169.74,595.1,247.07,609.73c39.65-16.91,127.18-148.51,83.77-190.4S170.15,414,170.15,414Z"/>
            <path class="cls-11" d="M339.4,401.71l-95.79-24.49L228,354.49l14.85.87,23.32,1.36L345.81,393h31C376.79,410.06,339.4,401.71,339.4,401.71Z"/>
            <path class="cls-17" d="M269.2,354.53s-36.6-54.67-62.49-60.76c-38.5,15.14-87.24,105.55-91.17,126.8-5,22.45,71.73,3.8,82-10.28a44.27,44.27,0,0,1,2.28-11.42s10.48,1.11,18.28-2.29c9.24-4,10.6-13.25,10.46-23.19C244.74,370.4,269.2,354.53,269.2,354.53Z"/>
            <circle class="cls-16" cx="234.06" cy="254.55" r="37.49"/>
            <circle class="cls-11" cx="234.12" cy="272.44" r="24.37"/>
            <circle class="cls-16" cx="239.07" cy="205.31" r="12.45"/>
            <path class="cls-16" d="M253.08,209.69A12.46,12.46,0,0,0,252,193c.35.23.69.47,1,.73a12.45,12.45,0,1,1-15.46,19.52l0,0a12.26,12.26,0,0,1-.94-.82A12.46,12.46,0,0,0,253.08,209.69Z"/>
            <path class="cls-16" d="M240.91,237.12c14.17,3.85,23.84,13.67,21.6,21.94-1,3.7-4.24,6.45-8.76,8l-4-4.93-.18,6c-.62.1-1.26.2-1.92.27l-5-10.62-2.87,10.58a43.73,43.73,0,0,1-7-1.32c-14.18-3.85-23.84-13.67-21.6-21.94S226.74,233.26,240.91,237.12Z"/>
            <rect class="cls-14" x="734" y="157" width="153" height="28"/>
            <rect class="cls-18" x="359" y="507" width="74" height="24" rx="1.86"/>
            <rect class="cls-19" x="532" y="254" width="356" height="278"/>
            <path class="cls-11" d="M619.31,194.61s42.93-7.62,57.78-8c-2.68-11.55-4.24-50.59,0-45.69,0,0,11.93,1.9,26.78,3,3.43,10.88-1.45,40.28-8.64,60.08-7.36,0-97.35-.11-109.14,0C585.08,190.63,619.31,194.61,619.31,194.61Z"/>
            <path class="cls-11" d="M636.08,256c-10.75,11.64-29.2-11.93-29.2-11.93s-35.26-31-40-37.44a133.1,133.1,0,0,1-9.48-16.11l25.93-16.39,3.09,19.8s22,27.29,26.92,37.58C625.64,237.73,645.61,246.74,636.08,256Z"/>
            <path class="cls-16" d="M528.44,136c2.29-20.57,25.13-58.64,76.87-63.43,36.46-3.36-23.56,34.52-23.56,34.52S566.66,142.92,555.86,142A128.89,128.89,0,0,1,528.44,136Z"/>
            <path class="cls-15" d="M558.14,195.41c-10.66-13-23.61-91.47,31.23-117.25,62.26-29.29,117.76,34.51,117.76,77.16-10.06,8.86-30.6,10.91-36.93,2.31-19.68-26.76-39.79-27.42-52.73-23.09s-13.72,14.56-22,33.42C584.85,192.08,558.14,195.41,558.14,195.41Z"/>
            <circle class="cls-16" cx="632.1" cy="115.81" r="37.49"/>
            <circle class="cls-11" cx="632.17" cy="133.71" r="24.37"/>
            <path class="cls-16" d="M668.14,114c2.75,10.11-9.08,22.13-26.41,26.84a55.07,55.07,0,0,1-8.55,1.61l-3.51-12.94-6.17,13c-.8-.08-1.58-.2-2.35-.33l-.22-7.3-4.85,6c-5.53-1.93-9.48-5.3-10.71-9.82-2.75-10.11,9.08-22.13,26.41-26.84S665.39,103.9,668.14,114Z"/>
            <circle class="cls-20" cx="869.5" cy="170.5" r="6.5"/>
            <line class="cls-18" x1="875" y1="176" x2="877.6" y2="178.52"/>
            <path class="cls-3" d="M409.22,372H382.31l-5.24,20H356.49l30.32-97h17.92l30.51,97H414.46Zm-22.48-17h18l-9-34.34Z"/>
            <line class="cls-21" x1="446" y1="301" x2="446" y2="388"/>
            <line class="cls-13" x1="439" y1="296" x2="453" y2="296"/>
            <line class="cls-13" x1="439" y1="391" x2="453" y2="391"/>
            <line class="cls-20" x1="600" y1="226" x2="600" y2="318"/>
            <line class="cls-20" x1="690" y1="226" x2="690" y2="318"/>
            <rect class="cls-22" x="605" y="227" width="81" height="90"/>
            <circle class="cls-3" cx="634" cy="251" r="11"/>
            <polygon class="cls-16" points="606 311.03 622.67 293.13 638.15 303.07 664.92 280.21 685 294.27 685 316 606 316 606 311.03"/>
            <line class="cls-18" x1="609.17" y1="272" x2="681.83" y2="272"/>
            <polygon class="cls-3" points="615.8 280.18 617.16 278.71 609.94 272 617.16 265.29 615.8 263.82 607 272 615.8 280.18"/>
            <polygon class="cls-3" points="675.2 280.18 673.84 278.71 681.06 272 673.84 265.29 675.2 263.82 684 272 675.2 280.18"/>
            <rect class="cls-11" x="770" y="568" width="94" height="32"/>
            <rect class="cls-16" x="769" y="505" width="96" height="66"/>
            <path class="cls-3" d="M795.15,586.21h-1.23l-.46,2.6H792.3l.46-2.6h-1.44v-1.09H793l.32-1.82H791.8v-1.09h1.66l.47-2.64h1.15l-.46,2.64h1.23l.46-2.64h1.17l-.47,2.64h1.39v1.09h-1.58l-.32,1.82h1.42v1.09h-1.61l-.46,2.6h-1.16Zm-1-1.09h1.23l.31-1.82h-1.23Z"/>
            <path class="cls-3" d="M805.62,588.81h-6.33v-1.25l3-3.19a7.87,7.87,0,0,0,.91-1.17,2,2,0,0,0,.29-1,1.37,1.37,0,0,0-.31-1,1.11,1.11,0,0,0-.89-.36,1.24,1.24,0,0,0-1,.43,1.7,1.7,0,0,0-.36,1.13H799.1a3.1,3.1,0,0,1,.4-1.54,2.87,2.87,0,0,1,1.14-1.1,3.55,3.55,0,0,1,1.67-.4,3.24,3.24,0,0,1,2.22.69,2.42,2.42,0,0,1,.79,1.94,3.18,3.18,0,0,1-.35,1.39,7.92,7.92,0,0,1-1.22,1.66l-2.1,2.22h4Z"/>
            <path class="cls-3" d="M813,580.6l-3.57,8.21h-1.94l3.58-7.76h-4.6v-1.48H813Z"/>
            <path class="cls-3" d="M819.63,585.34h1v1.47h-1v2H817.8v-2H814l-.09-1.15,3.86-6.09h1.85Zm-3.88,0h2v-3.27l-.12.21Z"/>
            <path class="cls-3" d="M828,588.81h-6.34v-1.25l3-3.19a7.24,7.24,0,0,0,.91-1.17,1.91,1.91,0,0,0,.3-1,1.42,1.42,0,0,0-.31-1,1.12,1.12,0,0,0-.89-.36,1.22,1.22,0,0,0-1,.43,1.7,1.7,0,0,0-.36,1.13h-1.84a3,3,0,0,1,.4-1.54,2.87,2.87,0,0,1,1.14-1.1,3.52,3.52,0,0,1,1.67-.4,3.28,3.28,0,0,1,2.22.69,2.42,2.42,0,0,1,.79,1.94,3.06,3.06,0,0,1-.36,1.39,7.26,7.26,0,0,1-1.22,1.66l-2.1,2.22h4Z"/>
            <path class="cls-3" d="M834.55,585.34h1.05v1.47h-1.05v2h-1.84v-2h-3.79l-.08-1.15,3.85-6.09h1.86Zm-3.88,0h2v-3.27l-.12.21Z"/>
            <path class="cls-3" d="M842.86,580.6l-3.57,8.21h-1.94l3.58-7.76h-4.59v-1.48h6.52Z"/>
            <rect class="cls-2" x="358" y="416" width="131" height="11"/>
            <rect class="cls-2" x="358" y="440" width="131" height="11"/>
            <rect class="cls-2" x="358" y="464" width="131" height="11"/>
            <polygon class="cls-10" points="403.45 120 425.25 85.02 447.04 120 403.45 120"/>
            <polygon class="cls-10" points="654.48 630.98 664.05 584.09 701.93 613.35 654.48 630.98"/>
        </g>
    </g>
</svg>
