<?xml version="1.0" encoding="UTF-8"?>
<svg width="20px" height="20px" viewBox="0 0 20 20" version="1.1" xmlns="http://www.w3.org/2000/svg" xmlns:xlink="http://www.w3.org/1999/xlink">
    <!-- Generator: Sketch 59 (86127) - https://sketch.com -->
    <title>aeroplane</title>
    <desc>Created with Sketch.</desc>
    <g id="Page-1" stroke="none" stroke-width="1" fill="none" fill-rule="evenodd">
        <g id="mimir-header-1b" transform="translate(-977.000000, -267.000000)" fill="#00824D">
            <g id="aeroplane" transform="translate(977.000000, 267.000000)">
                <g id="Shape">
                    <path d="M19.9587264,1.73458824 L19.9209906,1.37694118 C19.8455189,0.642823529 19.2417453,0.0781176471 18.4870283,0.0216470588 L18.1851415,0.00282352941 C17.2794811,-0.0348235294 16.3926887,0.304 15.7511792,0.944 L12.7323113,3.93694118 L2.84551887,3.91811765 C2.01533019,3.91811765 1.20400943,4.25694118 0.600235849,4.85929412 L0.185141509,5.27341176 C0.0530660377,5.40517647 -0.00353773585,5.63105882 0.0341981132,5.81929412 C0.0908018868,6.00752941 0.222877358,6.15811765 0.411556604,6.21458824 L8.27948113,8.36047059 L6.44929245,10.1863529 L3.12853774,10.2992941 C2.78891509,10.2992941 2.46816038,10.4310588 2.22287736,10.6945882 L1.90212264,11.0145882 C1.77004717,11.1463529 1.7134434,11.3534118 1.75117925,11.5416471 C1.80778302,11.7298824 1.93985849,11.8616471 2.10966981,11.9369412 L6.33608491,13.5369412 L8.03419811,17.904 C8.10966981,18.0922353 8.27948113,18.224 8.46816038,18.2428235 C8.65683962,18.2616471 8.82665094,18.2051765 8.95872642,18.0545882 L9.29834906,17.7157647 C9.52476415,17.4898824 9.65683962,17.1887059 9.69457547,16.8122353 L9.80778302,13.4804706 L11.6568396,11.6734118 L13.7889151,19.5416471 C13.8455189,19.7298824 13.9964623,19.8804706 14.1851415,19.9369412 C14.2417453,19.9557647 14.2794811,19.9557647 14.3360849,19.9557647 C14.4870283,19.9557647 14.6379717,19.8992941 14.7511792,19.7863529 L15.1662736,19.3722353 C15.7700472,18.7698824 16.1096698,17.9604706 16.1096698,17.1134118 L16.1096698,7.24988235 L19.0341981,4.31341176 C19.7323113,3.63576471 20.071934,2.67576471 19.9587264,1.73458824 Z M18.5058962,3.78635294 L15.4492925,6.83576471 C15.3738208,6.91105882 15.3360849,7.00517647 15.3360849,7.09929412 L15.3360849,17.1134118 C15.3360849,17.7722353 15.071934,18.3745882 14.6191038,18.8451765 L14.4304245,19.0334118 L12.1851415,10.8828235 C12.1474057,10.7510588 12.053066,10.6569412 11.9209906,10.6192941 C11.8832547,10.6192941 11.8643868,10.6004706 11.8266509,10.6004706 C11.7323113,10.6004706 11.6379717,10.6381176 11.5625,10.7134118 L9.14740566,13.0851765 C9.07193396,13.1604706 9.03419811,13.2357647 9.03419811,13.3487059 L8.92099057,16.8122353 C8.92099057,16.9251765 8.88325472,17.0945882 8.75117925,17.2075294 L8.61910377,17.3392941 L6.97759434,13.104 C6.93985849,13.0098824 6.86438679,12.9345882 6.75117925,12.8969412 L2.65683962,11.3345882 L2.77004717,11.2216471 C2.82665094,11.1651765 2.97759434,11.0522353 3.16627358,11.0522353 L6.65683962,10.9392941 C6.75117925,10.9392941 6.84551887,10.9016471 6.90212264,10.8263529 L9.29834906,8.43576471 C9.39268868,8.34164706 9.43042453,8.20988235 9.39268868,8.07811765 C9.35495283,7.94635294 9.26061321,7.85223529 9.12853774,7.81458824 L0.939858491,5.57458824 L1.12853774,5.38635294 C1.58136792,4.93458824 2.20400943,4.67105882 2.84551887,4.67105882 L12.8832547,4.68988235 C12.9775943,4.68988235 13.071934,4.65223529 13.1474057,4.57694118 L16.2794811,1.47105882 C16.7700472,0.981647059 17.4492925,0.718117647 18.1474057,0.755764706 L18.4492925,0.774588235 C18.8266509,0.793411765 19.1285377,1.09458824 19.1662736,1.45223529 L19.2040094,1.80988235 C19.2794811,2.544 19.0341981,3.25929412 18.5058962,3.78635294 Z" fill-rule="nonzero"></path>
                </g>
            </g>
        </g>
    </g>
</svg>