<?xml version="1.0" encoding="UTF-8"?>
<svg width="17px" height="19px" viewBox="0 0 17 19" version="1.1" xmlns="http://www.w3.org/2000/svg" xmlns:xlink="http://www.w3.org/1999/xlink">
    <!-- Generator: Sketch 59 (86127) - https://sketch.com -->
    <title>apple</title>
    <desc>Created with Sketch.</desc>
    <g id="Page-1" stroke="none" stroke-width="1" fill="none" fill-rule="evenodd">
        <g id="mimir-header-1b" transform="translate(-978.000000, -309.000000)" fill="#00824D">
            <g id="apple" transform="translate(978.000000, 309.000000)">
                <g id="Shape">
                    <path d="M13.336441,4.68462371 C11.7795833,4.29946899 10.1303472,4.66882324 9.23253472,5.60337068 C9.18560766,5.65207673 9.13410589,5.69570923 9.07876734,5.73383332 C9.27828123,3.76732635 10.9722309,2.2265625 13.0256597,2.2265625 C13.3386545,2.2265625 13.5923264,1.97737884 13.5923264,1.66992188 C13.5923264,1.36246491 13.3386545,1.11328125 13.0256597,1.11328125 C11.3749479,1.11328125 9.90515623,1.8877945 8.97251734,3.08616636 C8.59178821,1.32521059 6.99671006,0 5.09232639,0 L2.82565972,0 C2.51266494,0 2.25899306,0.249183664 2.25899306,0.556640625 C2.25899306,2.70521547 4.03838544,4.45269012 6.22565972,4.45269012 L8.2174045,4.45269012 C8.06850694,4.86495208 7.9730295,5.3021469 7.93938367,5.75557708 C7.87120661,5.71237946 7.80775173,5.66135407 7.75138022,5.60264586 C6.8063455,4.61953735 5.26793401,4.23510742 3.73631077,4.59967805 C2.09297744,4.99077605 0.834505218,6.16696931 0.370104167,7.7460022 C-0.0405816067,9.1419525 -0.113185773,10.8497086 0.170885436,12.4314957 C0.477387162,14.1393967 1.15723956,15.7511902 2.08530383,16.9702912 C3.08169272,18.2791214 4.270217,19 5.43158855,19 C5.896875,19 6.34371528,18.8879471 6.75941839,18.6670303 C7.29583333,18.3816071 7.89511284,18.2308502 8.49232639,18.2308502 C9.08939234,18.2308502 9.68911456,18.381752 10.2253819,18.6665955 C10.6396094,18.8878021 11.0863021,19 11.5530642,19 C12.7145833,19 13.9029601,18.2791214 14.8994965,16.9701462 C15.8274132,15.7511902 16.5074132,14.1391068 16.8137673,12.4310608 C17.0876562,10.9063873 17.0302517,9.24965667 16.6563108,7.88559724 C16.2115364,6.26322175 15.0016146,5.09645082 13.336441,4.68462371 L13.336441,4.68462371 Z M6.22565972,3.33984375 C4.85739583,3.33984375 3.7125521,2.38210296 3.44928821,1.11328125 L5.09232639,1.11328125 C6.46059028,1.11328125 7.60543401,2.07102204 7.8686979,3.33984375 L6.22565972,3.33984375 Z M15.6976997,12.2376862 C15.4214497,13.7774353 14.8155295,15.2213669 13.9917969,16.3034821 C13.2257639,17.309639 12.3369531,17.8867187 11.5530642,17.8867187 C11.2775521,17.8867187 11.0131077,17.8200378 10.7656337,17.6878357 C10.062908,17.3147125 9.27695312,17.117569 8.49232639,17.117569 C7.70725694,17.117569 6.92144966,17.3148575 6.2200521,17.6879806 C5.97184028,17.8198929 5.70651044,17.8867187 5.43158855,17.8867187 C4.64769966,17.8867187 3.75888889,17.309639 2.99285589,16.3034821 C2.16897568,15.2215119 1.56320312,13.7777252 1.28695312,12.238121 C1.03564234,10.8388367 1.09998266,9.27516936 1.45887155,8.05505371 C1.81421877,6.84696959 2.74154512,5.98200227 4.00326389,5.68164826 C5.12331599,5.41506958 6.27096355,5.68411255 6.92735244,6.36701203 C7.33184028,6.78768157 7.90190105,7.02903746 8.49144099,7.02932739 L8.49232639,7.02932739 L8.49262155,7.02932739 C9.08275173,7.02918244 9.6528125,6.78797151 10.0567101,6.36759187 C10.6719271,5.72716521 11.9067882,5.47914125 13.0596007,5.76427459 C13.7973003,5.94677734 15.1034375,6.5025482 15.5619358,8.17507935 C15.8893923,9.36924742 15.9401562,10.8879776 15.6976997,12.2376862 Z" fill-rule="nonzero"></path>
                </g>
            </g>
        </g>
    </g>
</svg>