<?xml version="1.0" encoding="UTF-8"?>
<svg width="17px" height="19px" viewBox="0 0 17 19" version="1.1" xmlns="http://www.w3.org/2000/svg" xmlns:xlink="http://www.w3.org/1999/xlink">
    <!-- Generator: Sketch 59 (86127) - https://sketch.com -->
    <title>bar-chart</title>
    <desc>Created with Sketch.</desc>
    <g id="Page-1" stroke="none" stroke-width="1" fill="none" fill-rule="evenodd">
        <g id="mimir-header-1b" transform="translate(-719.000000, -264.000000)" fill="#00824D">
            <g id="bar-chart" transform="translate(719.000000, 264.000000)">
                <g>
                    <path d="M2.83490044,11.1791992 L0.568860619,11.1791992 C0.257294248,11.1791992 0.00470132743,11.4284258 0.00470132743,11.7358398 L0.00470132743,18.4433594 C0.00470132743,18.7507734 0.257294248,19 0.568860619,19 L2.83490044,19 C3.14646681,19 3.39905973,18.7507734 3.39905973,18.4433594 L3.39905973,11.7358398 C3.39905973,11.4284258 3.14646681,11.1791992 2.83490044,11.1791992 Z M2.27074115,17.8867188 L1.13301991,17.8867188 L1.13301991,12.2924805 L2.27074115,12.2924805 L2.27074115,17.8867188 Z" id="Shape" fill-rule="nonzero"></path>
                    <path d="M7.36698009,8.94335938 L5.10094027,8.94335938 C4.78937389,8.94335938 4.53678097,9.19258594 4.53678097,9.5 L4.53678097,18.4433594 C4.53678097,18.7507734 4.78937389,19 5.10094027,19 L7.36698009,19 C7.67854646,19 7.93113938,18.7507734 7.93113938,18.4433594 L7.93113938,9.5 C7.93113938,9.19258594 7.67854646,8.94335938 7.36698009,8.94335938 Z M6.8028208,17.8867188 L5.66509956,17.8867188 L5.66509956,10.0566406 L6.8028208,10.0566406 L6.8028208,17.8867188 Z" id="Shape" fill-rule="nonzero"></path>
                    <path d="M11.8990597,6.70751953 L9.63301991,6.70751953 C9.32145354,6.70751953 9.06886062,6.95674609 9.06886062,7.26416016 L9.06886062,18.4433594 C9.06886062,18.7507734 9.32145354,19 9.63301991,19 L11.8990597,19 C12.2106261,19 12.463219,18.7507734 12.463219,18.4433594 L12.463219,7.26416016 C12.463219,6.95674609 12.2106261,6.70751953 11.8990597,6.70751953 Z M11.3349004,17.8867188 L10.1971792,17.8867188 L10.1971792,7.82080078 L11.3349004,7.82080078 L11.3349004,17.8867188 Z" id="Shape" fill-rule="nonzero"></path>
                    <path d="M16.4311394,4.47167969 L14.1650996,4.47167969 C13.8535332,4.47167969 13.6009403,4.72090625 13.6009403,5.02832031 L13.6009403,18.4433594 C13.6009403,18.7507734 13.8535332,19 14.1650996,19 L16.4311394,19 C16.7427058,19 16.9952987,18.7507734 16.9952987,18.4433594 L16.9952987,5.02832031 C16.9952987,4.72090625 16.7427058,4.47167969 16.4311394,4.47167969 Z M15.8669801,17.8867188 L14.7292588,17.8867188 L14.7292588,5.58496094 L15.8669801,5.58496094 L15.8669801,17.8867188 Z" id="Shape" fill-rule="nonzero"></path>
                    <path d="M1.06024336,7.820875 C1.09070796,7.820875 1.12162389,7.81842578 1.15269027,7.81337891 C1.22527876,7.80157812 2.95999336,7.51275586 5.48460619,6.52382812 C7.5848208,5.70115039 10.6133783,4.22983789 13.6009027,1.77802148 L13.6009027,2.37722656 C13.6009027,2.68464062 13.8534956,2.93386719 14.1650619,2.93386719 C14.4766283,2.93386719 14.7292212,2.68464062 14.7292212,2.37722656 L14.7292212,0.556640625 C14.7292212,0.249226562 14.4766283,-2.84217094e-14 14.1650619,-2.84217094e-14 L12.3198473,-2.84217094e-14 C12.008281,-2.84217094e-14 11.7556881,0.249226562 11.7556881,0.556640625 C11.7556881,0.864054687 12.008281,1.11328125 12.3198473,1.11328125 L12.6435243,1.11328125 C9.85808186,3.34845312 7.05894912,4.70658203 5.1010531,5.47626758 C2.6814115,6.42749219 0.985548673,6.71223242 0.968699115,6.71501562 C0.661495575,6.7651875 0.453584071,7.05148633 0.504207965,7.35470703 C0.549867257,7.62738672 0.789033186,7.820875 1.06024336,7.820875 Z" id="Path" fill-rule="nonzero"></path>
                </g>
            </g>
        </g>
    </g>
</svg>