<?xml version="1.0" encoding="UTF-8"?>
<svg width="22px" height="20px" viewBox="0 0 22 20" version="1.1" xmlns="http://www.w3.org/2000/svg" xmlns:xlink="http://www.w3.org/1999/xlink">
    <!-- Generator: Sketch 59 (86127) - https://sketch.com -->
    <title>book</title>
    <desc>Created with Sketch.</desc>
    <g id="Page-1" stroke="none" stroke-width="1" fill="none" fill-rule="evenodd">
        <g id="mimir-header-1b" transform="translate(-976.000000, -473.000000)" fill="#00824D" fill-rule="nonzero">
            <g id="book" transform="translate(976.000000, 473.000000)">
                <path d="M21.5735608,1.66432023 C21.5721215,1.66432023 21.5706823,1.66432023 21.5692964,1.66432023 L21.5692964,1.66432023 L20.1236674,1.66432023 L20.1236674,1.0375327 C20.1314499,0.789451811 20.0047974,0.566496462 19.8166311,0.497198616 C18.8130064,0.163947572 17.7795309,-0.00315074182 16.7420043,4.49814221e-05 C15.0362473,4.49814221e-05 12.7121535,0.486391934 10.9936034,2.70176166 C9.28784648,0.464778571 6.9466951,4.49814221e-05 5.24520256,4.49814221e-05 C4.20767591,-0.00315074182 3.17420043,0.163947572 2.17057569,0.497198616 C1.98240938,0.566496462 1.85575693,0.789451811 1.86353945,1.0375327 L1.86353945,1.65891689 L0.426439232,1.65891689 C0.190938166,1.65891689 0,1.90085147 0,2.19925097 L0,19.4575215 C0,19.755921 0.190938166,19.9978555 0.426439232,19.9978555 C0.499680171,19.9975854 0.571641791,19.9734054 0.635394456,19.9276121 C0.67803838,19.9005954 4.9424307,16.944968 10.8955224,18.846944 L10.9594883,18.846944 L10.9978678,18.846944 C11.0318763,18.8521447 11.0662047,18.8521447 11.1002132,18.846944 C17.0703625,16.928758 21.3347548,19.8789821 21.3603412,19.9276121 C21.4922708,20.0241293 21.6548507,20.0241293 21.7867804,19.9276121 C21.9179104,19.8317028 21.9990938,19.654811 22,19.4629248 L22,2.20465431 C22,1.90625481 21.8091151,1.66432023 21.5735608,1.66432023 Z M0.900584795,18.6991899 L0.900584795,2.92686767 L1.92385856,2.92686767 L1.92385856,16.409139 C1.92118264,16.7060124 2.11069166,16.9493975 2.3471364,16.9527573 C2.37025639,16.9530933 2.39337639,16.9510774 2.41622879,16.9467097 C3.30196001,16.7769045 4.19620066,16.6870631 5.09215392,16.6779244 C6.33324799,16.6509114 7.56915077,16.8852922 8.74853801,17.3713905 C6.08518973,16.967003 3.38368276,17.4240724 0.900584795,18.6991899 Z M5.0169857,15.5131652 C4.24288343,15.5153927 3.46968555,15.5785057 2.70175439,15.7021667 L2.70175439,1.49465657 C3.53038589,1.26042975 4.37657314,1.14088632 5.22552676,1.1382538 C6.81724829,1.1382538 9.01331329,1.6026574 10.5369398,3.78427431 L10.5497076,17.2357786 C9.6644721,16.5013729 7.93656049,15.5131652 5.0169857,15.5131652 Z M11.4502924,3.78516224 C12.9764017,1.62442066 15.1760453,1.1382538 16.7703606,1.1382538 C17.6206444,1.14142739 18.4682105,1.26094341 19.2982456,1.49477616 L19.2982456,15.7070539 C18.5333792,15.5822036 17.7631843,15.5172463 16.9920301,15.5125872 C14.0847493,15.5125872 12.3497591,16.5011264 11.4502924,17.2357786 L11.4502924,3.78516224 L11.4502924,3.78516224 Z M21.0823637,18.6991899 C18.6047806,17.4205782 15.9088318,16.9634416 13.251462,17.3713905 C14.431266,16.8835451 15.6676596,16.6490971 16.9090089,16.6779244 C17.8066638,16.6842408 18.7027735,16.772268 19.5903574,16.941334 C19.8231104,16.9858851 20.0404637,16.7840274 20.0757923,16.4905138 C20.0792559,16.461821 20.0808545,16.4327921 20.080588,16.4037633 L20.080588,2.92686767 L21.0994152,2.92686767 L21.0823637,18.6991899 Z" id="Shape"></path>
            </g>
        </g>
    </g>
</svg>