<?xml version="1.0" encoding="UTF-8"?>
<svg width="19px" height="19px" viewBox="0 0 19 19" version="1.1" xmlns="http://www.w3.org/2000/svg" xmlns:xlink="http://www.w3.org/1999/xlink">
    <!-- Generator: Sketch 59 (86127) - https://sketch.com -->
    <title>earth-globe</title>
    <desc>Created with Sketch.</desc>
    <g id="Page-1" stroke="none" stroke-width="1" fill="none" fill-rule="evenodd">
        <g id="mimir-header-1b" transform="translate(-460.000000, -433.000000)" fill="#00824D" fill-rule="nonzero">
            <g id="earth-globe" transform="translate(460.000000, 433.000000)">
                <path d="M16.2159184,2.78408163 C14.4244898,0.98877551 12.0359184,0 9.5,0 C6.96408163,0 4.5755102,0.98877551 2.78408163,2.78408163 C0.992653061,4.57938776 0,6.96408163 0,9.5 C0,12.0359184 0.98877551,14.4244898 2.78408163,16.2159184 C4.57938776,18.0073469 6.96408163,19 9.5,19 C12.0359184,19 14.4244898,18.0112245 16.2159184,16.2159184 C18.0073469,14.4206122 19,12.0359184 19,9.5 C19,6.96408163 18.0112245,4.5755102 16.2159184,2.78408163 Z M18.1391837,9.07346939 L14.4555102,9.07346939 C14.4206122,7.6077551 14.215102,6.19632653 13.8544898,4.94387755 C14.5563265,4.58326531 15.2116327,4.12959184 15.8126531,3.5944898 C17.1697959,5.04469388 18.0344898,6.96020408 18.1391837,9.07346939 Z M9.92653061,9.92653061 L13.6063265,9.92653061 C13.5753061,11.2759184 13.3891837,12.5671429 13.0673469,13.7226531 C12.0746939,13.3232653 11.0161224,13.0906122 9.92653061,13.0402041 L9.92653061,9.92653061 L9.92653061,9.92653061 Z M15.2,3.00122449 C14.7036735,3.43938776 14.1608163,3.81163265 13.5869388,4.12183673 C13.4395918,3.71081633 13.2728571,3.32306122 13.0867347,2.95857143 C12.7183673,2.22959184 12.2995918,1.63244898 11.8381633,1.17489796 C13.0983673,1.5277551 14.2422449,2.15979592 15.2,3.00122449 Z M9.92653061,0.984897959 C10.8144898,1.18265306 11.6520408,2.00081633 12.3267347,3.33469388 C12.5089796,3.69530612 12.6718367,4.07918367 12.8153061,4.48632653 C11.9040816,4.86244898 10.9308163,5.08346939 9.92653061,5.13387755 L9.92653061,0.984897959 Z M13.0712245,5.3044898 C13.3891837,6.4522449 13.5714286,7.73571429 13.602449,9.07734694 L9.92653061,9.07734694 L9.92653061,5.99081633 C11.02,5.94040816 12.0785714,5.70387755 13.0712245,5.3044898 L13.0712245,5.3044898 Z M9.07346939,9.07346939 L5.39367347,9.07346939 C5.42469388,7.73183673 5.60693878,6.44836735 5.92489796,5.30061224 C6.91755102,5.70387755 7.98,5.93653061 9.06959184,5.98306122 L9.06959184,9.07346939 L9.07346939,9.07346939 Z M9.07734694,0.984897959 L9.07734694,5.13387755 C8.07306122,5.08346939 7.09591837,4.86244898 6.18857143,4.48632653 C6.33204082,4.07918367 6.49489796,3.69530612 6.67714286,3.33469388 C7.35183673,2.00081633 8.18938776,1.18265306 9.07734694,0.984897959 Z M7.16571429,1.17489796 C6.70428571,1.63244898 6.2855102,2.23346939 5.91714286,2.95857143 C5.73489796,3.32306122 5.56816327,3.71081633 5.41693878,4.12183673 C4.84306122,3.81163265 4.30408163,3.43938776 3.80387755,3.00122449 C4.76163265,2.15979592 5.9055102,1.5277551 7.16571429,1.17489796 Z M3.19122449,3.5944898 C3.7922449,4.12959184 4.44755102,4.57938776 5.14938776,4.94387755 C4.78877551,6.20020408 4.57938776,7.6077551 4.54836735,9.07346939 L0.864693878,9.07346939 C0.969387755,6.96020408 1.83408163,5.04469388 3.19122449,3.5944898 Z M0.864693878,9.92653061 L4.54836735,9.92653061 C4.58326531,11.4038776 4.79265306,12.8191837 5.15714286,14.0793878 C4.45918367,14.44 3.80387755,14.8859184 3.20673469,15.4210204 C1.83795918,13.9669388 0.969387755,12.047551 0.864693878,9.92653061 L0.864693878,9.92653061 Z M3.81938776,16.0142857 C4.31571429,15.58 4.85469388,15.2077551 5.42469388,14.9014286 C5.57204082,15.3008163 5.73489796,15.6846939 5.91714286,16.0414286 C6.2855102,16.7704082 6.70428571,17.367551 7.16571429,17.8289796 C5.91326531,17.4761224 4.77326531,16.8479592 3.81938776,16.0142857 Z M9.07734694,18.015102 C8.18938776,17.8173469 7.35183673,16.9991837 6.67714286,15.6653061 C6.49877551,15.312449 6.33979592,14.9363265 6.19632653,14.5369388 C7.10367347,14.1608163 8.07693878,13.9397959 9.07734694,13.8932653 L9.07734694,18.015102 L9.07734694,18.015102 Z M5.93653061,13.7226531 C5.61469388,12.5671429 5.42857143,11.2759184 5.39755102,9.92653061 L9.07734694,9.92653061 L9.07734694,13.0402041 C7.9877551,13.0867347 6.92918367,13.3193878 5.93653061,13.7226531 Z M9.93040816,18.015102 L9.93040816,13.8932653 C10.9308163,13.9436735 11.9040816,14.1608163 12.8114286,14.5369388 C12.6679592,14.9363265 12.5089796,15.312449 12.3306122,15.6653061 C11.6559184,16.9991837 10.8183673,17.8173469 9.93040816,18.015102 L9.93040816,18.015102 Z M11.8420408,17.825102 C12.3034694,17.367551 12.7222449,16.7665306 13.0906122,16.037551 C13.2728571,15.6808163 13.4357143,15.2969388 13.5830612,14.897551 C14.1530612,15.2038776 14.6920408,15.5761224 15.1883673,16.0104082 C14.2344898,16.8479592 13.0944898,17.4761224 11.8420408,17.825102 L11.8420408,17.825102 Z M15.804898,15.4210204 C15.2077551,14.8897959 14.552449,14.44 13.8544898,14.0793878 C14.2189796,12.8191837 14.4283673,11.4 14.4632653,9.92653061 L18.1469388,9.92653061 C18.0383673,12.047551 17.1697959,13.9669388 15.804898,15.4210204 L15.804898,15.4210204 Z" id="Shape"></path>
            </g>
        </g>
    </g>
</svg>