<?xml version="1.0" encoding="UTF-8"?>
<svg width="21px" height="21px" viewBox="0 0 21 21" version="1.1" xmlns="http://www.w3.org/2000/svg" xmlns:xlink="http://www.w3.org/1999/xlink">
    <!-- Generator: Sketch 59 (86127) - https://sketch.com -->
    <title>elk</title>
    <desc>Created with Sketch.</desc>
    <g id="Page-1" stroke="none" stroke-width="1" fill="none" fill-rule="evenodd">
        <g id="mimir-header-1b" transform="translate(-717.000000, -181.000000)" fill="#00824D" fill-rule="nonzero">
            <g id="elk" transform="translate(717.000000, 181.000000)">
                <path d="M19.7199023,3.29235463 C19.409373,3.29235463 19.1106562,3.40417262 18.8775234,3.60832453 C18.8757187,3.60967816 18.8734629,3.61193421 18.8716582,3.61373904 C18.8680488,3.6164463 18.8648496,3.61870235 18.8616914,3.62190184 C17.8509434,4.51550228 16.3110527,4.46796118 15.353707,3.51508818 C15.3528047,3.51373455 15.3519023,3.51283213 15.3505488,3.5114785 C15.3292617,3.4897384 15.2930449,3.44268952 15.2930449,3.37115226 L15.2930449,2.40691699 C15.2930449,1.79807093 14.7974121,1.30280668 14.1890273,1.30280668 C13.5802324,1.30280668 13.0845586,1.79802991 13.0845586,2.40691699 L13.0845586,2.71972841 C13.0845586,2.82974156 12.9958418,2.91846581 12.8858379,2.91846581 C12.7762852,2.91846581 12.6871172,2.82974156 12.6871172,2.71972841 L12.6871172,1.75549314 C12.6871172,1.14664708 12.1919355,0.651382831 11.5830996,0.651382831 C10.9743047,0.651382831 10.479082,1.14660606 10.479082,1.75549314 L10.479082,2.06830456 C10.479082,2.17831771 10.3899141,2.26704196 10.2803613,2.26704196 C10.1708086,2.26704196 10.0816406,2.17831771 10.0816406,2.06830456 L10.0816406,1.10411031 C10.0816406,0.495264251 9.58645898,0 8.97762305,0 C8.36882812,0 7.87360547,0.495223232 7.87360547,1.10411031 L7.87360547,2.06830456 C7.87360547,3.98135195 9.01289648,5.63228748 10.6483125,6.37965493 C10.350457,6.51952996 10.0675723,6.68655961 9.80322656,6.87988249 C9.12244922,7.37830521 8.56570312,8.04416777 8.18954883,8.83591786 L4.57201172,8.83591786 C3.92474414,8.83591786 3.29872266,9.01020789 2.74829297,9.34155994 C2.39116992,9.29131157 1.94709375,9.4049344 1.52479687,9.66388779 C1.220625,9.85085271 0.967148437,10.0921269 0.810058594,10.3438199 C0.597761719,10.6855908 0.571962891,11.0377805 0.738978516,11.30986 C0.790125,11.3931697 0.902384766,11.5343984 1.11197461,11.6190618 C1.05721875,11.8675963 1.03006641,12.1215454 1.03006641,12.3791041 L1.03006641,14.0327469 C1.03006641,14.3509728 0.770683594,14.6099262 0.452484375,14.6099262 C0.202330078,14.6098852 0,14.8122323 0,15.0625717 L0,20.5472725 C0,20.7971607 0.202330078,21 0.452648437,21 L1.39777148,21 C1.61818945,21 1.80649219,20.8415023 1.84361133,20.6242243 L2.43792773,17.1747666 C2.70498047,17.0684042 2.95349414,16.9208176 3.17526562,16.7406618 L3.17526562,20.5472725 C3.17526562,20.7971607 3.37804687,21 3.62791406,21 L4.57258594,21 C4.79300391,21 4.98130664,20.8415023 5.01887695,20.6242243 L5.61274219,17.1747666 C6.21476953,16.9348461 6.72352734,16.4875742 7.04037305,15.9222083 L9.34299023,15.9222083 L9.34299023,20.5472725 C9.34299023,20.7971607 9.54577148,21 9.79563867,21 L10.9353809,21 C11.1571934,21 11.3459473,20.8392463 11.382123,20.6206146 L12.161584,15.8529681 C12.2444355,15.8452565 12.3263437,15.8348787 12.4078418,15.8222038 L12.4078418,20.5473135 C12.4078418,20.7972017 12.610623,21 12.8604902,21 L13.9993301,21 C14.2211426,21 14.4103477,20.8392873 14.4460723,20.6206556 L15.5890137,13.6357643 L15.9497871,14.0413609 C16.0538848,14.1581422 16.2114258,14.2133949 16.3653164,14.1861992 C16.5196582,14.1594958 16.6491035,14.0549382 16.7079609,13.9100589 L17.6671113,11.533455 C17.6671113,11.533455 17.9934727,11.6602039 18.3913242,11.6602039 C19.5265547,11.6602039 20.4494883,10.7367416 20.4494883,9.60231816 C20.4494883,8.85359708 20.0439258,8.16505097 19.3898496,7.80199118 L18.9485215,7.53220876 L18.5266348,7.2700969 L17.7417598,6.79025582 C18.7642793,6.70514125 19.7284336,6.278707 20.5526836,5.54446565 C20.5621992,5.53630285 20.5712227,5.52818108 20.5798359,5.52046949 C20.8470117,5.27874411 21,4.93287132 21,4.5725598 C21,3.8663755 20.4260684,3.29235463 19.7199023,3.29235463 Z M5.09044922,16.3975373 C4.92253125,16.4446272 4.79624414,16.584051 4.76634375,16.7564952 L4.19146875,20.0945861 L4.0805625,20.0945861 L4.0805625,15.9222083 L5.9115,15.9222083 C5.68341211,16.1444907 5.40097852,16.3106179 5.09044922,16.3975373 Z M13.6150957,20.0945861 L13.3131797,20.0945861 L13.3131797,15.5759253 C13.7327695,15.4093469 14.1225,15.1761945 14.4669492,14.8882816 L13.6150957,20.0945861 Z M18.9449941,8.59013159 C19.314791,8.79292987 19.5443145,9.18088824 19.5443145,9.60231816 C19.5443145,10.2378676 19.0273945,10.754831 18.3914473,10.754831 C18.2782852,10.754831 18.0297715,10.6977734 18.0148418,10.694615 L17.5658027,10.5334511 L17.5658027,10.5339023 C17.3376738,10.4505925 17.0828438,10.5624105 16.9913789,10.789205 L16.1413301,12.8946318 L15.7095176,12.4088839 C15.5999648,12.2852935 15.4315957,12.2314355 15.2704453,12.2681065 C15.1097461,12.3052288 14.9816543,12.4265632 14.9359219,12.5849788 C14.5353223,13.9869286 13.2357832,14.9656436 11.7741914,14.9656436 C11.5523789,14.9656436 11.3631738,15.1263563 11.3274492,15.3454392 L10.5506953,20.0945861 L10.2483281,20.0945861 L10.2483281,15.4695219 C10.2483281,15.2191825 10.045998,15.0168354 9.79567969,15.0168354 L3.58357617,15.0168354 C3.40163086,15.0168354 3.23732227,15.1254949 3.16624219,15.293427 C2.94082031,15.8285208 2.47324219,16.2413367 1.91559375,16.3975373 C1.74722461,16.4446272 1.62138867,16.584051 1.59148828,16.7564952 L1.01661328,20.0945861 L0.905255859,20.0945861 L0.905255859,15.4446233 C1.50182813,15.2526951 1.93548633,14.6922515 1.93548633,14.0327059 L1.93548633,12.3790631 C1.93548633,12.036841 2.00020898,11.7027407 2.12875195,11.3867708 C2.19121875,11.2333184 2.16496875,11.058126 2.06041992,10.9300234 C1.95541992,10.8019209 1.78926563,10.7412537 1.62635156,10.7715668 C1.62138867,10.7724692 1.61638477,10.7733716 1.61187305,10.7738228 C1.68205078,10.6791918 1.8046875,10.5547399 1.99844531,10.4356616 C2.33157422,10.2315097 2.58464063,10.221542 2.63668945,10.2400827 C2.78151563,10.3070668 2.9512793,10.2930383 3.08298047,10.2025092 C3.52295508,9.90101903 4.03761914,9.74120873 4.57217578,9.74120873 L8.48527148,9.74120873 C8.67718359,9.74120873 8.84104102,9.62122795 8.90621484,9.45194225 C9.52046484,7.9431378 10.9091719,6.9295976 12.5323652,6.80503231 C12.539625,6.80465352 15.6207598,6.80645835 15.6207598,6.80645835 C15.7357266,6.80690956 15.8502422,6.82003567 15.9611484,6.84448303 C16.0688965,6.8689304 16.1757012,6.90560145 16.2784453,6.95404497 C16.2788965,6.95404497 16.2797988,6.95449618 16.2807012,6.95494739 C16.3830352,7.00347295 18.9386367,8.58693211 18.9449941,8.59013159 Z M19.971123,4.85050502 C19.2083965,5.53765648 18.3049453,5.90116748 17.3580176,5.90116748 L12.6116074,5.90116748 C10.4986465,5.90116748 8.77996875,4.18234539 8.77906641,2.06965819 L8.77906641,1.10406929 C8.77906641,0.994507351 8.86823437,0.905331893 8.97778711,0.905331893 C9.08733984,0.905331893 9.17650781,0.994507351 9.17650781,1.10406929 L9.17650781,2.06826355 C9.17650781,2.6771096 9.67168945,3.17237385 10.2805254,3.17237385 C10.8743906,3.17237385 11.3600977,2.70114678 11.3835996,2.11264618 C11.3840508,2.1053858 11.384502,2.09771524 11.384502,2.09045486 L11.384502,1.75545212 C11.384502,1.64589018 11.4736699,1.55671472 11.5832227,1.55671472 C11.6927754,1.55671472 11.7819434,1.64589018 11.7819434,1.75545212 L11.7819434,2.71964638 C11.7819434,3.32849243 12.2775762,3.82375668 12.8859609,3.82375668 C13.4802773,3.82375668 13.9659844,3.35252961 13.9890352,2.76402901 C13.9894863,2.75676863 13.9899375,2.74909807 13.9899375,2.74183769 L13.9899375,2.40691699 C13.9899375,2.29735505 14.0791055,2.20817959 14.1891094,2.20817959 C14.2986621,2.20817959 14.3878301,2.29735505 14.3878301,2.40691699 L14.3878301,3.37111125 C14.3878301,3.65992652 14.497834,3.93151378 14.6979082,4.13841397 C14.7019687,4.14292607 14.7056191,4.14702797 14.7096797,4.15108886 C15.3845918,4.82650887 16.274918,5.16692613 17.1666387,5.16692613 C17.9809629,5.16692613 18.7965996,4.88307416 19.4506758,4.30954553 C19.4533828,4.30728948 19.4560898,4.30503343 19.4583867,4.30322859 C19.4583867,4.30322859 19.4583867,4.30277738 19.4588379,4.30277738 C19.4624473,4.29961891 19.4665488,4.29641943 19.4701582,4.29280975 C19.5389414,4.23124012 19.6276992,4.19772754 19.7200254,4.19772754 C19.9268672,4.19772754 20.0948262,4.36565962 20.0948262,4.5725598 C20.0947031,4.67892225 20.0517187,4.77716293 19.971123,4.85050502 Z" id="Shape"></path>
            </g>
        </g>
    </g>
</svg>