<?xml version="1.0" encoding="UTF-8"?>
<svg width="17px" height="18px" viewBox="0 0 17 18" version="1.1" xmlns="http://www.w3.org/2000/svg" xmlns:xlink="http://www.w3.org/1999/xlink">
    <!-- Generator: Sketch 59 (86127) - https://sketch.com -->
    <title>home (1)</title>
    <desc>Created with Sketch.</desc>
    <g id="Page-1" stroke="none" stroke-width="1" fill="none" fill-rule="evenodd">
        <g id="mimir-header-1b" transform="translate(-461.000000, -306.000000)" fill="#00824D" fill-rule="nonzero">
            <g id="home-(1)" transform="translate(461.000000, 306.000000)">
                <path d="M16.5183431,6.83890964 C16.2523882,6.83890964 16.0366862,7.05578727 16.0366862,7.32319166 L16.0366862,17.0315167 L10.8681866,17.0315167 L10.8681866,11.615468 C10.8681866,11.3480636 10.6524845,11.1311859 10.3865297,11.1311859 L6.61355061,11.1311859 C6.34759573,11.1311859 6.13189371,11.3480636 6.13189371,11.615468 L6.13189371,17.0315167 C6.13189371,17.2989211 6.34759573,17.5157987 6.61355061,17.5157987 C6.8795055,17.5157987 7.09520751,17.2989211 7.09520751,17.0315167 L7.09520751,12.09975 L9.90487276,12.09975 L9.90487276,17.0315167 L0.963313799,17.0315167 L0.963313799,7.17782634 L8.49995986,1.1050105 L16.2170667,7.32319166 C16.4246608,7.4905111 16.7277836,7.45677278 16.8941158,7.24812795 C17.0604479,7.0394024 17.0270531,6.73470829 16.8194589,6.56738885 L8.80115598,0.106420974 C8.62519066,-0.0354736581 8.37472907,-0.0354736581 8.19876375,0.106420974 L0.180460785,6.56738885 C0.066388376,6.65932172 0,6.79822995 0,6.94529026 L0,17.515718 C0,17.7831224 0.215621739,18 0.4816569,18 L16.5183431,18 C16.7843783,18 17,17.7831224 17,17.515718 L17,7.32319166 C17,7.05570656 16.7843783,6.83890964 16.5183431,6.83890964 Z" id="Path"></path>
            </g>
        </g>
    </g>
</svg>