<?xml version="1.0" encoding="UTF-8"?>
<svg width="19px" height="23px" viewBox="0 0 19 23" version="1.1" xmlns="http://www.w3.org/2000/svg" xmlns:xlink="http://www.w3.org/1999/xlink">
    <!-- Generator: Sketch 59 (86127) - https://sketch.com -->
    <title>lightbulb</title>
    <desc>Created with Sketch.</desc>
    <g id="Page-1" stroke="none" stroke-width="1" fill="none" fill-rule="evenodd">
        <g id="mimir-header-1b" transform="translate(-977.000000, -221.000000)" fill="#00824D">
            <g id="lightbulb" transform="translate(977.000000, 221.000000)">
                <g>
                    <path d="M9.52776519,4.95057737 C6.3156105,4.95057737 3.6913011,7.60646651 3.6913011,10.8572748 C3.6913011,12.5570439 4.42610773,14.1930716 5.66478177,15.2979215 C6.58853867,16.2327945 6.50456077,18.2300231 6.4835663,18.2512702 C6.4835663,18.3575058 6.50456077,18.4424942 6.58853867,18.5274827 C6.6515221,18.591224 6.75649448,18.6337182 6.84047238,18.6337182 L12.1940635,18.6337182 C12.2990359,18.6337182 12.3830138,18.591224 12.4459972,18.5274827 C12.5089807,18.4637413 12.5509696,18.3575058 12.5509696,18.2512702 C12.5509696,18.2300231 12.4459972,16.2327945 13.3697541,15.2979215 C13.3907486,15.2766744 13.4117431,15.2554273 13.4327376,15.2341801 C14.6504171,14.1080831 15.3642293,12.5145497 15.3642293,10.8572748 C15.3642293,7.60646651 12.7399199,4.95057737 9.52776519,4.95057737 Z M12.8868812,14.7454965 C12.8658867,14.7667436 12.8238978,14.8092379 12.8238978,14.830485 C12.0051133,15.7228637 11.8581519,17.1889145 11.8371575,17.8900693 L7.19737845,17.8900693 C7.17638398,17.1889145 7.02942265,15.6591224 6.1476547,14.7454965 C5.03494751,13.7681293 4.38411878,12.3445727 4.38411878,10.8360277 C4.38411878,7.96766744 6.67251657,5.6517321 9.50677072,5.6517321 C12.3410249,5.6517321 14.6294227,7.96766744 14.6294227,10.8360277 C14.6294227,12.3445727 13.9995884,13.7681293 12.8868812,14.7454965 Z" id="Shape" fill-rule="nonzero"></path>
                    <path d="M11.8371575,19.0374134 L7.17638398,19.0374134 C6.69351105,19.0374134 6.29461602,19.4411085 6.29461602,19.9297921 C6.29461602,20.4184758 6.69351105,20.8221709 7.17638398,20.8221709 L11.816163,20.8221709 C12.3200304,20.8009238 12.7189254,20.4184758 12.7189254,19.9297921 C12.7189254,19.4411085 12.3200304,19.0374134 11.8371575,19.0374134 Z M11.8371575,20.0785219 L7.17638398,20.0785219 C7.09240608,20.0785219 7.00842818,20.0147806 7.00842818,19.908545 C7.00842818,19.8023095 7.0714116,19.7385681 7.17638398,19.7385681 L11.816163,19.7385681 C11.9001409,19.7385681 11.9841188,19.8023095 11.9841188,19.908545 C11.9841188,20.0147806 11.9211354,20.0785219 11.8371575,20.0785219 Z" id="Shape" fill-rule="nonzero"></path>
                    <path d="M11.1443398,21.1833718 L7.86920166,21.1833718 C7.38632873,21.1833718 6.9874337,21.587067 6.9874337,22.0757506 C6.9874337,22.5644342 7.38632873,22.9681293 7.86920166,22.9681293 L11.1443398,22.9681293 C11.6272127,22.9681293 12.0261077,22.5644342 12.0261077,22.0757506 C12.0261077,21.5658199 11.6272127,21.1833718 11.1443398,21.1833718 Z M11.1443398,22.2244804 L7.86920166,22.2244804 C7.78522376,22.2244804 7.70124586,22.160739 7.70124586,22.0545035 C7.70124586,21.9482679 7.76422928,21.8845266 7.86920166,21.8845266 L11.1443398,21.8845266 C11.2283177,21.8845266 11.3122956,21.9482679 11.3122956,22.0545035 C11.3122956,22.160739 11.2283177,22.2244804 11.1443398,22.2244804 Z" id="Shape" fill-rule="nonzero"></path>
                    <path d="M9.50677072,3.18706697 C9.71671547,3.18706697 9.8636768,3.01709007 9.8636768,2.82586605 L9.8636768,0.361200924 C9.8636768,0.169976905 9.69572099,0 9.50677072,0 C9.31782044,0 9.14986464,0.169976905 9.14986464,0.361200924 L9.14986464,2.82586605 C9.14986464,3.01709007 9.31782044,3.18706697 9.50677072,3.18706697 Z" id="Path" fill-rule="nonzero"></path>
                    <path d="M15.4482072,1.82725173 C15.2802514,1.69976905 15.0703066,1.76351039 14.9653343,1.91224018 L13.6216878,3.95196305 C13.495721,4.12193995 13.5377099,4.3556582 13.7056657,4.46189376 C13.7686492,4.50438799 13.8316326,4.5256351 13.894616,4.5256351 C14.0205829,4.5256351 14.1255552,4.46189376 14.1885387,4.3556582 L15.5321851,2.31593533 C15.6581519,2.16720554 15.616163,1.9334873 15.4482072,1.82725173 Z" id="Path" fill-rule="nonzero"></path>
                    <path d="M5.24489227,4.44064665 C5.30787569,4.44064665 5.37085912,4.41939954 5.43384254,4.37690531 C5.60179834,4.27066975 5.64378729,4.0369515 5.53881492,3.8669746 L4.23715746,1.80600462 C4.13218508,1.63602771 3.90124586,1.59353349 3.73329006,1.69976905 C3.56533425,1.80600462 3.5233453,2.03972286 3.62831768,2.20969977 L4.92997514,4.27066975 C5.01395304,4.39815242 5.11892541,4.44064665 5.24489227,4.44064665 Z" id="Path" fill-rule="nonzero"></path>
                    <path d="M2.70456077,6.69284065 L0.584118785,5.52424942 C0.416162983,5.43926097 0.185223757,5.50300231 0.101245856,5.67297921 C-0.00372651934,5.84295612 0.0592569061,6.07667436 0.248207182,6.16166282 L2.36864917,7.33025404 C2.4316326,7.35150115 2.47362155,7.37274827 2.53660497,7.37274827 C2.66257182,7.37274827 2.78853867,7.30900693 2.8515221,7.18152425 C2.9355,7.01154734 2.87251657,6.7778291 2.70456077,6.69284065 Z" id="Path" fill-rule="nonzero"></path>
                    <path d="M18.9332901,5.67297921 C18.8493122,5.50300231 18.6183729,5.43926097 18.4504171,5.52424942 L16.3089807,6.69284065 C16.1410249,6.7778291 16.0780414,7.01154734 16.1620193,7.18152425 C16.2250028,7.30900693 16.3509696,7.37274827 16.4769365,7.37274827 C16.5399199,7.37274827 16.6029033,7.35150115 16.6448923,7.33025404 L18.7863287,6.16166282 C18.9542845,6.07667436 19.017268,5.84295612 18.9332901,5.67297921 Z" id="Path" fill-rule="nonzero"></path>
                </g>
            </g>
        </g>
    </g>
</svg>