<?xml version="1.0" encoding="UTF-8"?>
<svg width="10px" height="19px" viewBox="0 0 10 19" version="1.1" xmlns="http://www.w3.org/2000/svg" xmlns:xlink="http://www.w3.org/1999/xlink">
    <!-- Generator: Sketch 59 (86127) - https://sketch.com -->
    <title>paragraph</title>
    <desc>Created with Sketch.</desc>
    <g id="Page-1" stroke="none" stroke-width="1" fill="none" fill-rule="evenodd">
        <g id="mimir-header-1b" transform="translate(-723.000000, -456.000000)" fill="#00824D" fill-rule="nonzero">
            <g id="paragraph" transform="translate(723.000000, 456.000000)">
                <path d="M9.81031856,8.79510742 C9.49823721,7.86069336 8.83646141,7.10421875 7.9469651,6.66491797 C7.92507785,6.65411914 7.90268909,6.6444707 7.87983465,6.63600977 L5.22083854,5.65123828 C5.20679632,5.64604297 5.1926108,5.64129297 5.17831782,5.63702539 C5.16513532,5.6330918 5.14987514,5.62841602 5.13311044,5.62318359 C4.96614406,5.54621875 4.79616862,5.48324414 4.62454538,5.43381445 C3.94167041,5.13953711 2.93779442,4.53814258 2.93779442,3.54617188 C2.93779442,2.40928906 3.8537632,1.484375 4.97964896,1.484375 L5.35578005,1.484375 C6.53088525,1.484375 7.4513676,2.39722852 7.4513676,3.5625 C7.4513676,3.97241016 7.77211787,4.3046875 8.16780778,4.3046875 C8.5634977,4.3046875 8.88424797,3.97241016 8.88424797,3.5625 C8.88424797,2.59776758 8.51381257,1.69690039 7.8411827,1.02577734 C7.17829642,0.364265625 6.29564211,0 5.3558517,0 L4.9797206,0 C3.06374461,0 1.5049857,1.59080469 1.5049857,3.54617188 C1.5049857,4.28783984 1.77228953,4.9764043 2.28336214,5.56410547 C1.47489521,5.89478711 0.779303431,6.51982031 0.368998136,7.37838281 C-0.0510865668,8.25742969 -0.114778099,9.24353711 0.189673158,10.1550176 C0.501754503,11.0894316 1.1635303,11.8459062 2.05302662,12.285207 C2.07588106,12.2964883 2.09927283,12.3065078 2.12313029,12.3152285 L4.95650794,13.3499121 C4.96954715,13.3546992 4.98272965,13.359041 4.99601961,13.3630488 C5.37014468,13.4749336 7.23654301,14.101377 7.23654301,15.4539023 C7.23654301,16.5907852 6.32057423,17.5156992 5.19468848,17.5156992 L4.81855738,17.5156992 C3.64345219,17.5156992 2.72296983,16.6028828 2.72296983,15.4375742 C2.72296983,15.0276641 2.40221956,14.6953867 2.00652965,14.6953867 C1.61083973,14.6953867 1.29008946,15.0276641 1.29008946,15.4375742 C1.29008946,16.4023066 1.66052486,17.3031738 2.33315473,17.9742969 C2.99607683,18.6357344 3.87873114,19 4.81852156,19 L5.19465266,19 C7.11062865,19 8.66938756,17.4091953 8.66938756,15.4538281 C8.66938756,14.5367813 8.26087337,13.7008926 7.48801351,13.0365234 C6.94803255,12.5723594 6.21203354,12.1844551 5.41374006,11.9429473 L2.63764181,10.9291563 C2.11349417,10.6604102 1.7256851,10.2143184 1.54374511,9.66962695 C1.36578137,9.13673633 1.40461243,8.55693945 1.6531097,8.03696289 C2.11335088,7.07386328 3.17006433,6.59826953 4.15782042,6.84200391 C4.3111028,6.90523828 4.46828977,6.96316602 4.62837833,7.01530469 C4.67670222,7.03701367 4.72606495,7.05271094 4.77589337,7.06280469 L7.36098867,8.02022656 C7.88585275,8.28889844 8.27412751,8.73528711 8.45621078,9.28046094 C8.63417452,9.81331445 8.59534347,10.3931484 8.34684619,10.913125 C8.17128252,11.2804707 8.3164333,11.7256719 8.67103537,11.907582 C8.77319974,11.9599805 8.88156132,11.9848066 8.98834673,11.9848066 C9.25214001,11.9848066 9.50597476,11.8332148 9.63095776,11.5717422 C10.0511141,10.6927324 10.1147698,9.70658789 9.81031856,8.79510742 Z" id="Path"></path>
            </g>
        </g>
    </g>
</svg>