<?xml version="1.0" encoding="UTF-8"?>
<svg width="19px" height="18px" viewBox="0 0 19 18" version="1.1" xmlns="http://www.w3.org/2000/svg" xmlns:xlink="http://www.w3.org/1999/xlink">
    <!-- Generator: Sketch 59 (86127) - https://sketch.com -->
    <title>piggy-bank</title>
    <desc>Created with Sketch.</desc>
    <g id="Page-1" stroke="none" stroke-width="1" fill="none" fill-rule="evenodd">
        <g id="mimir-header-1b" transform="translate(-460.000000, -184.000000)" fill="#00824D" fill-rule="nonzero">
            <g id="piggy-bank" transform="translate(460.000000, 184.000000)">
                <path d="M17.6009764,6.43332608 L17.3243173,6.43332608 C16.8645176,5.24690015 16.0929893,4.17011094 15.0642849,3.29693278 C14.9201104,2.77224277 15.0292154,2.20448118 15.3993931,1.61714161 C15.6059133,1.28431586 15.6176031,0.884924951 15.430566,0.544268001 C15.2435288,0.207526648 14.8928341,0 14.5148632,0 C14.4720005,0 14.4252412,0.00391559713 14.3823785,0.00783119426 C12.9601168,0.184033065 12.0950699,0.822275397 11.5768211,1.42919295 C10.9533639,1.2334131 10.1623525,1.17467914 10.0142815,1.16293235 C9.64800034,1.12377638 9.27392602,1.10028279 8.9037483,1.10028279 C6.5385075,1.10028279 4.31354458,1.914727 2.63410672,3.38699152 C0.935185817,4.87883402 0,6.87187296 0,8.9941266 C0,9.5423102 0.0623457211,10.0904938 0.190933771,10.6269306 C0.194830378,10.6386774 0.194830378,10.6504242 0.198726986,10.6582554 L0.202623594,10.6778334 C0.335108251,11.2181858 0.533835237,11.7467914 0.787114729,12.2519034 C1.21184495,13.1681531 1.71840394,13.9356102 2.28730864,14.5268653 C3.07442337,15.3413095 3.21080464,16.3750272 3.23028768,16.7900805 L3.23028768,16.9936915 C3.23028768,17.0015227 3.23028768,17.0132695 3.23028768,17.0211007 C3.23028768,17.0641723 3.23418428,17.1033283 3.2419775,17.1424842 C3.31601304,17.6280183 3.73295005,18 4.23171582,18 L7.13468846,18 C7.68800674,18 8.13611661,17.5497063 8.13611661,16.9936915 L8.13611661,16.8605612 C8.54915701,16.891886 8.96609402,16.8958016 9.38303103,16.8762236 L9.38303103,16.9936915 C9.38303103,17.5497063 9.8311409,18 10.3844592,18 L13.2874318,18 C13.8407501,18 14.28886,17.5497063 14.28886,16.9936915 L14.28886,16.2810529 C14.2927566,16.1165978 14.3551023,15.337394 15.0915611,14.6639112 C15.1266306,14.6325865 15.1655967,14.6012617 15.2006661,14.5699369 C15.2045627,14.5660213 15.2045627,14.5660213 15.2084593,14.5621057 C15.2201492,14.5542745 15.2279424,14.5464433 15.2357356,14.5346965 C16.2059909,13.6615184 16.9385531,12.596476 17.3632833,11.4335436 L17.5931832,11.4335436 C18.3686081,11.4335436 18.9999299,10.7992169 18.9999299,10.0200131 L18.9999299,7.83902545 C19.0076517,7.06373722 18.3764013,6.43332608 17.6009764,6.43332608 Z M14.5447243,1.05329563 C14.5391687,1.05329563 14.5391687,1.05329563 14.5447243,1.05329563 C14.5391687,1.04938003 14.5391687,1.04938003 14.5391687,1.04938003 C14.5391687,1.04938003 14.5391687,1.04938003 14.5391687,1.05329563 L14.5391687,1.05329563 L14.4447243,0.528605612 L14.5447243,1.05329563 Z M17.9555677,10.0239286 C17.9555677,10.2197085 17.7958068,10.380248 17.6009764,10.380248 L16.9931056,10.380248 C16.7632058,10.380248 16.5566856,10.5329563 16.4904432,10.7522297 C16.1475418,11.8799217 15.4656354,12.9214705 14.526553,13.7633239 C14.5226564,13.7672395 14.5226564,13.7672395 14.5187598,13.7711551 L14.5148632,13.7750707 C14.4797937,13.8063955 14.4447243,13.8377203 14.4096548,13.869045 C14.4057582,13.8729606 14.4018616,13.8768762 14.397965,13.8807918 C13.3575707,14.8283663 13.2523623,15.9443115 13.2445691,16.2653905 C13.2445691,16.2693061 13.2445691,16.2732217 13.2445691,16.2771373 L13.2445691,16.9467044 L10.4390117,16.9467044 L10.4390117,16.308462 C10.4390117,16.1596693 10.376666,16.0147923 10.2636643,15.9169023 C10.1545593,15.8150968 10.0025916,15.7681096 9.85841715,15.783772 C9.53889533,15.8190124 9.21937351,15.8346748 8.9037483,15.8346748 C8.4946045,15.8346748 8.08546071,15.8072656 7.68411013,15.7524472 C7.53214243,15.7328693 7.38017474,15.7798564 7.26717312,15.8777464 C7.1541715,15.9795519 7.08792917,16.124429 7.08792917,16.2771373 L7.08792917,16.9467044 L4.28626833,16.9467044 L4.28626833,16.7783337 C4.28626833,16.7705025 4.28626833,16.7626713 4.28626833,16.7548401 C4.26288868,16.2262345 4.09533456,14.8753535 3.04714712,13.7907331 C2.55617457,13.2817055 2.11585791,12.6121384 1.74178358,11.7976941 C1.73788698,11.789863 1.73399037,11.7859474 1.73399037,11.7781162 C1.51188374,11.3434849 1.340433,10.8892756 1.22743138,10.4233196 C1.22743138,10.419404 1.22353478,10.4154884 1.22353478,10.4115728 C1.22353478,10.4076572 1.22353478,10.4076572 1.22353478,10.4037416 C1.11442977,9.94170111 1.05598065,9.46791386 1.05598065,8.9980422 C1.05598065,5.22732217 4.57851389,2.16140961 8.9076449,2.16140961 C9.24275316,2.16140961 9.58175801,2.1809876 9.91296966,2.21622797 C9.92076287,2.21622797 9.92855609,2.21622797 9.9363493,2.22014357 C10.3727694,2.24755275 11.1832637,2.36110507 11.5066822,2.53730694 C11.7443752,2.66652164 12.0405174,2.5921253 12.1924851,2.36893626 C12.5314899,1.86382423 13.2094997,1.2255819 14.5109666,1.06504242 C13.9849246,1.9108114 13.8290603,2.78790516 14.0589601,3.60626496 C14.0628567,3.75897324 14.1368923,3.90385034 14.2537905,4.00174027 C15.3058745,4.85534044 16.0696096,5.93996084 16.4592704,7.13421797 C16.5294093,7.34957581 16.7320329,7.4983685 16.9580361,7.4983685 C16.9619328,7.4983685 16.9619328,7.4983685 16.9658294,7.4983685 L17.604873,7.4983685 C17.7997034,7.4983685 17.9594643,7.65890798 17.9594643,7.85468784 L17.9594643,10.0239286 L17.9555677,10.0239286 Z" id="Shape"></path>
            </g>
        </g>
    </g>
</svg>