<?xml version="1.0" encoding="UTF-8"?>
<svg width="21px" height="19px" viewBox="0 0 21 19" version="1.1" xmlns="http://www.w3.org/2000/svg" xmlns:xlink="http://www.w3.org/1999/xlink">
    <!-- Generator: Sketch 59 (86127) - https://sketch.com -->
    <title>plant</title>
    <desc>Created with Sketch.</desc>
    <g id="Page-1" stroke="none" stroke-width="1" fill="none" fill-rule="evenodd">
        <g id="mimir-header-1b" transform="translate(-717.000000, -331.000000)" fill="#00824D">
            <g id="plant" transform="translate(717.000000, 331.000000)">
                <g>
                    <path d="M8.43954255,2.05803738 C6.60561702,0.236878505 3.01685106,0.025703271 0.476610638,0.025703271 C0.213529787,0.025703271 0,0.237810748 0,0.499193925 C0,3.02304206 0.211608511,6.58864953 2.04553404,8.41078505 C2.81954043,9.17979673 4.00626383,9.52357243 5.18248723,9.52357243 C6.46071702,9.52357243 7.72750851,9.11729206 8.43954255,8.4098528 C9.80548085,7.05272897 10.0561851,3.66327103 8.43954255,2.05803738 Z M7.76566596,7.74121262 C6.74573617,8.75358411 3.91381915,8.92689252 2.7204383,7.74121262 C1.24011702,6.27048832 0.983693617,3.28256075 0.95603617,0.975570093 C3.27801064,1.00304907 6.28534468,1.25777336 7.76562128,2.72854206 C8.95904681,3.91422196 8.78461277,6.72884112 7.76566596,7.74121262 Z" id="Shape" fill-rule="nonzero"></path>
                    <path d="M20.5155255,1.89893458 C17.9752851,1.89893458 14.3865191,2.10917757 12.5525489,3.93126869 C10.9359511,5.53650234 11.1866106,8.92596028 12.5525489,10.2830841 C13.264583,10.9895911 14.5304362,11.3958715 15.808666,11.3958715 C16.9848894,11.3958715 18.1706745,11.053028 18.9465574,10.2840607 C20.7795447,8.46196963 20.9920915,4.89636215 20.9920915,2.37246963 C20.9920915,2.11108645 20.7786064,1.89893458 20.5155255,1.89893458 Z M18.2707596,9.61351168 C17.0773787,10.7991916 14.2444787,10.6258832 13.2255319,9.61351168 C12.2065851,8.60114019 12.0321511,5.78652103 13.2255319,4.60084112 C14.7058532,3.13007243 17.7131426,2.87534813 20.035117,2.84786916 C20.0075043,5.15579206 19.7510809,8.14371963 18.2707596,9.61351168 Z" id="Shape" fill-rule="nonzero"></path>
                    <path d="M17.0735809,5.99774065 C16.9611191,5.76001869 16.6389255,5.6786028 16.4015809,5.78842991 C12.7461064,7.49594393 10.9502936,10.4734393 10.1343319,13.5342593 C9.12490213,7.02618224 6.2052766,5.0421472 4.96708085,4.20024299 C4.81266383,4.0951215 4.6925617,4.01841121 4.62585319,3.95306542 C4.43998085,3.76839252 4.13780426,3.76839252 3.95193191,3.95306542 C3.76605957,4.13773832 3.76605957,4.43796495 3.95193191,4.62263785 C4.04629787,4.71546262 4.20929362,4.8319486 4.42948085,4.9815514 C5.82495319,5.92955374 9.5319,8.4496285 9.5319,18.492993 C9.5319,18.7543762 9.74542979,18.966528 10.0085106,18.966528 C10.2715915,18.966528 10.4851213,18.7543762 10.4851213,18.4939696 C10.4851213,14.4359159 11.5822596,9.08608411 16.8076404,6.64649299 C16.8076404,6.64556075 16.8848489,6.60955841 16.8848489,6.60955841 C17.1221936,6.49777804 17.1860426,6.23448598 17.0735809,5.99774065 Z" id="Path" fill-rule="nonzero"></path>
                </g>
            </g>
        </g>
    </g>
</svg>