<?xml version="1.0" encoding="UTF-8"?>
<svg width="25px" height="14px" viewBox="0 0 25 14" version="1.1" xmlns="http://www.w3.org/2000/svg" xmlns:xlink="http://www.w3.org/1999/xlink">
    <!-- Generator: Sketch 59 (86127) - https://sketch.com -->
    <title>polar-bear (1)</title>
    <desc>Created with Sketch.</desc>
    <g id="Page-1" stroke="none" stroke-width="1" fill="none" fill-rule="evenodd">
        <g id="mimir-header-1b" transform="translate(-974.000000, -185.000000)" fill="#00824D" fill-rule="nonzero">
            <g id="polar-bear-(1)" transform="translate(974.000000, 185.000000)">
                <g id="Shape">
                    <path d="M23.3399748,2.2965313 C23.3042516,2.2536043 23.2601761,2.21857424 23.2106667,2.19346599 L22.1855597,1.67793695 C21.8750189,1.5217191 21.5275472,1.43930735 21.1808805,1.43930735 L20.594717,1.43930735 C20.5694591,1.24006125 20.4071447,1.08374215 20.2020629,1.08374215 C19.9969811,1.08374215 19.8347673,1.24006125 19.8095094,1.43930735 L17.1336855,1.43930735 C16.5181384,1.43930735 15.9076226,1.64391933 15.4151447,2.01568339 L14.9458113,2.36983119 C12.2905157,-0.297110279 7.3112956,0.00287254607 7.12030189,0.0165403427 C4.72412579,0.0165403427 2.48392453,1.3109313 1.27355975,3.39471345 C0.245333333,5.16535119 0.0781886792,7.22756859 0.764176101,9.22438305 C0.278943396,9.65537424 -2.84217094e-13,10.2664766 -2.84217094e-13,10.9227333 L-2.84217094e-13,11.4486904 C-2.84217094e-13,11.9942886 0.179220126,12.5352296 0.504754717,12.9727003 C0.979119497,13.6084047 1.73423899,13.9880658 2.52397484,13.9880658 L3.23109434,13.9880658 C3.45358491,13.9880658 3.63361006,13.8067397 3.63361006,13.583094 L3.63361006,12.863358 C4.51109434,13.3575247 5.51698113,13.6322981 6.56402516,13.6322981 L8.53454088,13.6322981 C8.72161006,13.6322981 8.87889308,13.5037196 8.92407547,13.3297842 C9.14304403,13.5183998 9.42681761,13.6322981 9.73695597,13.6322981 L12.7770566,13.6322981 C12.9995472,13.6322981 13.1795723,13.450972 13.1795723,13.2273263 C13.1795723,12.5146773 12.7719245,11.8957792 12.1792201,11.594379 L12.752,11.0593101 C12.7954717,11.748572 13.0509686,12.4156617 13.4846792,12.9526542 C13.8384906,13.3904287 14.3600503,13.6397901 14.9194465,13.6397901 C14.9289057,13.6397901 14.9379623,13.6395876 14.9473208,13.6395876 L17.7810314,13.5986854 C18.0023145,13.5955469 18.1796226,13.4128034 18.1776101,13.1899677 C18.170566,12.4076635 17.7428931,11.68732 17.0616352,11.3098863 C16.6422138,11.0771288 16.3764528,10.6331785 16.3682013,10.1520721 L16.3665912,10.0522466 C16.3614591,9.77200611 16.4416604,9.50138373 16.5981384,9.26994238 L16.9794214,8.70662667 C17.0262138,8.63778147 17.050566,8.55617966 17.0493585,8.47285673 L17.0367799,7.58495616 L18.0143899,7.58495616 C18.5996478,7.58495616 19.1668931,7.41233695 19.6303899,7.10030622 L21.0371824,6.29350125 L23.5174843,6.29350125 C24.0556478,6.29350125 24.5497358,5.99787187 24.8067421,5.5221313 C25.0958491,4.98756859 25.0322516,4.33971503 24.6450314,3.87227639 L23.3399748,2.2965313 Z M2.82857862,12.3855925 L2.82857862,13.1781223 L2.52397484,13.1781223 C1.98581132,13.1781223 1.47169811,12.9194466 1.14898113,12.486633 C0.927295597,12.1888775 0.805031447,11.820252 0.805031447,11.4486904 L0.805031447,10.9227333 C0.805031447,10.6005783 0.911496855,10.2963433 1.09916981,10.0462732 C1.19013836,10.2408622 1.28633962,10.4347424 1.39381132,10.6268002 C1.76613836,11.2915614 2.2612327,11.8639889 2.84025157,12.3274791 C2.83733333,12.3471202 2.82857862,12.364939 2.82857862,12.3855925 Z M8.48543396,10.9582696 L8.48543396,11.8953742 C8.15013836,11.4584097 7.65363522,11.1520486 7.08689308,11.0674095 L6.92850314,10.4308951 L7.40769811,10.4308951 C8.25127044,10.4308951 8.93715723,9.74062079 8.93715723,8.89210373 C8.93715723,8.65367661 9.11406289,8.55081379 9.16789937,8.5248956 C9.22213836,8.49877492 9.4132327,8.42679119 9.59677987,8.57764317 L9.88015094,8.81080565 L9.0087044,9.6875695 C8.67139623,10.0269358 8.48543396,10.4783781 8.48543396,10.9582696 L8.48543396,10.9582696 Z M16.6733082,12.0191944 C16.979522,12.18908 17.2039245,12.4694217 17.3081761,12.7955252 L14.9355472,12.8297453 C14.6041761,12.8402746 14.3125535,12.6928649 14.1096855,12.4417824 C13.7554717,12.0036029 13.5558239,11.4515252 13.5479748,10.8869946 L13.5401258,10.3376504 C13.5401258,10.3333982 13.5377107,10.3298547 13.5375094,10.3256025 L16.2347673,7.80566577 L16.2425157,8.35642735 L15.9327799,8.81434916 C15.6824151,9.18510079 15.5538113,9.6180156 15.5616604,10.0658131 L15.5632704,10.1656386 C15.5770566,10.9365024 16.0019119,11.6468228 16.6733082,12.0191944 L16.6733082,12.0191944 Z M24.0994214,5.13548452 C23.9834969,5.35022079 23.7606038,5.48365899 23.5176855,5.48365899 L20.9308176,5.48365899 C20.8608805,5.48365899 20.7920503,5.5020852 20.7315723,5.53681153 L19.2079497,6.41165176 C18.853434,6.64937017 18.4406541,6.7751139 18.0145912,6.7751139 L16.312956,6.7751139 C16.211522,6.7751139 16.1137107,6.81368746 16.0389434,6.88324136 L11.088805,11.5076138 C10.9677484,11.6209046 10.9275975,11.7974723 10.9881761,11.9525765 C11.0487547,12.107377 11.197283,12.2094298 11.3628176,12.2094298 C11.7779119,12.2094298 12.1352453,12.4619297 12.2913208,12.8224558 L9.7370566,12.8224558 C9.49101887,12.8224558 9.29046541,12.6209824 9.29046541,12.3731397 L9.29046541,10.9582696 C9.29046541,10.6984802 9.39501887,10.4439555 9.57776101,10.2601996 L10.6461384,9.18530328 C10.7562264,9.07454351 10.815195,8.92116046 10.8073459,8.76453763 C10.7998994,8.60811729 10.7263396,8.46121379 10.605283,8.36159074 L10.1064654,7.95084814 C9.88437736,7.76810464 9.61589937,7.67425243 9.34349686,7.67425243 C9.16779874,7.67425243 8.99049057,7.71343345 8.82344654,7.79311164 C8.39698113,7.99620498 8.13202516,8.4173756 8.13202516,8.89210373 C8.13202516,9.29393695 7.80699371,9.62095164 7.40759748,9.62095164 L6.41308176,9.62095164 C6.28930818,9.62095164 6.17207547,9.67845763 6.09589937,9.77676452 C6.01972327,9.87507142 5.99255346,10.0031437 6.02274214,10.1242303 L6.37615094,11.5469973 C6.4205283,11.7271085 6.58173585,11.8536622 6.76649057,11.8536622 C7.37932075,11.8536622 7.89937107,12.2619749 8.07154717,12.8224558 L6.56412579,12.8224558 C4.70369811,12.8224558 2.99139623,11.8285539 2.09519497,10.2288142 C0.891572327,8.07993289 0.84518239,5.73798125 1.96900629,3.8032287 C3.03506918,1.96698554 5.00910692,0.826483846 7.14706918,0.825673902 C7.19698113,0.821927913 12.2830692,0.519009043 14.5956226,3.17815481 C14.7343899,3.33670125 14.9713711,3.36261944 15.1400252,3.23545831 L15.8978616,2.6636382 C16.2523774,2.39645808 16.6911195,2.24914961 17.1336855,2.24914961 L19.7995472,2.24914961 L19.7995472,2.55561198 C19.7995472,2.66303074 19.8420126,2.76599481 19.9174843,2.84192701 L20.2708931,3.19769469 C20.3494843,3.27676543 20.4525283,3.31635142 20.5554717,3.31635142 C20.6584151,3.31635142 20.7614591,3.27676543 20.8400503,3.19789718 C20.9972327,3.03975571 20.9972327,2.78320611 20.8400503,2.62506464 L20.6045786,2.38795368 L20.6045786,2.24914961 L21.1808805,2.24914961 C21.4033711,2.24914961 21.6266667,2.30209966 21.8259119,2.40243142 L22.7752453,2.87999435 L24.0264654,4.39074147 C24.2012579,4.60173176 24.2299371,4.89402012 24.0994214,5.13548452 L24.0994214,5.13548452 Z"></path>
                </g>
            </g>
        </g>
    </g>
</svg>