<?xml version="1.0" encoding="UTF-8"?>
<svg width="19px" height="19px" viewBox="0 0 19 19" version="1.1" xmlns="http://www.w3.org/2000/svg" xmlns:xlink="http://www.w3.org/1999/xlink">
    <!-- Generator: Sketch 59 (86127) - https://sketch.com -->
    <title>renewable-energy</title>
    <desc>Created with Sketch.</desc>
    <g id="Page-1" stroke="none" stroke-width="1" fill="none" fill-rule="evenodd">
        <g id="mimir-header-1b" transform="translate(-460.000000, -351.000000)" fill="#00824D" fill-rule="nonzero">
            <g id="renewable-energy" transform="translate(460.000000, 351.000000)">
                <path d="M11.988635,9.38530688 C11.9543214,9.21637378 11.8480095,9.0806073 11.706984,9.02594071 L9.604344,8.20807519 L11.0976258,4.72371342 C11.1913666,4.50448039 11.1352821,4.23788076 10.964943,4.0943143 C10.7937753,3.95124783 10.5594089,3.9727478 10.4112407,4.14654756 L6.12561968,9.14654054 C6.02056482,9.26910704 5.97745147,9.44634012 6.01136502,9.61480655 C6.04567856,9.78373965 6.15199053,9.91950613 6.29301603,9.97417272 L8.395656,10.7920382 L6.90237421,14.2764 C6.80863339,14.495633 6.86471788,14.7622327 7.03505703,14.9057991 C7.20565332,15.0484323 7.43956252,15.0275656 7.58875927,14.8535659 L11.8743803,9.85357289 C11.9794352,9.73100639 12.0225485,9.55377331 11.988635,9.38530688 Z" id="Path"></path>
                <path d="M9.43983402,0 C6.59680498,0 3.91140664,1.30649446 2.12033195,3.41435424 L2.12033195,2.80442804 C2.12033195,2.49848708 1.86978838,2.25092251 1.56016598,2.25092251 C1.25054357,2.25092251 1,2.49848708 1,2.80442804 L1,5.15575646 C1,5.68398524 1.69049793,5.7595941 1.56016598,5.70926199 C1.57166805,5.70926199 1.58313278,5.70870849 1.59463485,5.70819188 L3.83529876,5.57088561 C4.144361,5.55195572 4.37907054,5.28926199 4.35991286,4.98439114 C4.34075519,4.6795203 4.07109129,4.4498155 3.766361,4.46601476 L2.63131535,4.53575646 C4.20351452,2.42254613 6.7473029,1.10701107 9.43983402,1.10701107 C14.0732282,1.10701107 17.879668,4.86819188 17.879668,9.44649446 C17.879668,9.75243542 18.1302116,10 18.439834,10 C18.7494564,10 19,9.75243542 19,9.44649446 C19,4.25793358 14.6908299,0 9.43983402,0 Z" id="Path"></path>
                <path d="M17.4053651,13.2918081 L15.1647012,13.4291144 C14.855639,13.4480443 14.6209295,13.710738 14.6400871,14.0156089 C14.6592448,14.3204797 14.9349585,14.5529151 15.233639,14.5339852 L16.3686846,14.4642435 C14.7964855,16.5774539 12.2526971,17.8929889 9.56016598,17.8929889 C4.92677178,17.8929889 1.12033195,14.1318081 1.12033195,9.55350554 C1.12033195,9.24756458 0.869788382,9 0.560165975,9 C0.250543568,9 0,9.24756458 0,9.55350554 C0,14.7420664 4.30917012,19 9.56016598,19 C12.403195,19 15.0885934,17.6935055 16.879668,15.5856458 L16.879668,16.195572 C16.879668,16.5015129 17.1302116,16.7490775 17.439834,16.7490775 C17.7494564,16.7490775 18,16.5015129 18,16.195572 L18,13.8442435 C18,13.5401845 17.7049419,13.2751292 17.4053651,13.2918081 Z" id="Path"></path>
            </g>
        </g>
    </g>
</svg>