<?xml version="1.0" encoding="UTF-8"?>
<svg width="18px" height="20px" viewBox="0 0 18 20" version="1.1" xmlns="http://www.w3.org/2000/svg" xmlns:xlink="http://www.w3.org/1999/xlink">
    <!-- Generator: Sketch 59 (86127) - https://sketch.com -->
    <title>shield</title>
    <desc>Created with Sketch.</desc>
    <g id="Page-1" stroke="none" stroke-width="1" fill="none" fill-rule="evenodd">
        <g id="mimir-header-1b" transform="translate(-719.000000, -374.000000)" fill="#00824D" fill-rule="nonzero">
            <g id="shield" transform="translate(719.000000, 374.000000)">
                <path d="M16.2797589,2.12405628 L9.44737897,0.116909008 C8.91695149,-0.0389696695 8.35598076,-0.0389696695 7.82538928,0.116909008 L0.993091349,2.12401544 C0.488656369,2.27217574 0.136363636,2.74148613 0.136363636,3.2653561 L0.136363636,7.99248208 C0.136363636,10.6008873 0.915851792,13.1125474 2.39057795,15.2559302 C3.83033312,17.3485923 5.83401085,18.9585083 8.18477461,19.9114632 C8.33039823,19.9704741 8.48340143,20 8.63640463,20 C8.78940782,20 8.94241102,19.9704333 9.08799365,19.9114632 C11.4387574,18.9585083 13.4424351,17.348674 14.8821903,15.2559302 C16.3568755,13.1125065 17.1363636,10.6008873 17.1363636,7.99248208 L17.1363636,3.26539694 C17.1363636,2.74152697 16.7841529,2.27217574 16.2797589,2.12405628 Z M16.1807906,7.99244124 C16.1807906,10.4078869 15.4591501,12.7334481 14.0939697,14.7176853 C12.7603164,16.6561022 10.9047631,18.1471796 8.72782937,19.0296481 C8.66887476,19.0535383 8.60397549,19.0535383 8.54502088,19.0296481 C6.36808712,18.1471796 4.51249288,16.656143 3.1788806,14.7176853 C1.81370014,12.7334481 1.09205965,10.4079278 1.09205965,7.99244124 L1.09205965,3.2653561 C1.09205965,3.16060661 1.1625346,3.06676087 1.2634298,3.03711247 L8.09576873,1.0299652 C8.27263255,0.977978415 8.45453909,0.952046279 8.63644562,0.952046279 C8.81831116,0.952046279 9.0002177,0.978019253 9.17708152,1.03000604 L16.0095025,3.03711247 C16.1103157,3.06672003 16.1807906,3.16056577 16.1807906,3.2653561 L16.1807906,7.99244124 Z" id="Shape"></path>
            </g>
        </g>
    </g>
</svg>