<?xml version="1.0" encoding="UTF-8"?>
<svg width="22px" height="21px" viewBox="0 0 22 21" version="1.1" xmlns="http://www.w3.org/2000/svg" xmlns:xlink="http://www.w3.org/1999/xlink">
    <!-- Generator: Sketch 59 (86127) - https://sketch.com -->
    <title>shopping-cart (1)</title>
    <desc>Created with Sketch.</desc>
    <g id="Page-1" stroke="none" stroke-width="1" fill="none" fill-rule="evenodd">
        <g id="mimir-header-1b" transform="translate(-976.000000, -433.000000)" fill="#00824D" fill-rule="nonzero">
            <g id="shopping-cart-(1)" transform="translate(976.000000, 433.000000)">
                <path d="M11,18.5001237 C11,17.1193033 9.88069673,16 8.50012373,16 C7.11930333,16 6,17.1193033 6,18.4998763 C6,19.8806968 7.11930333,21 8.50012373,21 C9.87995447,20.9985155 10.9985155,19.8802019 11,18.5001237 L11,18.5001237 Z M6.88673363,18.5001237 C6.88673363,17.6089366 7.60893661,16.8867336 8.50012373,16.8867336 C9.39106339,16.8867336 10.1132664,17.6089366 10.1132664,18.4998763 C10.1132664,19.3910634 9.39106339,20.1132664 8.50012373,20.1132664 C7.60943147,20.1122768 6.88772335,19.3905686 6.88673363,18.5001237 L6.88673363,18.5001237 Z" id="Shape"></path>
                <path d="M16.4998762,21 C17.8806966,21.0002473 19,19.8809441 19,18.5001236 C19.0002472,17.1193032 17.880944,16 16.5001236,16 C15.1193032,16 14,17.1193032 14,18.5001236 C14.0017319,19.8799544 15.119798,20.998268 16.4998762,21 L16.4998762,21 Z M16.4998762,16.8867336 C17.3908159,16.8867336 18.1132663,17.6089366 18.1132663,18.4998762 C18.1135136,19.3908159 17.3910633,20.1132662 16.5001236,20.1132662 C15.609184,20.1132662 14.8867336,19.3910633 14.8867336,18.5001236 C14.8877233,17.6096788 15.6094314,16.8879707 16.4998762,16.8867336 L16.4998762,16.8867336 Z" id="Shape"></path>
                <path d="M0.371978471,0.77929044 L2.64100564,0.77929044 C3.38766108,0.776246452 4.02430058,1.34568454 4.13805293,2.11885055 L5.93421904,14.0031253 C6.10380966,15.1554818 7.05285295,16.0045294 8.16608987,15.9999818 L19.2685678,15.9999818 C19.4738618,15.9999818 19.6405463,15.8253706 19.6405463,15.6103365 C19.6405463,15.395085 19.4738618,15.2207096 19.2685678,15.2207096 L8.16608987,15.2207096 C7.41943444,15.2237535 6.78279493,14.6540981 6.66904259,13.8811495 L6.36369641,11.8606119 L17.7345718,11.8606119 C18.6973151,11.860177 19.5541941,11.2213801 19.8697116,10.2688378 L21.9793194,3.89130536 C22.0189667,3.77215604 22.0009074,3.64039606 21.9311615,3.53755369 C21.861208,3.43492873 21.7482859,3.37383205 21.6278911,3.37383205 L5.08086887,3.37383205 L4.87287647,1.99687471 C4.7032858,0.844518169 3.75424256,-0.00452942915 2.64100564,1.81812883e-05 L0.371978471,1.81812883e-05 C0.166476945,1.81812883e-05 0,0.17462941 0,0.389663475 C0,0.604915007 0.166476945,0.77929044 0.371978471,0.77929044 Z M21.1052115,4.15330344 L19.166855,10.01358 C18.9551261,10.6525943 18.3803447,11.0811405 17.7345718,11.0813579 L6.24579252,11.0813579 L5.19856519,4.15308598 L21.1052115,4.15330344 Z" id="Shape"></path>
            </g>
        </g>
    </g>
</svg>