<?xml version="1.0" encoding="UTF-8"?>
<svg width="18px" height="19px" viewBox="0 0 18 19" version="1.1" xmlns="http://www.w3.org/2000/svg" xmlns:xlink="http://www.w3.org/1999/xlink">
    <!-- Generator: Sketch 59 (86127) - https://sketch.com -->
    <title>sun copy 31</title>
    <desc>Created with Sketch.</desc>
    <g id="Page-1" stroke="none" stroke-width="1" fill="none" fill-rule="evenodd">
        <g id="mimir-header-1b" transform="translate(-719.000000, -226.000000)" fill="#00824D">
            <g id="sun" transform="translate(719.000000, 226.000000)">
                <g id="sun-(1)">
                    <path d="M1.76895669,8.84482759 L0.589664002,8.84482759 C0.263999665,8.84482759 0,9.12352701 0,9.46724138 C0,9.81095575 0.263999665,10.0896552 0.589664002,10.0896552 L1.76895669,10.0896552 C2.09458571,10.0896552 2.35862069,9.81099303 2.35862069,9.46724138 C2.35862069,9.12348973 2.09458571,8.84482759 1.76895669,8.84482759 Z" id="Path" fill-rule="nonzero"></path>
                    <path d="M17.410336,8.84482759 L16.2310433,8.84482759 C15.9054143,8.84482759 15.6413793,9.12348973 15.6413793,9.46724138 C15.6413793,9.81099303 15.905379,10.0896552 16.2310433,10.0896552 L17.410336,10.0896552 C17.735965,10.0896552 18,9.81099303 18,9.46724138 C18,9.12348973 17.7360003,8.84482759 17.410336,8.84482759 Z" id="Path" fill-rule="nonzero"></path>
                    <path d="M9.03103448,16.5103448 C8.70541034,16.5103448 8.44137931,16.7890111 8.44137931,17.1327679 L8.44137931,18.3775769 C8.44137931,18.7212964 8.70537502,19 9.03103448,19 C9.35669394,19 9.62068966,18.7213337 9.62068966,18.3775769 L9.62068966,17.1327679 C9.62068966,16.7890484 9.35665863,16.5103448 9.03103448,16.5103448 Z" id="Path" fill-rule="nonzero"></path>
                    <path d="M9.03103448,0 C8.70541034,0 8.44137931,0.278666313 8.44137931,0.622423113 L8.44137931,1.86723206 C8.44137931,2.21095158 8.70537502,2.48965517 9.03103448,2.48965517 C9.35669394,2.48965517 9.62068966,2.21098886 9.62068966,1.86723206 L9.62068966,0.622423113 C9.62068966,0.278666313 9.35665863,0 9.03103448,0 Z" id="Path" fill-rule="nonzero"></path>
                    <path d="M13.7016167,16.8990294 L13.1223487,15.8348923 C12.9624047,15.5410467 12.6081339,15.4403259 12.3310942,15.6100094 C12.0540545,15.779656 11.959129,16.1554178 12.119073,16.4492634 L12.6983409,17.5134005 C12.8583543,17.8073933 13.2127292,17.9078565 13.4895954,17.7382835 C13.7666351,17.5686368 13.8615607,17.192875 13.7016167,16.8990294 Z" id="Path" fill-rule="nonzero"></path>
                    <path d="M5.880927,2.55074375 L5.30165905,1.48661429 C5.14171504,1.19277075 4.78744426,1.09205067 4.51040457,1.2617329 C4.23336489,1.43137833 4.13843933,1.80713743 4.29838334,2.10098097 L4.87765129,3.16511044 C5.03766469,3.45910118 5.39203956,3.55960045 5.66890577,3.38999183 C5.94594546,3.2203464 6.04087102,2.8445873 5.880927,2.55074375 Z" id="Path" fill-rule="nonzero"></path>
                    <path d="M16.59164,13.4038236 L15.5835032,12.7923929 C15.3050864,12.623495 14.9491339,12.7237277 14.788415,13.0161862 C14.627696,13.308608 14.7230815,13.682549 15.0014635,13.8513736 L16.0096002,14.4628044 C16.2878428,14.6315924 16.6438998,14.5315794 16.8046885,14.2390111 C16.9654075,13.9465893 16.870022,13.5726482 16.59164,13.4038236 Z" id="Path" fill-rule="nonzero"></path>
                    <path d="M2.99854995,5.14864623 L1.99040599,4.53721281 C1.71198715,4.36831421 1.35599732,4.46858402 1.19531206,4.76100711 C1.03459195,5.0534302 1.12997812,5.42737286 1.40836209,5.59619821 L2.41650605,6.20763164 C2.69475058,6.37642037 3.05081014,6.27640691 3.21159998,5.98383734 C3.37228524,5.69141425 3.27693393,5.31747159 2.99854995,5.14864623 Z" id="Path" fill-rule="nonzero"></path>
                    <path d="M16.8046885,4.76099626 C16.6439695,4.46856799 16.2880171,4.36833302 16.0096002,4.53719799 L15.0014635,5.14864226 C14.7230815,5.31747061 14.627696,5.69141991 14.788415,5.98384819 C14.9492037,6.27642295 15.3052955,6.37640156 15.5835032,6.20764646 L16.59164,5.59620219 C16.870022,5.42737384 16.9654075,5.05342454 16.8046885,4.76099626 Z" id="Path" fill-rule="nonzero"></path>
                    <path d="M3.21157771,13.0161551 C3.05089417,12.7237242 2.69487326,12.623525 2.41649224,12.7923549 L1.408359,13.4038046 C1.12997798,13.5726344 1.03459282,13.946587 1.19531123,14.2390179 C1.35609937,14.5315952 1.71219,14.6315747 1.99039671,14.4628181 L2.99852995,13.8513684 C3.27694583,13.6825386 3.37229612,13.308586 3.21157771,13.0161551 Z" id="Path" fill-rule="nonzero"></path>
                    <path d="M13.4895954,1.26174838 C13.212521,1.09203116 12.858285,1.19278696 12.6983409,1.48662738 L12.119073,2.55074552 C11.959129,2.84458594 12.0540545,3.22034105 12.3310942,3.38998467 C12.6079951,3.5595915 12.9623353,3.45913009 13.1223487,3.16510567 L13.7016167,2.10098753 C13.8615607,1.80718391 13.7666351,1.4314288 13.4895954,1.26174838 Z" id="Path" fill-rule="nonzero"></path>
                    <path d="M5.66890577,15.6100323 C5.39186609,15.440315 5.03756061,15.541034 4.87765129,15.8349113 L4.29838334,16.8990294 C4.13843933,17.1928698 4.23336489,17.5686249 4.51040457,17.7382686 C4.78730548,17.9078754 5.14164565,17.8073772 5.30165905,17.5133896 L5.880927,16.4492714 C6.04087102,16.155431 5.94594546,15.7796759 5.66890577,15.6100323 Z" id="Path" fill-rule="nonzero"></path>
                    <path d="M9.03103448,3.66896552 C6.00215333,3.66896552 3.53793103,6.27008905 3.53793103,9.46724138 C3.53793103,12.6643937 6.00215333,15.2655172 9.03103448,15.2655172 C12.0599156,15.2655172 14.5241379,12.6643937 14.5241379,9.46724138 C14.5241379,6.27008905 12.0599509,3.66896552 9.03103448,3.66896552 Z M9.03103448,14.0230402 C6.65120433,14.0230402 4.71501456,11.9793215 4.71501456,9.46724138 C4.71501456,6.95516123 6.65120433,4.91144257 9.03103448,4.91144257 C11.4108646,4.91144257 13.3470544,6.95519844 13.3470544,9.46724138 C13.3470544,11.9792843 11.4108999,14.0230402 9.03103448,14.0230402 Z" id="Shape" fill-rule="nonzero"></path>
                    <path d="M9.03262524,6.22413793 C7.30337001,6.22413793 5.89655172,7.70916401 5.89655172,9.53446906 C5.89655172,9.87723888 6.15981947,10.1551724 6.48458092,10.1551724 C6.80930715,10.1551724 7.07261011,9.87727606 7.07261011,9.53446906 C7.07261011,8.39362552 7.95190676,7.46550746 9.03266046,7.46550746 C9.35738669,7.46550746 9.62068966,7.1876111 9.62068966,6.84480411 C9.62068966,6.50203429 9.35735147,6.22413793 9.03262524,6.22413793 Z" id="Path" fill-rule="nonzero"></path>
                </g>
            </g>
        </g>
    </g>
</svg>