<?xml version="1.0" encoding="UTF-8"?>
<svg width="19px" height="19px" viewBox="0 0 19 19" version="1.1" xmlns="http://www.w3.org/2000/svg" xmlns:xlink="http://www.w3.org/1999/xlink">
    <!-- Generator: Sketch 59 (86127) - https://sketch.com -->
    <title>tag</title>
    <desc>Created with Sketch.</desc>
    <g id="Page-1" stroke="none" stroke-width="1" fill="none" fill-rule="evenodd">
        <g id="mimir-header-1b" transform="translate(-718.000000, -415.000000)" fill="#00824D" fill-rule="nonzero">
            <g id="tag" transform="translate(718.000000, 415.000000)">
                <path d="M18.2704168,10.5075266 L10.8967085,3.12633292 C10.5073242,2.73676992 9.98677894,2.51943478 9.43754218,2.51943478 C9.39245558,2.51943478 9.34736898,2.51943478 9.30228239,2.52353544 L3.96976733,2.87619247 C3.39183911,2.91309844 2.92457799,3.38057404 2.88768895,3.95876754 L2.76062672,5.85327392 C2.49010712,5.69744872 2.23188387,5.50061689 1.99825331,5.26687909 C1.42852265,4.69688691 1.07602742,3.98747219 1.00224935,3.26575547 C0.932570056,2.58094472 1.12931158,1.96994591 1.55558488,1.54347695 C2.46141565,0.637230388 4.12961982,0.838162883 5.28137749,1.98634857 C5.47402023,2.17907973 5.78552765,2.17907973 5.97817039,1.98634857 C6.17081313,1.7936174 6.17081313,1.481967 5.97817039,1.28923583 C4.43702845,-0.240311527 2.14171067,-0.437143359 0.854693203,0.850464872 C0.215283251,1.49016832 -0.0798290352,2.38001223 0.0185417267,3.36827205 C0.112813707,4.31552524 0.567778481,5.23817445 1.29736163,5.96809249 C1.70723981,6.37815881 2.18269849,6.7021112 2.68684864,6.92354701 L2.53109494,9.29783097 C2.49010712,9.89242713 2.71144133,10.4747213 3.13361585,10.8970896 L10.511423,18.2782833 C10.9786841,18.7457589 11.5976002,19 12.257504,19 L12.257504,19 C12.9174079,19 13.5363239,18.7416582 14.003585,18.2782833 L18.2786144,14.0012916 C18.7458755,13.533816 19,12.9146159 19,12.2544091 C18.9959012,11.5901017 18.737678,10.9709015 18.2704168,10.5075266 Z M17.5777227,13.3000782 L13.2985946,17.5811705 C13.0198774,17.8600156 12.6468883,18.0158408 12.2493065,18.0158408 L12.2493065,18.0158408 C11.8517246,18.0158408 11.4787355,17.8600156 11.2000183,17.5811705 L3.82221119,10.1999769 C3.60087697,9.97854106 3.48611109,9.67509198 3.50660499,9.36344158 L3.65006236,7.21469409 C3.73203799,7.22699608 3.81401363,7.23929807 3.89598926,7.2474994 C4.01895271,7.25980138 4.14191616,7.26800271 4.26078084,7.26800271 C5.10103109,7.26800271 5.85110815,6.97275496 6.40854247,6.41506477 C6.60118521,6.22233361 6.60118521,5.91068321 6.40854247,5.71795204 C6.21589973,5.52522087 5.90439232,5.52522087 5.71174957,5.71795204 C5.28547627,6.14442101 4.67475779,6.34125284 3.99026124,6.27154156 C3.89598926,6.26334024 3.80581606,6.24693759 3.71564286,6.23053493 L3.86319901,4.03257948 C3.86729779,3.94236489 3.94107586,3.87265362 4.03124906,3.86445229 L9.36376411,3.51179526 C9.3883568,3.51179526 9.41294949,3.5076946 9.43754218,3.5076946 C9.72445691,3.5076946 10.0031741,3.62251317 10.2040144,3.82344566 L17.5777227,11.2005387 C17.8564399,11.4793838 18.0121936,11.8525441 18.0121936,12.2503084 C18.0121936,12.6480728 17.8564399,13.0212331 17.5777227,13.3000782 Z" id="Shape"></path>
            </g>
        </g>
    </g>
</svg>