<?xml version="1.0" encoding="UTF-8"?>
<svg width="17px" height="20px" viewBox="0 0 17 20" version="1.1" xmlns="http://www.w3.org/2000/svg" xmlns:xlink="http://www.w3.org/1999/xlink">
    <!-- Generator: Sketch 59 (86127) - https://sketch.com -->
    <title>vote</title>
    <desc>Created with Sketch.</desc>
    <g id="Page-1" stroke="none" stroke-width="1" fill="none" fill-rule="evenodd">
        <g id="mimir-header-1b" transform="translate(-978.000000, -390.000000)" fill="#00824D" fill-rule="nonzero">
            <g id="vote" transform="translate(978.000000, 390.000000)">
                <g id="Shape">
                    <path d="M16.9761159,11.1547456 C16.9736483,11.128242 16.968378,11.1020849 16.9599454,11.0769671 L16.9595941,11.0754081 L15.6103877,7.0343881 C15.5624277,6.88766553 15.4250475,6.78736762 15.2686942,6.78511564 L13.4022921,6.78511564 L13.4022921,2.52357879 C13.40563,2.43055635 13.37067,2.34013227 13.3054935,2.27274731 L11.0996817,0.0985857102 C11.0332755,0.0334526725 10.9428013,-0.00205868003 10.849165,9.23257027e-05 L3.94010417,9.23257027e-05 C3.84769761,-0.0017122277 3.7586289,0.0339723621 3.69397943,0.0991053998 C3.62915424,0.164065222 3.59454571,0.252583759 3.59805926,0.343700743 L3.59805926,6.78511564 L1.73165715,6.78511564 C1.57530383,6.78736762 1.43792368,6.88766553 1.38978796,7.0343881 L0.0405816085,11.0726364 C0.0405816085,11.0731561 0.0405816085,11.0750616 0.0402302302,11.0755813 C0.0319734021,11.1010455 0.0265273757,11.1273759 0.0242435291,11.1540528 C0.0237165291,11.1583834 0.0124731429,11.1632337 0.0122974762,11.1677376 C0.0119460979,11.1738005 2.27373675e-13,11.1802099 2.27373675e-13,11.186446 L2.27373675e-13,19.6121666 C2.27373675e-13,19.8082587 0.183583405,19.9558959 0.382275132,19.9558959 L16.6177249,19.9558959 C16.7097801,19.9574064 16.7981461,19.9213753 16.8620929,19.8562423 C16.9260396,19.7911093 16.9597698,19.7027639 16.9550265,19.6121666 L16.9550265,11.186446 C16.9550265,11.1802099 16.9657428,11.174147 16.9653915,11.1680841 C16.9652158,11.1635802 16.9764591,11.1590763 16.9761159,11.1547456 Z M11.1985884,1.2001309 L12.1915199,2.17314225 L11.1985884,2.17314225 L11.1985884,1.2001309 Z M4.31763598,0.709727617 L10.4790116,0.709727617 L10.4790116,2.52357879 C10.4835793,2.72244243 10.6476624,2.88146403 10.849165,2.88267662 L12.6827153,2.88267662 L12.6827153,9.26848593 L4.31763598,9.26848593 L4.31763598,0.709727617 Z M1.99183612,7.49465001 L3.59805926,7.49465001 L3.59805926,9.26848593 L3.04063327,9.26848593 C2.84194154,9.26848593 2.68084491,9.4271611 2.68084491,9.62325312 C2.68084491,9.81917192 2.84194154,9.9780203 3.04063327,9.9780203 L13.9597181,9.9780203 C14.1584098,9.9780203 14.3195065,9.81917192 14.3195065,9.62325312 C14.3195065,9.4271611 14.1584098,9.26848593 13.9597181,9.26848593 L13.4022921,9.26848593 L13.4022921,7.49465001 L15.0085152,7.49465001 L16.1203807,10.8205924 L0.87997064,10.8205924 L1.99183612,7.49465001 Z M16.2356254,19.246313 L0.719752386,19.246313 L0.719752386,11.5301267 L16.2356254,11.5301267 L16.2356254,19.246313 Z"></path>
                </g>
            </g>
        </g>
    </g>
</svg>