<?xml version="1.0" encoding="UTF-8"?>
<svg width="20px" height="19px" viewBox="0 0 20 19" version="1.1" xmlns="http://www.w3.org/2000/svg" xmlns:xlink="http://www.w3.org/1999/xlink">
    <!-- Generator: Sketch 59 (86127) - https://sketch.com -->
    <title>wallet</title>
    <desc>Created with Sketch.</desc>
    <g id="Page-1" stroke="none" stroke-width="1" fill="none" fill-rule="evenodd">
        <g id="mimir-header-1b" transform="translate(-460.000000, -497.000000)" fill="#00824D" fill-rule="nonzero">
            <g id="wallet" transform="translate(460.000000, 497.000000)">
                <g id="Shape">
                    <path d="M18.8647541,8.25298329 L18.3893443,8.25298329 L18.3893443,5.09236277 C18.3893443,3.8 17.4385246,2.75250597 16.2745902,2.75250597 L15.8360656,2.75250597 L15.8401639,1.57804296 C15.8401639,0.707398568 15.2008197,0 14.4139344,0 L1.73360656,0 C0.786885246,0 0.012295082,0.843436754 -7.38964445e-13,1.89093079 C-7.38964445e-13,1.9 -7.38964445e-13,1.90906921 -7.38964445e-13,1.91813842 L-7.38964445e-13,17.399284 C-7.38964445e-13,18.2699284 0.639344262,18.977327 1.42622951,18.977327 L16.2786885,18.977327 C17.4467213,18.977327 18.3934426,17.9252983 18.3934426,16.6374702 L18.3934426,13.472315 L18.8688525,13.472315 C19.4836066,13.472315 19.9836066,12.9190931 19.9836066,12.2389021 L19.9836066,9.48639618 C19.9795082,8.80620525 19.4795082,8.25298329 18.8647541,8.25298329 Z M1.73360656,1.08830549 L14.4139344,1.08830549 C14.6557377,1.08830549 14.8565574,1.30596659 14.8565574,1.57350835 L14.852459,2.75250597 L1.73360656,2.75250597 C1.31967213,2.75250597 0.983606557,2.38066826 0.983606557,1.92267303 C0.983606557,1.4646778 1.31967213,1.08830549 1.73360656,1.08830549 Z M17.4057377,16.6329356 C17.4057377,17.3221957 16.897541,17.8844869 16.2745902,17.8844869 L1.42213115,17.8844869 C1.18032787,17.8844869 0.979508197,17.6668258 0.979508197,17.3947494 L0.979508197,3.650358 C1.20901639,3.77279236 1.46311475,3.84081146 1.73360656,3.84081146 L16.2745902,3.84081146 C16.897541,3.84081146 17.4057377,4.40310263 17.4057377,5.09236277 L17.4057377,8.25298329 L14.0491803,8.25298329 C13.4344262,8.25298329 12.9344262,8.80620525 12.9344262,9.48639618 L12.9344262,12.2389021 C12.9344262,12.9190931 13.4344262,13.472315 14.0491803,13.472315 L17.4057377,13.472315 L17.4057377,16.6329356 Z M18.9959016,12.2389021 C18.9959016,12.3205251 18.9385246,12.3840095 18.8647541,12.3840095 L14.0532787,12.3840095 C13.9795082,12.3840095 13.9221311,12.3205251 13.9221311,12.2389021 L13.9221311,9.48639618 C13.9221311,9.40930788 13.9795082,9.34128878 14.0532787,9.34128878 L18.8647541,9.34128878 C18.9344262,9.34128878 18.9959016,9.40477327 18.9959016,9.48639618 L18.9959016,12.2389021 L18.9959016,12.2389021 Z"></path>
                </g>
            </g>
        </g>
    </g>
</svg>